<svg xmlns="http://www.w3.org/2000/svg" xmlns:xlink="http://www.w3.org/1999/xlink" version="1.1" xml:space="preserve" viewBox="42.55 175.05 190.12 56.6">
<desc>Created with Fabric.js 4.6.0</desc>
<defs>
</defs>
<g transform="matrix(0.01 0 0 -0.01 66.77 202.8)" id="OiBcU7poq_7GN9Lv23bLS">
<path style="stroke: none; stroke-width: 1; stroke-dasharray: none; stroke-linecap: butt; stroke-dashoffset: 0; stroke-linejoin: miter; stroke-miterlimit: 4; fill: rgb(34,146,220); fill-rule: nonzero; opacity: 1;" vector-effect="non-scaling-stroke" transform=" translate(-2511.17, -2338.1)" d="M 1170 4671 C 1106 4664 1001 4614 949 4567 C 908 4530 850 4457 850 4442 C 850 4437 844 4427 836 4421 C 821 4408 805 4355 790 4265 C 785 4238 781 3685 781 3038 L 780 1861 L 758 1848 C 745 1842 704 1825 665 1812 C 627 1799 591 1784 585 1779 C 580 1774 568 1770 557 1770 C 547 1770 514 1758 484 1744 C 426 1717 415 1693 445 1654 C 475 1614 465 1594 392 1560 C 103 1420 82 1033 356 872 C 433 827 530 814 644 834 C 693 842 736 847 740 845 C 744 842 750 826 754 808 C 761 771 786 740 809 740 C 818 741 843 749 865 760 C 937 795 953 789 1021 703 C 1054 660 1097 607 1115 585 C 1133 563 1187 496 1234 435 C 1281 375 1328 316 1338 305 C 1348 294 1383 249 1417 205 C 1450 161 1494 105 1514 80 C 1535 55 1558 27 1566 18 C 1578 2 1598 0 1713 0 C 1826 0 1851 3 1883 20 C 1903 31 1927 40 1936 40 C 1945 40 1966 46 1983 54 C 2001 61 2044 78 2080 91 C 2152 116 2190 137 2190 152 C 2190 161 2104 275 2073 308 C 2066 315 2060 324 2060 328 C 2060 332 2047 349 2032 365 C 2017 382 1973 436 1935 485 C 1897 535 1858 584 1848 595 C 1838 606 1792 665 1744 725 C 1697 786 1648 846 1636 860 C 1605 895 1598 917 1616 924 C 1625 927 2129 930 2737 930 L 3843 930 L 3891 961 C 3945 995 3967 1024 3992 1095 C 4009 1141 4010 1203 4010 1947 L 4010 2750 L 4416 2750 C 4676 2750 4828 2754 4841 2760 C 4860 2770 4860 2789 4860 3483 C 4860 4269 4858 4307 4800 4423 C 4752 4520 4670 4596 4555 4651 L 4505 4675 L 2865 4676 C 1963 4677 1200 4674 1170 4671 z M 4050 4570 C 4062 4562 4060 4555 4034 4528 C 3978 4467 3949 4421 3930 4359 C 3910 4299 3910 4261 3910 2725 C 3910 998 3914 1105 3852 1053 L 3825 1031 L 2737 1030 L 1649 1030 L 1652 1067 C 1655 1109 1658 1110 1790 1129 C 1831 1135 1885 1144 1910 1149 C 1935 1155 2132 1159 2363 1160 C 2694 1160 2785 1157 2846 1144 C 2952 1123 3066 1120 3063 1140 C 3059 1168 3042 1224 3020 1280 C 3008 1310 2994 1351 2988 1370 C 2983 1389 2974 1410 2970 1415 C 2966 1421 2959 1441 2955 1460 C 2951 1479 2944 1500 2940 1505 C 2912 1540 2889 1660 2910 1660 C 2936 1660 3022 1756 3052 1819 C 3080 1879 3084 1894 3083 1975 C 3083 2038 3078 2074 3066 2095 C 3057 2112 3050 2132 3050 2140 C 3050 2162 2983 2260 2946 2293 C 2871 2359 2805 2381 2666 2384 L 2616 2385 L 2592 2450 C 2579 2486 2563 2529 2556 2545 C 2549 2562 2532 2608 2519 2648 C 2506 2689 2492 2724 2488 2727 C 2483 2729 2480 2741 2480 2752 C 2480 2763 2471 2791 2461 2814 C 2450 2837 2439 2863 2436 2872 C 2433 2883 2425 2887 2416 2884 C 2408 2881 2310 2787 2200 2677 C 2089 2566 1960 2444 1913 2405 C 1866 2367 1822 2330 1816 2325 C 1766 2279 1599 2159 1480 2084 C 1346 1999 1344 1999 1312 2017 C 1286 2032 1279 2031 1197 2005 C 1149 1990 1107 1974 1104 1969 C 1101 1964 1089 1960 1077 1960 C 1065 1960 1044 1954 1030 1947 C 1016 1940 981 1926 951 1916 C 907 1902 895 1901 889 1912 C 884 1919 880 2444 880 3078 C 880 4088 882 4240 896 4300 C 904 4338 918 4374 926 4381 C 934 4387 940 4398 940 4405 C 940 4424 1033 4513 1081 4539 C 1105 4552 1141 4566 1160 4570 C 1213 4582 4032 4581 4050 4570 z M 4330 4145 L 4335 3725 L 4374 3722 C 4398 3720 4416 3724 4421 3732 C 4426 3739 4430 3931 4430 4158 L 4430 4570 L 4462 4570 C 4539 4570 4677 4460 4723 4363 L 4745 4315 L 4745 3585 L 4745 2855 L 4380 2855 L 4015 2855 L 4012 3570 C 4010 4284 4010 4285 4032 4344 C 4072 4453 4208 4570 4290 4567 L 4325 4565 L 4330 4145 z M 2389 2691 C 2403 2682 2425 2632 2440 2572 C 2444 2554 2452 2534 2458 2527 C 2463 2520 2473 2499 2478 2480 C 2498 2410 2552 2265 2561 2256 C 2566 2250 2570 2237 2570 2227 C 2570 2217 2577 2192 2586 2172 C 2595 2151 2608 2120 2616 2102 C 2624 2084 2630 2062 2630 2052 C 2630 2043 2639 2022 2650 2005 C 2661 1989 2670 1964 2670 1950 C 2670 1936 2676 1916 2683 1905 C 2691 1894 2707 1852 2720 1812 C 2732 1772 2747 1737 2751 1734 C 2756 1731 2760 1719 2760 1707 C 2760 1695 2767 1673 2774 1658 C 2782 1642 2799 1600 2811 1563 C 2823 1525 2838 1490 2843 1483 C 2848 1476 2856 1456 2860 1438 C 2865 1420 2880 1372 2895 1331 C 2910 1291 2918 1254 2913 1250 C 2909 1246 2824 1247 2725 1252 C 2468 1266 1893 1256 1815 1237 C 1782 1228 1726 1217 1690 1212 C 1603 1199 1606 1196 1541 1380 C 1534 1399 1517 1447 1504 1485 C 1490 1524 1472 1569 1464 1587 C 1457 1604 1450 1627 1450 1638 C 1450 1649 1443 1663 1435 1670 C 1427 1677 1420 1691 1420 1702 C 1420 1713 1414 1736 1406 1753 C 1365 1849 1358 1869 1364 1887 C 1367 1897 1396 1920 1427 1938 C 1520 1991 1551 2010 1615 2053 C 1711 2116 1764 2154 1775 2166 C 1781 2171 1810 2195 1840 2217 C 1870 2240 1904 2267 1915 2277 C 1926 2287 1960 2315 1990 2340 C 2059 2397 2169 2500 2279 2612 C 2326 2660 2367 2699 2370 2700 C 2373 2700 2381 2696 2389 2691 z M 2806 2270 C 2820 2264 2858 2233 2889 2202 C 2951 2138 2990 2050 2990 1973 C 2990 1863 2884 1719 2843 1773 C 2838 1779 2823 1817 2810 1855 C 2798 1894 2784 1930 2780 1935 C 2776 1941 2767 1961 2762 1980 C 2747 2030 2693 2176 2681 2199 C 2675 2210 2670 2232 2670 2249 C 2670 2280 2670 2280 2724 2280 C 2754 2280 2791 2275 2806 2270 z M 1262 1860 C 1267 1841 1275 1816 1279 1805 C 1304 1746 1320 1702 1325 1673 C 1329 1656 1338 1636 1346 1629 C 1354 1623 1360 1606 1360 1591 C 1360 1576 1364 1560 1369 1555 C 1374 1549 1390 1509 1405 1465 C 1420 1421 1436 1381 1440 1375 C 1444 1370 1451 1349 1455 1330 C 1459 1311 1466 1289 1471 1280 C 1487 1252 1520 1146 1520 1123 C 1520 1107 1512 1098 1493 1094 C 1478 1090 1455 1081 1441 1074 C 1427 1066 1406 1060 1394 1060 C 1383 1060 1369 1055 1362 1048 C 1355 1041 1331 1031 1307 1024 C 1246 1007 1118 962 1095 948 C 1084 942 1062 933 1045 929 C 1029 925 990 912 960 900 C 893 873 859 867 842 878 C 829 887 777 1018 756 1097 C 749 1121 739 1145 732 1152 C 725 1159 720 1173 720 1185 C 720 1196 714 1217 706 1232 C 698 1247 689 1272 685 1289 C 681 1306 674 1322 669 1325 C 664 1329 660 1341 660 1353 C 660 1365 651 1392 640 1413 C 629 1433 620 1456 620 1462 C 620 1469 606 1508 590 1549 C 556 1633 552 1665 578 1673 C 587 1676 620 1688 650 1700 C 680 1712 719 1726 737 1731 C 755 1736 782 1747 797 1755 C 812 1763 835 1770 847 1770 C 859 1770 871 1774 874 1779 C 877 1784 912 1798 952 1811 C 992 1824 1034 1840 1045 1847 C 1056 1854 1072 1860 1081 1860 C 1090 1860 1117 1869 1141 1880 C 1165 1891 1200 1899 1219 1898 C 1250 1895 1255 1891 1262 1860 z M 532 1420 C 561 1334 567 1319 590 1260 C 602 1230 615 1192 620 1175 C 624 1159 635 1132 644 1115 C 653 1099 660 1078 660 1069 C 660 1060 667 1039 675 1024 C 696 983 694 953 668 939 C 655 932 605 927 550 927 C 463 927 450 929 412 954 C 304 1022 266 1088 267 1205 C 267 1264 273 1297 288 1330 C 324 1409 419 1482 479 1477 C 511 1475 514 1471 532 1420 z M 1462 918 C 1480 894 1503 866 1513 855 C 1523 844 1550 810 1573 780 C 1595 750 1619 721 1625 715 C 1631 710 1683 644 1740 570 C 1797 496 1848 431 1854 425 C 1860 420 1897 375 1935 325 C 1973 276 2007 233 2011 230 C 2014 227 2020 215 2024 202 C 2030 186 2027 178 2013 174 C 2003 171 1977 160 1954 149 C 1931 139 1903 130 1892 130 C 1881 130 1869 126 1866 121 C 1863 116 1828 102 1788 89 C 1748 77 1710 62 1703 57 C 1680 41 1655 60 1593 143 C 1559 188 1519 239 1504 255 C 1490 272 1451 321 1417 365 C 1384 409 1352 450 1346 455 C 1339 461 1306 502 1271 548 C 1209 628 1208 631 1225 650 C 1235 661 1260 675 1282 680 C 1315 689 1320 695 1320 720 C 1320 752 1297 780 1272 780 C 1263 779 1237 771 1215 760 C 1149 728 1117 733 1085 780 C 1070 802 1059 822 1061 824 C 1070 831 1156 868 1175 873 C 1186 876 1220 888 1250 900 C 1280 912 1321 926 1340 932 C 1359 937 1379 946 1385 951 C 1404 970 1429 959 1462 918 z" stroke-linecap="round"/>
</g>
<g transform="matrix(0.01 0 0 -0.01 65.36 183.12)" id="ZpxjVMOFOsKEJnU7Xr76l">
<path style="stroke: none; stroke-width: 1; stroke-dasharray: none; stroke-linecap: butt; stroke-dashoffset: 0; stroke-linejoin: miter; stroke-miterlimit: 4; fill: rgb(34,146,220); fill-rule: nonzero; opacity: 1;" vector-effect="non-scaling-stroke" transform=" translate(-2394.63, -3955)" d="M 1112 4288 C 1095 4271 1095 3639 1112 3622 C 1121 3613 1421 3610 2401 3610 C 3556 3610 3678 3612 3684 3626 C 3692 3646 3692 4264 3684 4284 C 3678 4298 3556 4300 2401 4300 C 1421 4300 1121 4297 1112 4288 z M 3578 4188 C 3595 4171 3595 3739 3578 3722 C 3562 3706 1249 3704 1219 3720 C 1201 3730 1200 3743 1200 3955 C 1200 4158 1202 4180 1218 4189 C 1245 4205 3562 4204 3578 4188 z" stroke-linecap="round"/>
</g>
<g transform="matrix(0.01 0 0 -0.01 60.63 183.04)" id="ZhNvACdjUQG7p3iF_YSKG">
<path style="stroke: none; stroke-width: 1; stroke-dasharray: none; stroke-linecap: butt; stroke-dashoffset: 0; stroke-linejoin: miter; stroke-miterlimit: 4; fill: rgb(34,146,220); fill-rule: nonzero; opacity: 1;" vector-effect="non-scaling-stroke" transform=" translate(-2005.57, -3962.17)" d="M 1452 3999 C 1433 3992 1429 3984 1432 3953 L 1435 3915 L 2005 3915 L 2575 3915 L 2578 3948 C 2584 4013 2612 4010 2016 4009 C 1709 4009 1465 4005 1452 3999 z" stroke-linecap="round"/>
</g>
<g transform="matrix(0.01 0 0 -0.01 72.73 183.07)" id="lW0VlF1zgv0GtciTc7qe5">
<path style="stroke: none; stroke-width: 1; stroke-dasharray: none; stroke-linecap: butt; stroke-dashoffset: 0; stroke-linejoin: miter; stroke-miterlimit: 4; fill: rgb(34,146,220); fill-rule: nonzero; opacity: 1;" vector-effect="non-scaling-stroke" transform=" translate(-3000.51, -3959.59)" d="M 2831 3996 C 2824 3988 2820 3966 2822 3948 L 2825 3915 L 2997 3912 L 3170 3910 L 3176 3934 C 3185 3972 3177 3994 3150 4001 C 3136 4005 3061 4008 2984 4009 C 2872 4010 2840 4007 2831 3996 z" stroke-linecap="round"/>
</g>
<g transform="matrix(0.01 0 0 -0.01 53.31 190.85)" id="BKgfHhjSUy-cfwxDrG050">
<path style="stroke: none; stroke-width: 1; stroke-dasharray: none; stroke-linecap: butt; stroke-dashoffset: 0; stroke-linejoin: miter; stroke-miterlimit: 4; fill: rgb(34,146,220); fill-rule: nonzero; opacity: 1;" vector-effect="non-scaling-stroke" transform=" translate(-1404.67, -3320)" d="M 1171 3356 C 1164 3348 1160 3326 1162 3308 L 1165 3275 L 1401 3272 L 1638 3270 L 1645 3307 C 1656 3368 1647 3370 1399 3370 C 1223 3370 1180 3367 1171 3356 z" stroke-linecap="round"/>
</g>
<g transform="matrix(0.01 0 0 -0.01 69.63 190.85)" id="kJWTklfa0QzDS1GKtxemQ">
<path style="stroke: none; stroke-width: 1; stroke-dasharray: none; stroke-linecap: butt; stroke-dashoffset: 0; stroke-linejoin: miter; stroke-miterlimit: 4; fill: rgb(34,146,220); fill-rule: nonzero; opacity: 1;" vector-effect="non-scaling-stroke" transform=" translate(-2745.57, -3320.02)" d="M 1871 3356 C 1864 3348 1860 3326 1862 3308 L 1865 3275 L 2741 3272 L 3618 3270 L 3624 3306 C 3637 3374 3699 3370 2745 3370 C 2008 3370 1881 3368 1871 3356 z" stroke-linecap="round"/>
</g>
<g transform="matrix(0.01 0 0 -0.01 52.86 195.6)" id="jwdL3_1bPcJsknWttRmur">
<path style="stroke: none; stroke-width: 1; stroke-dasharray: none; stroke-linecap: butt; stroke-dashoffset: 0; stroke-linejoin: miter; stroke-miterlimit: 4; fill: rgb(34,146,220); fill-rule: nonzero; opacity: 1;" vector-effect="non-scaling-stroke" transform=" translate(-1367.5, -2929.94)" d="M 1167 2974 C 1163 2970 1160 2950 1160 2929 C 1160 2897 1164 2889 1183 2885 C 1195 2882 1288 2881 1390 2882 L 1575 2885 L 1575 2930 L 1575 2975 L 1374 2978 C 1264 2979 1171 2977 1167 2974 z" stroke-linecap="round"/>
</g>
<g transform="matrix(0.01 0 0 -0.01 61.03 195.6)" id="HBNbNdNA4otH29r0TxaIF">
<path style="stroke: none; stroke-width: 1; stroke-dasharray: none; stroke-linecap: butt; stroke-dashoffset: 0; stroke-linejoin: miter; stroke-miterlimit: 4; fill: rgb(34,146,220); fill-rule: nonzero; opacity: 1;" vector-effect="non-scaling-stroke" transform=" translate(-2038.99, -2929.25)" d="M 1777 2973 C 1763 2959 1770 2892 1786 2886 C 1810 2877 2283 2879 2298 2889 C 2306 2894 2310 2912 2308 2936 L 2305 2975 L 2044 2978 C 1901 2979 1781 2977 1777 2973 z" stroke-linecap="round"/>
</g>
<g transform="matrix(0.01 0 0 -0.01 68.22 195.59)" id="YwLx3HwYyLWaB2jhVKOY0">
<path style="stroke: none; stroke-width: 1; stroke-dasharray: none; stroke-linecap: butt; stroke-dashoffset: 0; stroke-linejoin: miter; stroke-miterlimit: 4; fill: rgb(34,146,220); fill-rule: nonzero; opacity: 1;" vector-effect="non-scaling-stroke" transform=" translate(-2629.55, -2930.27)" d="M 2577 2974 C 2573 2970 2570 2950 2570 2929 C 2570 2896 2574 2889 2595 2884 C 2609 2881 2636 2881 2656 2884 C 2690 2891 2691 2892 2688 2933 L 2685 2975 L 2635 2978 C 2607 2980 2581 2978 2577 2974 z" stroke-linecap="round"/>
</g>
<g transform="matrix(0.01 0 0 -0.01 76.04 195.6)" id="nxLcqgr9vkCnq8VUS5mAD">
<path style="stroke: none; stroke-width: 1; stroke-dasharray: none; stroke-linecap: butt; stroke-dashoffset: 0; stroke-linejoin: miter; stroke-miterlimit: 4; fill: rgb(34,146,220); fill-rule: nonzero; opacity: 1;" vector-effect="non-scaling-stroke" transform=" translate(-3272.73, -2930)" d="M 2927 2973 C 2915 2962 2919 2905 2932 2892 C 2941 2883 3031 2880 3277 2880 L 3610 2880 L 3620 2906 C 3626 2920 3627 2942 3624 2956 L 3618 2980 L 3276 2980 C 3087 2980 2930 2977 2927 2973 z" stroke-linecap="round"/>
</g>
<g transform="matrix(0.01 0 0 -0.01 54.82 200.31)" id="ZD8-p1eMFucFOSrapvK8-">
<path style="stroke: none; stroke-width: 1; stroke-dasharray: none; stroke-linecap: butt; stroke-dashoffset: 0; stroke-linejoin: miter; stroke-miterlimit: 4; fill: rgb(34,146,220); fill-rule: nonzero; opacity: 1;" vector-effect="non-scaling-stroke" transform=" translate(-1527.98, -2542.5)" d="M 1164 2566 C 1161 2553 1160 2531 1162 2519 L 1165 2495 L 1530 2495 L 1895 2495 L 1895 2540 L 1895 2585 L 1533 2588 L 1170 2590 L 1164 2566 z" stroke-linecap="round"/>
</g>
<g transform="matrix(0.01 0 0 -0.01 72.24 200.34)" id="AB30OGfWECGuLNmbWRMYc">
<path style="stroke: none; stroke-width: 1; stroke-dasharray: none; stroke-linecap: butt; stroke-dashoffset: 0; stroke-linejoin: miter; stroke-miterlimit: 4; fill: rgb(34,146,220); fill-rule: nonzero; opacity: 1;" vector-effect="non-scaling-stroke" transform=" translate(-2960.03, -2540.03)" d="M 2824 2576 C 2821 2568 2820 2547 2822 2528 L 2825 2495 L 2951 2492 C 3095 2489 3110 2495 3094 2553 L 3084 2585 L 2957 2588 C 2854 2590 2829 2588 2824 2576 z" stroke-linecap="round"/>
</g>
<g transform="matrix(0.01 0 0 -0.01 78.24 200.34)" id="CZ4Hxpa8496m0CVjHX_-V">
<path style="stroke: none; stroke-width: 1; stroke-dasharray: none; stroke-linecap: butt; stroke-dashoffset: 0; stroke-linejoin: miter; stroke-miterlimit: 4; fill: rgb(34,146,220); fill-rule: nonzero; opacity: 1;" vector-effect="non-scaling-stroke" transform=" translate(-3453.68, -2540)" d="M 3284 2576 C 3281 2568 3280 2547 3282 2528 L 3285 2495 L 3452 2492 L 3619 2490 L 3625 2513 C 3628 2525 3626 2548 3621 2563 L 3610 2590 L 3450 2590 C 3321 2590 3288 2587 3284 2576 z" stroke-linecap="round"/>
</g>
<g transform="matrix(0.01 0 0 -0.01 78.12 205.21)" id="owTtOjDooPMgLyHHt1xRB">
<path style="stroke: none; stroke-width: 1; stroke-dasharray: none; stroke-linecap: butt; stroke-dashoffset: 0; stroke-linejoin: miter; stroke-miterlimit: 4; fill: rgb(34,146,220); fill-rule: nonzero; opacity: 1;" vector-effect="non-scaling-stroke" transform=" translate(-3443.4, -2140)" d="M 3278 2179 C 3258 2168 3255 2138 3270 2109 C 3280 2091 3293 2090 3446 2090 L 3610 2090 L 3621 2117 C 3628 2136 3628 2152 3621 2167 C 3611 2190 3607 2190 3453 2190 C 3364 2190 3287 2185 3278 2179 z" stroke-linecap="round"/>
</g>
<g transform="matrix(0.01 0 0 -0.01 78.14 209.95)" id="6ZcGOrmDmnOs0AhcmL_mH">
<path style="stroke: none; stroke-width: 1; stroke-dasharray: none; stroke-linecap: butt; stroke-dashoffset: 0; stroke-linejoin: miter; stroke-miterlimit: 4; fill: rgb(34,146,220); fill-rule: nonzero; opacity: 1;" vector-effect="non-scaling-stroke" transform=" translate(-3445, -1750)" d="M 3272 1788 C 3254 1770 3257 1713 3276 1706 C 3285 1703 3365 1700 3455 1700 C 3630 1700 3630 1700 3630 1754 C 3630 1796 3615 1800 3445 1800 C 3333 1800 3280 1796 3272 1788 z" stroke-linecap="round"/>
</g>
<g transform="matrix(0.01 0 0 -0.01 77.4 214.7)" id="VR9s-ieVCrmIyUx7hhvsV">
<path style="stroke: none; stroke-width: 1; stroke-dasharray: none; stroke-linecap: butt; stroke-dashoffset: 0; stroke-linejoin: miter; stroke-miterlimit: 4; fill: rgb(34,146,220); fill-rule: nonzero; opacity: 1;" vector-effect="non-scaling-stroke" transform=" translate(-3384.17, -1360)" d="M 3151 1396 C 3144 1388 3140 1366 3142 1348 L 3145 1315 L 3382 1312 L 3620 1310 L 3625 1333 C 3629 1345 3626 1368 3621 1383 L 3610 1410 L 3386 1410 C 3204 1410 3160 1407 3151 1396 z" stroke-linecap="round"/>
</g>
<g transform="matrix(0.01 0 0 -0.01 88.84 190.83)" id="OnECi850hHb0AdyEcgCzS">
<path style="stroke: none; stroke-width: 1; stroke-dasharray: none; stroke-linecap: butt; stroke-dashoffset: 0; stroke-linejoin: miter; stroke-miterlimit: 4; fill: rgb(34,146,220); fill-rule: nonzero; opacity: 1;" vector-effect="non-scaling-stroke" transform=" translate(-4380.15, -3314.87)" d="M 4335 3448 C 4332 3440 4331 3376 4332 3304 L 4335 3175 L 4371 3172 C 4426 3167 4431 3180 4428 3326 L 4425 3455 L 4382 3458 C 4353 3460 4338 3457 4335 3448 z" stroke-linecap="round"/>
</g>
<g transform="matrix(0.01 0 0 -0.01 64.58 201.84)" id="H1EjzNN2x-EO-P7DGgwxx">
<path style="stroke: none; stroke-width: 1; stroke-dasharray: none; stroke-linecap: butt; stroke-dashoffset: 0; stroke-linejoin: miter; stroke-miterlimit: 4; fill: rgb(34,146,220); fill-rule: nonzero; opacity: 1;" vector-effect="non-scaling-stroke" transform=" translate(-2330.9, -2417.01)" d="M 2313 2459 C 2266 2442 2277 2370 2328 2370 C 2369 2370 2382 2383 2378 2420 C 2375 2457 2349 2473 2313 2459 z" stroke-linecap="round"/>
</g>
<g transform="matrix(0.01 0 0 -0.01 67.14 208.92)" id="D5G2Dh8l4JdRREsp76iZu">
<path style="stroke: none; stroke-width: 1; stroke-dasharray: none; stroke-linecap: butt; stroke-dashoffset: 0; stroke-linejoin: miter; stroke-miterlimit: 4; fill: rgb(34,146,220); fill-rule: nonzero; opacity: 1;" vector-effect="non-scaling-stroke" transform=" translate(-2540.65, -1834.53)" d="M 2385 2241 C 2351 2234 2341 2207 2363 2182 C 2371 2173 2380 2154 2383 2140 C 2386 2126 2398 2090 2410 2060 C 2422 2030 2435 1992 2440 1975 C 2444 1959 2455 1932 2464 1915 C 2473 1899 2480 1876 2480 1864 C 2480 1853 2484 1840 2489 1834 C 2494 1829 2510 1789 2525 1745 C 2540 1701 2555 1661 2558 1655 C 2565 1644 2614 1506 2631 1453 C 2636 1435 2648 1420 2656 1420 C 2681 1420 2730 1449 2730 1464 C 2730 1472 2717 1511 2700 1551 C 2684 1592 2670 1632 2670 1640 C 2670 1648 2661 1672 2650 1693 C 2639 1713 2630 1737 2630 1745 C 2630 1753 2624 1774 2616 1792 C 2608 1810 2595 1841 2586 1862 C 2577 1882 2570 1907 2570 1918 C 2570 1929 2563 1943 2555 1950 C 2547 1957 2540 1972 2540 1984 C 2540 1995 2533 2018 2525 2034 C 2517 2049 2510 2067 2510 2072 C 2510 2078 2504 2096 2496 2113 C 2488 2131 2479 2157 2476 2171 C 2470 2198 2433 2251 2422 2249 C 2418 2248 2402 2245 2385 2241 z" stroke-linecap="round"/>
</g>
<g transform="matrix(0.01 0 0 -0.01 47.91 211.8)" id="tKus5ipOr9lL47bj1emn9">
<path style="stroke: none; stroke-width: 1; stroke-dasharray: none; stroke-linecap: butt; stroke-dashoffset: 0; stroke-linejoin: miter; stroke-miterlimit: 4; fill: rgb(34,146,220); fill-rule: nonzero; opacity: 1;" vector-effect="non-scaling-stroke" transform=" translate(-960.96, -1598.29)" d="M 1065 1694 C 1043 1685 1010 1675 992 1670 C 974 1666 954 1658 947 1653 C 940 1647 902 1633 862 1620 C 756 1585 731 1556 768 1510 L 786 1487 L 846 1509 C 878 1522 920 1535 938 1540 C 956 1544 976 1552 983 1557 C 990 1562 1027 1577 1065 1590 C 1142 1615 1170 1634 1170 1661 C 1170 1713 1139 1722 1065 1694 z" stroke-linecap="round"/>
</g>
<g transform="matrix(0.01 0 0 -0.01 48.84 214.5)" id="Z6bn58ijmMFOS6hIggBAw">
<path style="stroke: none; stroke-width: 1; stroke-dasharray: none; stroke-linecap: butt; stroke-dashoffset: 0; stroke-linejoin: miter; stroke-miterlimit: 4; fill: rgb(34,146,220); fill-rule: nonzero; opacity: 1;" vector-effect="non-scaling-stroke" transform=" translate(-1037.15, -1376.6)" d="M 1173 1480 C 1155 1476 1134 1468 1128 1462 C 1121 1457 1099 1449 1080 1445 C 1061 1441 1041 1434 1035 1431 C 1030 1427 994 1413 956 1401 C 919 1388 873 1369 854 1358 L 820 1338 L 841 1298 C 856 1268 865 1260 878 1266 C 887 1270 927 1284 965 1297 C 1004 1310 1047 1327 1062 1335 C 1076 1343 1094 1350 1100 1350 C 1123 1350 1249 1403 1254 1415 C 1258 1428 1222 1491 1212 1489 C 1208 1488 1190 1484 1173 1480 z" stroke-linecap="round"/>
</g>
<g transform="matrix(0.01 0 0 -0.01 49.84 216.99)" id="GeMIzOt8wHvRjYkOjX7xv">
<path style="stroke: none; stroke-width: 1; stroke-dasharray: none; stroke-linecap: butt; stroke-dashoffset: 0; stroke-linejoin: miter; stroke-miterlimit: 4; fill: rgb(34,146,220); fill-rule: nonzero; opacity: 1;" vector-effect="non-scaling-stroke" transform=" translate(-1119.14, -1171.45)" d="M 1240 1264 C 1226 1257 1206 1250 1195 1250 C 1183 1250 1170 1246 1165 1241 C 1159 1235 1119 1220 1076 1206 C 1032 1191 992 1176 986 1171 C 980 1166 962 1160 945 1158 C 918 1155 915 1151 912 1118 C 909 1086 913 1078 934 1069 C 955 1059 972 1062 1042 1088 C 1088 1105 1136 1122 1150 1126 C 1164 1129 1184 1139 1195 1146 C 1206 1154 1223 1160 1233 1160 C 1243 1160 1269 1169 1291 1181 C 1329 1200 1331 1203 1324 1233 C 1321 1251 1316 1268 1313 1273 C 1306 1284 1268 1280 1240 1264 z" stroke-linecap="round"/>
</g>
<g transform="matrix(0.01 0 0 -0.01 142.66 185.62)" id="bUH_mgIkIHvxkrksBfQTs">
<path style="stroke: none; stroke-width: 1; stroke-dasharray: none; stroke-linecap: butt; stroke-dashoffset: 0; stroke-linejoin: miter; stroke-miterlimit: 4; fill: rgb(185,24,117); fill-rule: nonzero; opacity: 1;" vector-effect="non-scaling-stroke" transform=" translate(-9270.5, -3658.43)" d="M 8025 4596 C 8014 4587 7995 4580 7984 4580 C 7972 4580 7957 4573 7950 4565 C 7943 4557 7932 4550 7926 4550 C 7913 4550 7889 4525 7850 4470 C 7827 4438 7825 4427 7826 4324 C 7826 4235 7830 4207 7844 4185 C 7879 4132 7869 4130 7536 4130 C 7371 4130 7225 4133 7213 4136 C 7192 4142 7190 4148 7190 4210 C 7190 4313 7193 4310 7080 4310 C 7019 4310 6979 4306 6974 4299 C 6971 4293 6968 4244 6969 4190 C 6970 4131 6967 4089 6961 4085 C 6955 4082 6935 4090 6917 4104 C 6885 4129 6877 4130 6759 4130 C 6691 4130 6630 4134 6623 4138 C 6616 4143 6610 4177 6608 4225 L 6605 4305 L 6490 4305 L 6375 4305 L 6372 4162 C 6369 3996 6363 3985 6304 4050 C 6256 4103 6215 4123 6110 4144 C 6028 4160 6022 4160 5932 4141 C 5841 4122 5772 4090 5727 4047 C 5694 4015 5640 3944 5640 3932 C 5640 3927 5634 3917 5626 3911 C 5618 3904 5608 3885 5605 3869 C 5601 3852 5592 3827 5584 3812 C 5575 3794 5570 3751 5570 3684 L 5570 3584 L 5618 3561 C 5666 3537 5790 3419 5790 3396 C 5790 3373 5757 3349 5662 3300 C 5608 3272 5600 3251 5600 3142 C 5600 3032 5608 3017 5649 3048 C 5666 3060 5682 3070 5686 3070 C 5689 3070 5712 3084 5737 3100 C 5761 3117 5788 3130 5796 3130 C 5804 3130 5813 3136 5816 3144 C 5819 3152 5834 3163 5848 3169 C 5863 3175 5882 3184 5890 3190 C 5898 3195 5991 3250 6095 3311 C 6200 3372 6293 3429 6302 3437 C 6311 3445 6329 3450 6342 3448 L 6365 3445 L 6368 3083 L 6370 2720 L 6393 2715 C 6405 2712 6458 2710 6510 2712 L 6605 2715 L 6608 3319 C 6609 3745 6613 3927 6621 3937 C 6629 3946 6662 3950 6740 3950 C 6853 3950 6889 3940 6926 3899 C 6944 3879 6945 3853 6948 3306 C 6950 2785 6952 2734 6967 2723 C 6978 2715 7019 2710 7081 2710 C 7160 2710 7179 2713 7184 2726 C 7187 2735 7190 3009 7190 3335 C 7190 3912 7191 3930 7209 3940 C 7238 3955 7892 3954 7908 3938 C 7916 3930 7920 3883 7920 3793 C 7920 3670 7918 3657 7896 3622 C 7862 3568 7812 3530 7775 3530 C 7758 3530 7739 3525 7732 3518 C 7725 3511 7675 3504 7607 3500 L 7495 3495 L 7492 3380 C 7488 3261 7501 3154 7527 3085 C 7545 3036 7581 2960 7595 2942 C 7626 2901 7709 2826 7733 2818 C 7748 2812 7760 2804 7760 2800 C 7760 2795 7774 2789 7791 2785 C 7808 2781 7833 2772 7848 2764 C 7885 2745 8144 2744 8181 2764 C 8195 2771 8219 2780 8234 2784 C 8273 2794 8332 2832 8374 2876 C 8415 2918 8474 3004 8483 3035 C 8486 3046 8496 3075 8505 3100 C 8528 3163 8522 3449 8497 3495 C 8488 3512 8480 3531 8480 3538 C 8480 3545 8476 3558 8470 3568 C 8465 3577 8449 3610 8435 3640 C 8421 3670 8401 3707 8392 3722 C 8383 3736 8362 3770 8346 3797 C 8330 3823 8306 3856 8293 3870 C 8278 3885 8270 3905 8272 3920 L 8275 3945 L 8555 3948 C 8794 3950 8843 3948 8890 3934 C 9007 3898 9040 3852 9040 3727 C 9040 3680 9036 3630 9030 3615 C 9017 3581 8964 3530 8941 3530 C 8931 3530 8917 3523 8910 3515 C 8902 3505 8874 3500 8822 3498 L 8745 3495 L 8742 3414 C 8739 3336 8740 3331 8766 3311 C 8799 3285 8902 3282 8947 3305 C 8962 3313 8991 3322 9010 3325 C 9032 3328 9063 3346 9095 3375 C 9123 3399 9151 3420 9158 3420 C 9166 3420 9195 3400 9223 3375 C 9256 3346 9287 3328 9310 3325 C 9329 3322 9358 3313 9373 3305 C 9389 3296 9429 3290 9465 3290 C 9553 3290 9560 3299 9560 3411 L 9560 3500 L 9496 3500 C 9454 3500 9429 3505 9421 3514 C 9414 3522 9398 3531 9384 3534 C 9354 3542 9332 3563 9302 3613 C 9272 3665 9271 3781 9300 3838 C 9340 3915 9402 3950 9497 3950 C 9599 3950 9692 3889 9706 3813 C 9709 3795 9716 3777 9721 3774 C 9726 3771 9730 3541 9730 3251 C 9730 2862 9733 2731 9742 2722 C 9750 2714 9790 2710 9855 2710 C 9920 2710 9960 2714 9968 2722 C 9977 2731 9980 2880 9980 3330 C 9980 3780 9983 3929 9992 3938 C 10010 3956 10189 3954 10235 3934 C 10310 3903 10304 3951 10310 3301 L 10315 2715 L 10430 2715 L 10545 2715 L 10550 3320 C 10553 3653 10559 3931 10563 3938 C 10569 3947 10716 3950 11240 3950 L 11909 3950 L 11924 3928 C 11940 3905 11947 3761 11934 3713 C 11927 3686 11895 3683 11869 3706 C 11846 3726 11778 3735 11706 3726 C 11658 3720 11644 3712 11601 3671 C 11573 3644 11550 3616 11550 3608 C 11550 3600 11544 3585 11536 3575 C 11521 3554 11527 3550 11440 3649 C 11421 3671 11398 3689 11390 3689 C 11381 3690 11363 3698 11350 3708 C 11329 3722 11303 3725 11205 3725 C 11107 3725 11081 3722 11060 3708 C 11047 3698 11029 3690 11021 3690 C 10995 3690 10920 3619 10887 3562 C 10819 3445 10813 3260 10873 3130 C 10898 3076 10990 2983 11028 2973 C 11043 2970 11060 2961 11067 2955 C 11081 2940 11247 2929 11315 2938 L 11365 2945 L 11368 3033 L 11371 3120 L 11287 3120 C 11224 3120 11199 3124 11190 3135 C 11183 3143 11172 3150 11166 3150 C 11147 3150 11090 3205 11090 3222 C 11090 3231 11083 3243 11075 3250 C 11064 3259 11060 3283 11060 3335 C 11060 3387 11064 3411 11075 3420 C 11083 3427 11090 3440 11090 3449 C 11091 3490 11218 3553 11257 3531 C 11267 3526 11287 3519 11303 3515 C 11319 3512 11342 3494 11360 3468 C 11387 3431 11390 3420 11390 3348 L 11390 3270 L 11510 3270 L 11630 3270 L 11630 3323 C 11630 3351 11637 3388 11645 3404 C 11653 3419 11660 3438 11660 3445 C 11660 3492 11802 3567 11824 3531 C 11827 3527 11843 3520 11859 3517 C 11878 3513 11896 3498 11911 3473 C 11935 3435 11935 3433 11939 3077 C 11943 2663 11926 2707 12075 2712 L 12165 2715 L 12170 3320 C 12173 3653 12179 3931 12183 3938 C 12189 3946 12223 3950 12298 3950 C 12428 3950 12480 3934 12510 3883 C 12529 3850 12530 3833 12530 3295 C 12530 2991 12533 2735 12536 2726 C 12541 2713 12560 2710 12639 2710 C 12701 2710 12740 2714 12748 2722 C 12757 2731 12760 2878 12760 3321 C 12760 3865 12761 3909 12778 3929 C 12792 3946 12808 3950 12880 3952 L 12965 3955 L 12968 4043 L 12971 4130 L 12885 4130 C 12766 4130 12760 4135 12760 4218 C 12760 4258 12755 4291 12748 4298 C 12740 4306 12701 4310 12638 4310 C 12541 4310 12540 4310 12534 4284 C 12530 4270 12530 4224 12533 4183 C 12539 4098 12529 4085 12480 4114 C 12454 4129 12367 4130 11512 4130 C 10755 4130 10570 4133 10562 4143 C 10556 4150 10550 4189 10548 4230 L 10545 4305 L 10444 4308 C 10371 4310 10340 4307 10333 4298 C 10325 4289 10325 4257 10333 4192 C 10345 4090 10337 4063 10303 4091 C 10260 4125 10238 4130 10126 4130 C 10063 4130 10005 4133 9996 4136 C 9984 4141 9980 4157 9980 4210 C 9980 4314 9985 4310 9855 4310 C 9761 4310 9741 4307 9736 4294 C 9733 4285 9730 4232 9730 4175 C 9730 4118 9726 4069 9722 4066 C 9718 4064 9692 4076 9665 4094 C 9631 4116 9588 4132 9535 4143 C 9462 4158 9449 4159 9390 4145 C 9299 4123 9261 4104 9213 4054 C 9190 4030 9164 4010 9155 4010 C 9146 4010 9127 4022 9112 4038 C 9079 4070 9033 4095 8965 4115 C 8924 4127 8841 4130 8520 4130 C 8226 4130 8119 4133 8101 4143 C 8071 4158 8041 4231 8041 4289 C 8040 4326 8045 4337 8076 4366 C 8107 4396 8118 4400 8163 4400 C 8240 4400 8241 4403 8238 4511 L 8235 4605 L 8140 4608 C 8067 4610 8040 4607 8025 4596 z M 6165 3941 C 6168 3936 6184 3929 6201 3925 C 6235 3917 6330 3826 6330 3801 C 6330 3792 6337 3772 6345 3756 C 6365 3717 6364 3705 6338 3691 C 6325 3685 6302 3671 6285 3660 C 6269 3649 6246 3636 6235 3630 C 6224 3624 6202 3611 6185 3600 C 6169 3589 6143 3575 6128 3569 C 6112 3563 6100 3554 6100 3549 C 6100 3544 6094 3540 6086 3540 C 6079 3540 6061 3531 6047 3520 C 6008 3489 5985 3495 5943 3547 C 5889 3614 5849 3650 5817 3662 C 5786 3674 5785 3674 5811 3773 C 5826 3832 5901 3914 5949 3925 C 5966 3928 5982 3936 5985 3941 C 5989 3946 6029 3950 6075 3950 C 6121 3950 6161 3946 6165 3941 z M 8158 3740 C 8164 3740 8172 3730 8176 3718 C 8179 3705 8188 3688 8195 3680 C 8201 3672 8218 3638 8231 3605 C 8243 3572 8258 3541 8262 3535 C 8266 3530 8270 3516 8270 3503 C 8270 3491 8277 3460 8286 3434 C 8305 3378 8309 3185 8291 3167 C 8285 3161 8280 3150 8280 3142 C 8280 3108 8232 3034 8187 2998 C 8149 2969 8129 2960 8100 2960 C 8079 2960 8058 2955 8054 2949 C 8051 2943 8034 2940 8016 2944 C 7999 2947 7962 2953 7933 2958 C 7905 2962 7873 2972 7863 2980 C 7821 3012 7780 3055 7780 3067 C 7780 3074 7776 3080 7771 3080 C 7757 3080 7720 3209 7720 3260 C 7720 3316 7732 3330 7781 3330 C 7801 3330 7831 3337 7846 3345 C 7862 3353 7887 3360 7901 3360 C 7916 3360 7933 3367 7940 3375 C 7947 3383 7957 3390 7962 3390 C 7981 3390 8059 3480 8079 3525 C 8090 3551 8102 3605 8105 3648 C 8109 3690 8114 3736 8116 3750 C 8121 3773 8123 3774 8134 3757 C 8141 3748 8152 3740 8158 3740 z" stroke-linecap="round"/>
</g>
<g transform="matrix(0.01 0 0 -0.01 224.4 176.76)" id="Sa_gfbubTdAqI7vvhde93">
<path style="stroke: none; stroke-width: 1; stroke-dasharray: none; stroke-linecap: butt; stroke-dashoffset: 0; stroke-linejoin: miter; stroke-miterlimit: 4; fill: rgb(185,24,117); fill-rule: nonzero; opacity: 1;" vector-effect="non-scaling-stroke" transform=" translate(-16257.98, -4410)" d="M 16153 4418 C 16064 4329 15994 4252 15996 4248 C 15999 4244 16047 4240 16103 4240 L 16205 4240 L 16363 4401 C 16449 4490 16520 4566 16520 4571 C 16520 4576 16474 4580 16417 4580 L 16314 4580 L 16153 4418 z" stroke-linecap="round"/>
</g>
<g transform="matrix(0.01 0 0 -0.01 213.35 187.72)" id="JlbUqqDPEkFg8Q7U6RRn8">
<path style="stroke: none; stroke-width: 1; stroke-dasharray: none; stroke-linecap: butt; stroke-dashoffset: 0; stroke-linejoin: miter; stroke-miterlimit: 4; fill: rgb(185,24,117); fill-rule: nonzero; opacity: 1;" vector-effect="non-scaling-stroke" transform=" translate(-15349.5, -3508.91)" d="M 14820 4295 C 14811 4284 14809 4256 14815 4186 C 14823 4078 14816 4067 14767 4104 L 14733 4130 L 14076 4130 L 13419 4130 L 13422 4043 L 13425 3955 L 13812 3952 C 14256 3949 14223 3957 14218 3852 L 14215 3795 L 14140 3770 C 14099 3756 14055 3739 14043 3732 C 14031 3725 14014 3720 14006 3720 C 13997 3720 13990 3716 13990 3711 C 13990 3706 13980 3698 13968 3695 C 13917 3680 13850 3644 13757 3581 C 13703 3545 13651 3511 13642 3505 C 13632 3500 13608 3480 13587 3461 L 13550 3427 L 13550 3311 C 13550 3247 13554 3190 13558 3184 C 13562 3178 13575 3170 13588 3166 C 13600 3162 13610 3155 13610 3151 C 13610 3146 13641 3121 13679 3096 C 13717 3070 13756 3040 13765 3030 C 13775 3019 13788 3010 13793 3010 C 13798 3010 13822 2994 13846 2975 C 13869 2956 13891 2940 13895 2940 C 13898 2940 13938 2912 13984 2878 C 14030 2843 14078 2808 14090 2800 C 14102 2792 14133 2769 14159 2750 C 14204 2716 14208 2715 14307 2712 C 14468 2706 14450 2631 14450 3325 C 14450 3851 14452 3920 14466 3934 C 14478 3947 14504 3950 14584 3950 C 14696 3950 14757 3931 14782 3887 C 14792 3870 14796 3735 14798 3293 L 14801 2721 L 14833 2715 C 14851 2712 14901 2710 14945 2712 L 15025 2715 L 15030 3320 C 15033 3653 15039 3931 15043 3938 C 15049 3947 15230 3950 15893 3949 L 16735 3948 L 16775 3927 C 16837 3893 16838 3883 16839 3264 C 16840 2780 16842 2721 16856 2716 C 16865 2713 16914 2710 16966 2710 L 17060 2710 L 17060 3308 C 17060 3833 17062 3908 17076 3928 C 17090 3948 17099 3950 17186 3950 L 17280 3950 L 17280 4040 L 17280 4130 L 17180 4130 C 17062 4130 17060 4132 17060 4240 L 17060 4311 L 16958 4308 L 16855 4305 L 16852 4205 C 16849 4083 16846 4072 16822 4091 C 16773 4131 16789 4130 15906 4130 C 15220 4130 15050 4133 15042 4143 C 15036 4150 15030 4189 15028 4230 L 15025 4305 L 14929 4308 C 14853 4310 14830 4308 14820 4295 z M 14220 3271 C 14220 2979 14218 2970 14169 2996 C 14153 3004 14140 3015 14140 3020 C 14140 3026 14135 3030 14130 3030 C 14124 3030 14114 3035 14107 3040 C 14062 3078 14046 3090 14040 3090 C 14037 3090 14021 3103 14004 3118 C 13988 3134 13950 3164 13920 3185 C 13815 3258 13770 3294 13770 3305 C 13770 3310 13776 3322 13783 3330 C 13801 3352 13948 3450 13964 3450 C 13971 3450 13983 3457 13990 3465 C 13997 3473 14011 3480 14022 3480 C 14032 3480 14043 3487 14046 3495 C 14050 3503 14060 3510 14069 3510 C 14078 3510 14096 3517 14109 3527 C 14140 3548 14192 3559 14208 3547 C 14217 3540 14220 3472 14220 3271 z" stroke-linecap="round"/>
</g>
<g transform="matrix(0.01 0 0 -0.01 53.97 224.08)" id="xuEDV4Cl1lhkhqOcVnBP_">
<path style="stroke: none; stroke-width: 1; stroke-dasharray: none; stroke-linecap: butt; stroke-dashoffset: 0; stroke-linejoin: miter; stroke-miterlimit: 4; fill: rgb(34,146,220); fill-rule: nonzero; opacity: 1;" vector-effect="non-scaling-stroke" transform=" translate(-1404.96, -777.25)" d="M 1377 812 C 1354 787 1356 765 1381 741 C 1401 723 1404 722 1426 736 L 1449 752 L 1428 791 C 1405 835 1400 837 1377 812 z" stroke-linecap="round"/>
</g>
<g transform="matrix(0.01 0 0 -0.01 220.41 190.25)" id="YIupzzHmVOfogm7hiRzDD">
<path style="stroke: none; stroke-width: 1; stroke-dasharray: none; stroke-linecap: butt; stroke-dashoffset: 0; stroke-linejoin: miter; stroke-miterlimit: 4; fill: rgb(185,24,117); fill-rule: nonzero; opacity: 1;" vector-effect="non-scaling-stroke" transform=" translate(-15929.82, -3300.81)" d="M 16064 3811 C 16006 3796 15935 3756 15888 3712 C 15861 3687 15840 3663 15840 3657 C 15840 3651 15832 3638 15823 3627 C 15808 3611 15805 3587 15805 3463 C 15805 3288 15803 3290 15926 3290 C 16030 3290 16042 3294 16029 3327 C 16016 3361 16017 3523 16031 3537 C 16037 3543 16048 3559 16054 3572 C 16060 3584 16086 3605 16111 3618 L 16157 3640 L 16202 3620 C 16252 3598 16268 3581 16293 3527 C 16315 3478 16317 3277 16296 3228 C 16288 3210 16279 3188 16275 3180 C 16254 3127 16169 3030 16144 3030 C 16137 3030 16124 3022 16114 3013 C 16099 2998 16077 2995 15961 2995 C 15830 2995 15823 2996 15767 3024 C 15719 3049 15676 3087 15622 3155 C 15605 3176 15577 3238 15557 3300 C 15540 3354 15536 3391 15536 3527 L 15535 3690 L 15424 3690 L 15313 3690 L 15306 3653 C 15289 3545 15307 3351 15346 3225 C 15372 3144 15403 3070 15412 3070 C 15416 3070 15420 3064 15420 3057 C 15420 3049 15429 3035 15440 3025 C 15451 3015 15460 3003 15460 2998 C 15460 2975 15608 2861 15658 2846 C 15670 2842 15680 2834 15680 2829 C 15680 2824 15692 2820 15708 2820 C 15723 2820 15749 2812 15765 2803 C 15789 2790 15824 2786 15946 2786 C 16047 2785 16102 2789 16111 2797 C 16119 2803 16142 2811 16163 2815 C 16218 2826 16332 2889 16375 2934 C 16444 3004 16514 3125 16525 3191 C 16529 3214 16539 3248 16546 3266 C 16567 3315 16564 3425 16540 3493 C 16529 3524 16520 3559 16520 3570 C 16520 3581 16517 3590 16512 3590 C 16508 3590 16496 3605 16486 3624 C 16451 3689 16357 3773 16304 3786 C 16288 3790 16270 3797 16264 3802 C 16248 3814 16102 3821 16064 3811 z" stroke-linecap="round"/>
</g>
<g transform="matrix(0.01 0 0 -0.01 43.1 188.85)" id="cBz4HiP8q6vkr-06oXBdz">
<path style="stroke: none; stroke-width: 1; stroke-dasharray: none; stroke-linecap: butt; stroke-dashoffset: 0; stroke-linejoin: miter; stroke-miterlimit: 4; fill: rgb(34,146,220); fill-rule: nonzero; opacity: 1;" vector-effect="non-scaling-stroke" transform=" translate(-565, -3484.45)" d="M 526 4008 C 512 3988 510 3921 510 3475 C 510 3091 513 2961 522 2952 C 538 2936 592 2936 608 2952 C 617 2961 620 3091 620 3477 C 620 3977 619 3991 600 4010 C 574 4036 545 4035 526 4008 z" stroke-linecap="round"/>
</g>
<g transform="matrix(0.01 0 0 -0.01 135.52 210.21)" id="hwsBwA9VBv4hmwmgZlzKe">
<path style="stroke: none; stroke-width: 2; stroke-dasharray: none; stroke-linecap: butt; stroke-dashoffset: 0; stroke-linejoin: miter; stroke-miterlimit: 4; fill: rgb(0,0,0); fill-rule: nonzero; opacity: 1;" vector-effect="non-scaling-stroke" transform=" translate(-8649.56, -1628.7)" d="M 8440 2196 C 8341 2175 8290 2124 8290 2047 C 8290 1961 8339 1918 8458 1901 C 8499 1896 8535 1889 8538 1886 C 8545 1878 8545 1822 8538 1814 C 8535 1811 8506 1816 8474 1826 C 8399 1848 8326 1840 8261 1804 L 8211 1776 L 8173 1797 C 8097 1839 8055 1840 6847 1840 L 5690 1840 L 5690 1898 C 5691 1959 5702 1982 5747 2012 C 5770 2027 5795 2030 5886 2030 C 5952 2030 6016 2024 6046 2016 C 6073 2008 6111 2000 6130 1998 C 6162 1995 6165 1998 6168 2022 C 6174 2071 6157 2085 6068 2105 C 6009 2119 5949 2125 5860 2125 C 5721 2125 5685 2114 5623 2050 C 5593 2020 5565 1942 5558 1870 C 5555 1848 5549 1844 5506 1838 C 5446 1830 5438 1822 5442 1779 C 5445 1746 5447 1745 5492 1742 C 5517 1740 5543 1733 5549 1726 C 5556 1718 5561 1599 5562 1384 L 5565 1055 L 5623 1052 L 5680 1049 L 5680 1369 C 5680 1552 5684 1700 5690 1714 L 5700 1740 L 5957 1740 C 6145 1740 6222 1736 6240 1727 C 6265 1715 6265 1712 6268 1577 C 6269 1496 6266 1432 6260 1420 C 6250 1402 6247 1404 6206 1444 C 6072 1574 5852 1506 5833 1329 C 5826 1259 5840 1230 5880 1230 C 5928 1230 5940 1239 5940 1277 C 5940 1330 5968 1380 6007 1397 C 6048 1414 6104 1406 6140 1378 C 6194 1335 6247 1218 6259 1110 L 6265 1055 L 6322 1052 L 6380 1049 L 6382 1382 L 6385 1714 L 6410 1727 C 6429 1737 6574 1740 7050 1740 C 7388 1740 7675 1737 7688 1734 C 7706 1729 7710 1721 7710 1689 C 7710 1664 7705 1650 7698 1650 C 7668 1650 7521 1580 7456 1536 C 7343 1460 7320 1423 7334 1347 C 7339 1320 7354 1303 7416 1259 C 7457 1229 7510 1191 7533 1174 C 7697 1054 7707 1049 7768 1052 L 7825 1055 L 7828 1385 C 7830 1681 7832 1716 7847 1728 C 7871 1746 8041 1744 8086 1725 C 8140 1703 8159 1673 8160 1613 C 8160 1566 8156 1557 8124 1526 C 8094 1497 8080 1490 8036 1488 L 7985 1485 L 7982 1443 C 7979 1404 7981 1400 8005 1394 C 8050 1383 8131 1398 8171 1425 C 8192 1439 8213 1450 8217 1450 C 8222 1450 8242 1439 8262 1425 C 8302 1398 8373 1383 8415 1394 C 8439 1400 8441 1405 8438 1443 L 8435 1485 L 8385 1492 C 8316 1502 8280 1541 8280 1608 C 8280 1668 8296 1698 8340 1721 C 8409 1758 8486 1735 8523 1666 C 8544 1627 8545 1611 8548 1338 L 8551 1050 L 8606 1050 L 8660 1050 L 8660 1373 C 8660 1755 8656 1740 8753 1740 C 8787 1740 8826 1734 8840 1727 L 8865 1714 L 8870 1385 L 8875 1055 L 8930 1055 L 8985 1055 L 8988 1388 L 8990 1721 L 9017 1731 C 9034 1737 9173 1740 9393 1738 C 9725 1735 9742 1734 9756 1716 C 9774 1690 9774 1626 9756 1611 C 9745 1602 9736 1602 9721 1609 C 9691 1625 9628 1622 9600 1603 C 9586 1594 9561 1574 9544 1558 L 9513 1529 L 9496 1554 C 9456 1616 9337 1639 9262 1601 C 9182 1560 9150 1501 9150 1393 C 9150 1324 9154 1310 9180 1267 C 9218 1208 9292 1170 9370 1170 C 9433 1170 9460 1183 9460 1215 C 9460 1250 9434 1270 9388 1270 C 9331 1270 9283 1302 9270 1348 C 9258 1394 9258 1396 9270 1442 C 9281 1481 9330 1520 9369 1520 C 9405 1520 9449 1470 9463 1415 C 9474 1371 9478 1365 9504 1362 C 9558 1355 9579 1367 9585 1408 C 9595 1468 9608 1489 9645 1507 C 9686 1527 9719 1516 9747 1473 C 9762 1450 9766 1416 9770 1250 L 9775 1055 L 9825 1055 L 9875 1055 L 9880 1387 C 9883 1569 9889 1722 9893 1727 C 9898 1731 10114 1736 10374 1738 C 10841 1741 10847 1740 10873 1720 L 10900 1699 L 10902 1377 L 10905 1055 L 10963 1052 L 11020 1049 L 11020 1377 C 11020 1557 11024 1711 11029 1719 C 11042 1739 11138 1744 11170 1728 C 11184 1720 11197 1703 11200 1690 C 11208 1650 11220 1637 11308 1576 C 11353 1545 11390 1515 11390 1510 C 11390 1501 11373 1487 11260 1397 C 11213 1360 11205 1349 11202 1315 C 11197 1257 11207 1234 11242 1217 C 11260 1209 11311 1185 11355 1165 C 11399 1144 11473 1110 11519 1088 C 11593 1054 11611 1049 11664 1052 L 11725 1055 L 11727 1380 C 11730 1697 11730 1705 11751 1723 C 11763 1732 11787 1740 11805 1740 C 11823 1740 11843 1747 11850 1755 C 11868 1777 11854 1819 11824 1830 C 11809 1836 11637 1840 11415 1840 L 11031 1840 L 11025 1878 C 11015 1937 11013 1940 10976 1940 C 10919 1940 10910 1932 10910 1885 C 10910 1840 10890 1812 10868 1827 C 10861 1831 10437 1837 9926 1840 L 8997 1845 L 8990 1870 C 8954 1997 8947 2011 8900 2063 C 8838 2131 8735 2183 8633 2199 C 8546 2212 8512 2212 8440 2196 z M 8650 2099 C 8675 2094 8713 2081 8736 2070 C 8819 2032 8887 1920 8861 1863 C 8851 1842 8845 1840 8766 1840 C 8715 1840 8678 1844 8674 1851 C 8671 1857 8668 1883 8668 1909 C 8670 1978 8665 1982 8564 1985 C 8455 1988 8400 2008 8400 2043 C 8400 2071 8425 2096 8460 2103 C 8507 2111 8605 2110 8650 2099 z M 11598 1724 C 11620 1709 11620 1706 11620 1446 C 11620 1202 11619 1182 11602 1178 C 11583 1173 11360 1274 11348 1293 C 11335 1314 11339 1319 11420 1383 L 11500 1445 L 11500 1506 L 11500 1568 L 11410 1635 C 11361 1672 11320 1708 11320 1715 C 11320 1734 11341 1738 11465 1739 C 11550 1740 11581 1736 11598 1724 z M 7714 1514 C 7722 1494 7722 1252 7714 1212 C 7708 1185 7706 1183 7686 1194 C 7644 1215 7472 1345 7460 1363 C 7452 1377 7452 1385 7462 1397 C 7491 1433 7658 1529 7691 1530 C 7700 1530 7711 1523 7714 1514 z" stroke-linecap="round"/>
</g>
<g transform="matrix(0.01 0 0 -0.01 120.1 206.29)" id="KrjzuieFlN9tzGMjGpHXb">
<path style="stroke: none; stroke-width: 2; stroke-dasharray: none; stroke-linecap: butt; stroke-dashoffset: 0; stroke-linejoin: miter; stroke-miterlimit: 4; fill: rgb(0,0,0); fill-rule: nonzero; opacity: 1;" vector-effect="non-scaling-stroke" transform=" translate(-7066.96, -1990)" d="M 7036 2022 C 6928 1911 6920 1890 6986 1890 C 7013 1890 7031 1900 7067 1933 C 7117 1979 7190 2066 7190 2081 C 7190 2086 7170 2090 7146 2090 C 7106 2090 7098 2085 7036 2022 z" stroke-linecap="round"/>
</g>
<g transform="matrix(0.01 0 0 -0.01 226.73 206.29)" id="8UfUPpLcnaXuyc3u1Xrtt">
<path style="stroke: none; stroke-width: 2; stroke-dasharray: none; stroke-linecap: butt; stroke-dashoffset: 0; stroke-linejoin: miter; stroke-miterlimit: 4; fill: rgb(0,0,0); fill-rule: nonzero; opacity: 1;" vector-effect="non-scaling-stroke" transform=" translate(-17598.1, -1990)" d="M 17553 2005 C 17463 1912 17457 1890 17519 1890 C 17562 1891 17566 1894 17653 1987 C 17733 2073 17737 2090 17678 2090 C 17637 2090 17631 2085 17553 2005 z" stroke-linecap="round"/>
</g>
<g transform="matrix(0.01 0 0 -0.01 189.62 211.77)" id="LnXL6TXhz9DiN_Ks1TlS2">
<path style="stroke: none; stroke-width: 2; stroke-dasharray: none; stroke-linecap: butt; stroke-dashoffset: 0; stroke-linejoin: miter; stroke-miterlimit: 4; fill: rgb(0,0,0); fill-rule: nonzero; opacity: 1;" vector-effect="non-scaling-stroke" transform=" translate(-13930.59, -1485.71)" d="M 13322 1927 C 13316 1920 13310 1894 13308 1870 C 13305 1831 13302 1826 13285 1829 C 13239 1839 12129 1840 12111 1831 C 12101 1825 12089 1809 12086 1794 C 12072 1739 12066 1740 12526 1740 C 12899 1740 12950 1738 12964 1724 C 12978 1710 12980 1680 12978 1507 L 12975 1305 L 12944 1306 C 12927 1307 12900 1314 12884 1321 C 12856 1335 12855 1337 12849 1435 C 12843 1547 12833 1579 12793 1616 C 12695 1707 12563 1699 12489 1598 C 12461 1559 12459 1551 12462 1481 C 12465 1410 12466 1405 12491 1396 C 12505 1391 12530 1390 12545 1394 C 12570 1400 12572 1404 12566 1439 C 12549 1546 12631 1615 12704 1556 C 12731 1535 12734 1525 12738 1466 C 12743 1383 12723 1323 12674 1281 C 12588 1205 12425 1221 12357 1312 C 12320 1362 12308 1406 12301 1515 L 12295 1615 L 12250 1615 C 12206 1615 12205 1615 12198 1575 C 12194 1553 12193 1499 12196 1455 C 12206 1314 12274 1210 12389 1159 C 12422 1145 12455 1140 12530 1140 C 12634 1140 12680 1153 12757 1206 C 12805 1238 12874 1239 12921 1207 C 12949 1188 12958 1174 12971 1120 L 12987 1055 L 13041 1055 L 13095 1055 L 13100 1388 C 13106 1761 13100 1740 13183 1740 C 13222 1740 13293 1721 13302 1708 C 13303 1706 13306 1559 13310 1380 L 13315 1055 L 13368 1052 L 13420 1049 L 13420 1378 C 13420 1672 13422 1709 13437 1721 C 13454 1736 13603 1747 13645 1736 C 13675 1728 13677 1703 13654 1657 C 13607 1567 13588 1365 13615 1255 C 13650 1114 13703 1047 13787 1034 C 13841 1026 13864 1037 13868 1073 C 13872 1103 13840 1140 13811 1140 C 13786 1140 13743 1191 13729 1239 C 13713 1294 13723 1540 13745 1608 C 13765 1671 13814 1724 13860 1734 C 13878 1737 14037 1740 14214 1740 C 14451 1740 14539 1737 14548 1728 C 14555 1721 14560 1690 14560 1657 C 14560 1600 14559 1598 14538 1605 C 14457 1631 14415 1623 14359 1573 L 14319 1537 L 14292 1562 C 14243 1608 14203 1623 14134 1618 C 14082 1615 14064 1609 14033 1584 C 13971 1534 13950 1488 13950 1397 C 13950 1282 13979 1232 14070 1191 C 14121 1168 14228 1162 14248 1182 C 14265 1199 14263 1236 14244 1254 C 14235 1264 14211 1270 14187 1270 C 14128 1270 14084 1300 14069 1349 C 14037 1455 14120 1551 14205 1506 C 14240 1487 14255 1462 14266 1406 C 14273 1368 14295 1355 14340 1362 C 14366 1365 14373 1377 14392 1440 C 14414 1513 14478 1538 14535 1495 C 14554 1480 14555 1464 14560 1267 L 14565 1055 L 14620 1055 L 14675 1055 L 14680 1387 C 14683 1569 14689 1722 14693 1727 C 14698 1731 14735 1735 14775 1735 C 14891 1735 14884 1757 14890 1377 L 14895 1055 L 14950 1055 L 15005 1055 L 15008 1385 C 15010 1681 15012 1716 15027 1728 C 15051 1745 15511 1745 15528 1728 C 15535 1721 15540 1703 15540 1688 C 15540 1666 15534 1657 15513 1650 C 15390 1605 15210 1498 15175 1448 C 15156 1420 15155 1341 15174 1315 C 15181 1304 15221 1273 15261 1245 C 15302 1218 15379 1163 15433 1122 L 15530 1049 L 15593 1052 L 15655 1055 L 15658 1384 C 15659 1599 15664 1718 15671 1726 C 15677 1733 15703 1740 15728 1742 C 15772 1745 15775 1747 15778 1775 C 15783 1837 15796 1835 15388 1840 L 15015 1845 L 15012 1882 C 15008 1928 14991 1942 14943 1938 C 14905 1935 14905 1935 14900 1883 C 14897 1855 14892 1828 14888 1825 C 14885 1821 14865 1823 14843 1829 C 14818 1836 14576 1840 14125 1840 C 13609 1840 13441 1843 13432 1852 C 13425 1859 13420 1878 13420 1896 C 13420 1916 13414 1930 13404 1934 C 13377 1944 13333 1941 13322 1927 z M 15538 1375 C 15539 1292 15538 1215 15535 1202 C 15530 1180 15529 1180 15502 1197 C 15447 1232 15295 1353 15286 1368 C 15279 1380 15287 1393 15320 1421 C 15369 1463 15498 1532 15520 1528 C 15532 1525 15535 1499 15538 1375 z" stroke-linecap="round"/>
</g>
<g transform="matrix(0.01 0 0 -0.01 221.83 211.67)" id="wYDBhUSiUdCFp_ykRq6ja">
<path style="stroke: none; stroke-width: 2; stroke-dasharray: none; stroke-linecap: butt; stroke-dashoffset: 0; stroke-linejoin: miter; stroke-miterlimit: 4; fill: rgb(0,0,0); fill-rule: nonzero; opacity: 1;" vector-effect="non-scaling-stroke" transform=" translate(-17094.95, -1494.5)" d="M 16800 1925 C 16793 1916 16790 1898 16793 1880 C 16801 1845 16777 1814 16751 1827 C 16726 1839 16079 1843 16046 1831 C 16022 1821 16019 1816 16022 1783 L 16025 1745 L 16238 1740 C 16467 1735 16473 1733 16468 1681 C 16465 1662 16450 1651 16379 1621 C 16292 1583 16178 1513 16128 1465 C 16104 1443 16100 1431 16100 1382 C 16100 1350 16106 1317 16113 1308 C 16119 1300 16157 1271 16195 1245 C 16234 1218 16299 1171 16340 1141 C 16460 1051 16464 1049 16528 1052 L 16585 1055 L 16588 1388 L 16590 1721 L 16618 1731 C 16656 1746 16747 1737 16768 1716 C 16783 1701 16786 1663 16790 1377 L 16795 1055 L 16848 1052 L 16900 1049 L 16900 1377 C 16900 1566 16904 1711 16910 1720 C 16918 1733 16984 1735 17404 1735 C 17856 1735 17890 1734 17907 1717 C 17923 1701 17925 1671 17928 1374 L 17931 1049 L 17988 1052 L 18045 1055 L 18048 1385 C 18049 1566 18054 1718 18059 1723 C 18063 1727 18089 1734 18116 1738 C 18163 1745 18165 1747 18168 1779 C 18172 1822 18164 1830 18104 1838 C 18057 1845 18055 1847 18052 1880 C 18047 1927 18034 1940 17991 1940 C 17939 1940 17929 1930 17931 1882 C 17935 1828 17925 1819 17875 1830 C 17853 1835 17627 1840 17373 1840 L 16911 1840 L 16905 1878 C 16901 1898 16897 1921 16895 1928 C 16889 1945 16815 1943 16800 1925 z M 16454 1524 C 16468 1519 16470 1495 16470 1360 C 16470 1232 16467 1201 16456 1197 C 16447 1193 16398 1224 16337 1270 C 16211 1366 16203 1375 16220 1395 C 16236 1415 16335 1480 16390 1507 C 16443 1534 16435 1531 16454 1524 z" stroke-linecap="round"/>
</g>
<g transform="matrix(0.01 0 0 -0.01 118.32 213.09)" id="fhDYbgV3NTWG8wBeiPn-N">
<path style="stroke: none; stroke-width: 2; stroke-dasharray: none; stroke-linecap: butt; stroke-dashoffset: 0; stroke-linejoin: miter; stroke-miterlimit: 4; fill: rgb(0,0,0); fill-rule: nonzero; opacity: 1;" vector-effect="non-scaling-stroke" transform=" translate(-6884.46, -1363.42)" d="M 6930 1671 C 6851 1646 6807 1604 6790 1539 C 6767 1456 6804 1371 6880 1332 C 6921 1311 6934 1309 7018 1314 L 7110 1319 L 7110 1294 C 7110 1219 7017 1150 6915 1150 C 6761 1150 6678 1240 6663 1422 L 6655 1515 L 6603 1518 L 6550 1521 L 6550 1432 C 6550 1298 6588 1208 6676 1130 C 6742 1073 6808 1050 6909 1050 C 7043 1050 7125 1093 7185 1196 C 7228 1270 7231 1459 7189 1453 C 7181 1452 7142 1439 7101 1425 C 7010 1394 6982 1394 6939 1423 C 6911 1442 6904 1453 6902 1487 C 6899 1523 6903 1531 6925 1546 C 6939 1555 6972 1565 6998 1568 C 7024 1570 7051 1577 7058 1583 C 7074 1595 7073 1631 7057 1654 C 7042 1674 6970 1684 6930 1671 z" stroke-linecap="round"/>
</g>
<g transform="matrix(0.01 0 0 -0.01 152.53 213.04)" id="A5dyaoCmlXhcJuyOkW7xS">
<path style="stroke: none; stroke-width: 2; stroke-dasharray: none; stroke-linecap: butt; stroke-dashoffset: 0; stroke-linejoin: miter; stroke-miterlimit: 4; fill: rgb(0,0,0); fill-rule: nonzero; opacity: 1;" vector-effect="non-scaling-stroke" transform=" translate(-10395.64, -1368.12)" d="M 10455 1653 C 10386 1635 10331 1551 10330 1465 C 10330 1396 10349 1370 10401 1370 L 10440 1370 L 10440 1425 C 10440 1527 10472 1567 10545 1558 C 10595 1552 10615 1511 10615 1412 C 10615 1335 10612 1320 10588 1278 C 10541 1199 10441 1165 10339 1194 C 10230 1226 10170 1338 10170 1507 C 10170 1555 10165 1591 10158 1598 C 10139 1617 10082 1613 10072 1593 C 10041 1533 10058 1363 10104 1268 C 10201 1065 10485 1014 10642 1171 C 10714 1243 10734 1295 10735 1410 C 10735 1503 10734 1506 10698 1560 C 10678 1590 10647 1623 10630 1634 C 10598 1653 10495 1664 10455 1653 z" stroke-linecap="round"/>
</g>
<g transform="matrix(0.01 0 0 -0.01 224.99 213.04)" id="xBN-NCR38rpruoV1Kdm7B">
<path style="stroke: none; stroke-width: 2; stroke-dasharray: none; stroke-linecap: butt; stroke-dashoffset: 0; stroke-linejoin: miter; stroke-miterlimit: 4; fill: rgb(0,0,0); fill-rule: nonzero; opacity: 1;" vector-effect="non-scaling-stroke" transform=" translate(-17418.99, -1368.4)" d="M 17475 1653 C 17439 1643 17394 1601 17371 1554 C 17352 1517 17349 1497 17352 1448 C 17357 1379 17367 1369 17425 1372 L 17465 1375 L 17470 1446 C 17477 1546 17511 1580 17582 1557 C 17637 1539 17663 1411 17631 1317 C 17576 1157 17341 1134 17249 1279 C 17210 1339 17198 1385 17191 1500 C 17185 1592 17184 1595 17157 1604 C 17094 1627 17072 1569 17088 1424 C 17113 1206 17239 1080 17432 1080 C 17571 1080 17669 1139 17728 1260 C 17751 1307 17755 1328 17755 1405 C 17755 1482 17751 1503 17729 1545 C 17692 1618 17637 1653 17557 1656 C 17523 1658 17486 1656 17475 1653 z" stroke-linecap="round"/>
</g>
<g transform="matrix(0.01 0 0 -0.01 123.31 216.29)" id="Ni6pax04ft7ndoW80Okna">
<path style="stroke: none; stroke-width: 2; stroke-dasharray: none; stroke-linecap: butt; stroke-dashoffset: 0; stroke-linejoin: miter; stroke-miterlimit: 4; fill: rgb(0,0,0); fill-rule: nonzero; opacity: 1;" vector-effect="non-scaling-stroke" transform=" translate(-7396.38, -1069.77)" d="M 7350 1120 C 7309 1079 7338 1000 7394 1000 C 7433 1000 7463 1032 7462 1071 C 7460 1132 7392 1162 7350 1120 z" stroke-linecap="round"/>
</g>
<g transform="matrix(0.01 0 0 -0.01 202.36 216.13)" id="zmY7oa1YVe7uA60HMY02m">
<path style="stroke: none; stroke-width: 2; stroke-dasharray: none; stroke-linecap: butt; stroke-dashoffset: 0; stroke-linejoin: miter; stroke-miterlimit: 4; fill: rgb(0,0,0); fill-rule: nonzero; opacity: 1;" vector-effect="non-scaling-stroke" transform=" translate(-15223.34, -1070.46)" d="M 15175 1120 C 15149 1091 15151 1041 15179 1018 C 15227 980 15290 1007 15290 1066 C 15290 1131 15216 1165 15175 1120 z" stroke-linecap="round"/>
</g>
<g transform="matrix(0.01 0 0 -0.01 161.54 217.19)" id="opwUuQB6wktw3PbnAe7J0">
<path style="stroke: none; stroke-width: 2; stroke-dasharray: none; stroke-linecap: butt; stroke-dashoffset: 0; stroke-linejoin: miter; stroke-miterlimit: 4; fill: rgb(0,0,0); fill-rule: nonzero; opacity: 1;" vector-effect="non-scaling-stroke" transform=" translate(-11320.45, -986.39)" d="M 11293 1050 C 11225 1023 11245 920 11320 918 C 11379 916 11411 983 11373 1028 C 11351 1053 11322 1061 11293 1050 z" stroke-linecap="round"/>
</g>
<g transform="matrix(0.01 0 0 -0.01 43.11 199.78)" id="Oq0xAjGcAVhZ7FMO54_wH">
<path style="stroke: none; stroke-width: 1; stroke-dasharray: none; stroke-linecap: butt; stroke-dashoffset: 0; stroke-linejoin: miter; stroke-miterlimit: 4; fill: rgb(34,146,220); fill-rule: nonzero; opacity: 1;" vector-effect="non-scaling-stroke" transform=" translate(-565.74, -2586.6)" d="M 520 2690 C 514 2678 510 2629 512 2573 C 515 2479 516 2475 540 2467 C 555 2462 576 2462 593 2469 C 620 2479 620 2480 620 2579 C 620 2656 616 2682 604 2694 C 582 2717 533 2714 520 2690 z" stroke-linecap="round"/>
</g>
<g transform="matrix(0.01 0 0 -0.01 94.43 225.11)" id="W4I-02chXi4o7CKUA4QWz">
<path style="stroke: none; stroke-width: 1; stroke-dasharray: none; stroke-linecap: butt; stroke-dashoffset: 0; stroke-linejoin: miter; stroke-miterlimit: 4; fill: rgb(34,146,220); fill-rule: nonzero; opacity: 1;" vector-effect="non-scaling-stroke" transform=" translate(-4577.98, -696.79)" d="M 4534 726 C 4531 718 4530 699 4532 683 C 4535 657 4538 655 4580 655 L 4625 655 L 4625 695 C 4625 735 4625 735 4582 738 C 4552 740 4538 737 4534 726 z" stroke-linecap="round"/>
</g>
<g transform="matrix(0.01 0 0 -0.01 94.46 227.61)" id="4RF2p3gEiJN8kMYxKHy9_">
<path style="stroke: none; stroke-width: 1; stroke-dasharray: none; stroke-linecap: butt; stroke-dashoffset: 0; stroke-linejoin: miter; stroke-miterlimit: 4; fill: rgb(34,146,220); fill-rule: nonzero; opacity: 1;" vector-effect="non-scaling-stroke" transform=" translate(-4580, -501.13)" d="M 4537 543 C 4533 540 4530 520 4530 499 C 4530 466 4533 461 4559 455 C 4603 445 4630 464 4630 504 C 4630 526 4624 540 4614 544 C 4593 552 4545 552 4537 543 z" stroke-linecap="round"/>
</g>
<g transform="matrix(0.01 0 0 -0.01 93.79 230.66)" id="ZTO7EGsY-_C7ZOW7BkZRx">
<path style="stroke: none; stroke-width: 1; stroke-dasharray: none; stroke-linecap: butt; stroke-dashoffset: 0; stroke-linejoin: miter; stroke-miterlimit: 4; fill: rgb(34,146,220); fill-rule: nonzero; opacity: 1;" vector-effect="non-scaling-stroke" transform=" translate(-4527.12, -261.72)" d="M 4542 338 C 4536 332 4530 311 4530 294 C 4530 261 4529 261 4478 258 L 4425 255 L 4425 215 L 4425 175 L 4470 175 C 4507 175 4515 178 4518 195 C 4527 256 4528 257 4571 256 C 4622 255 4639 275 4624 317 C 4617 338 4607 346 4585 348 C 4568 350 4549 345 4542 338 z" stroke-linecap="round"/>
</g>
<g transform="matrix(0.01 0 0 -0.01 87.93 231.23)" id="p9UdiEHbtqeE9AFaYKT0o">
<path style="stroke: none; stroke-width: 1; stroke-dasharray: none; stroke-linecap: butt; stroke-dashoffset: 0; stroke-linejoin: miter; stroke-miterlimit: 4; fill: rgb(36,137,204); fill-rule: nonzero; opacity: 1;" vector-effect="non-scaling-stroke" transform=" translate(-4067.98, -216.79)" d="M 4024 246 C 4021 238 4020 219 4022 203 C 4025 177 4028 175 4070 175 L 4115 175 L 4115 215 C 4115 255 4115 255 4072 258 C 4042 260 4028 257 4024 246 z" stroke-linecap="round"/>
</g>
<g transform="matrix(0.01 0 0 -0.01 90.48 231.23)" id="9qeurnPoP1ra2BpBPBU9W">
<path style="stroke: none; stroke-width: 1; stroke-dasharray: none; stroke-linecap: butt; stroke-dashoffset: 0; stroke-linejoin: miter; stroke-miterlimit: 4; fill: rgb(28,142,217); fill-rule: nonzero; opacity: 1;" vector-effect="non-scaling-stroke" transform=" translate(-4267.98, -216.79)" d="M 4224 246 C 4221 238 4220 219 4222 203 C 4225 177 4228 175 4270 175 L 4315 175 L 4315 215 C 4315 255 4315 255 4272 258 C 4242 260 4228 257 4224 246 z" stroke-linecap="round"/>
</g>
</svg>