<svg xmlns="http://www.w3.org/2000/svg" xmlns:xlink="http://www.w3.org/1999/xlink" width="1500" height="1000" xmlns:v="https://vecta.io/nano"><style><![CDATA[.T{fill:#263238}.U{fill:#455a64}.V{fill:#e8505b}.W{fill:#fff}.X{fill:#e0e0e0}.Y{fill:#f5f5f5}.Z{fill:#ebebeb}.a{fill:#fafafa}.b{opacity:.5}.c{opacity:.4}.d{opacity:.2}.e{fill:#ffb29d}.f{fill:#b78876}.g{fill:#aa6550}.h{fill:#ffbe9d}.i{fill:#eb9078}]]></style><path d="M1320.6 527.8h-239.2V98.1h239.2z" class="Z"/><path d="M1308.6 515H1091V110.6h217.6z" class="a"/><path d="M1308.6 115.3L1091 392.1V110.6h217.6z" class="Y"/><g class="Z"><path d="M1313.3 231.2H1091v-4.3h222.3zm0 96.3H1091v-4.3h222.3zm0 96.3H1091v-4.3h222.3z"/><path d="M1205.3 229.1v297.3h-11V229.1zm-67.4 0h-5V110.6h5zm42.9 0h-5V110.6h5zm43 0h-5V110.6h5zm42.9 0h-4.9V110.6h4.9z"/></g><path d="M1081.4 530.4h-10.1V90.8h10.1z" class="Y"/><g class="X"><path d="m1330.7 531.6l-10.1-3.8v-437h10.1z"/><path d="M1330.7 98.1h-259.4V86.4h259.4zm6.9 445.9h-273.4v-10.9h273.4z"/></g><path d="M1320.6 527.8l17 5.3h-273.4l17.2-5.3zm56.3 173.7c9.7-5 21-5.6 31.8-3.9 5.7 1 11.8 2.7 15.7 7.1 3.9 4.3 4.7 11.9.1 15.6-2.6 2.2-6.4 2.6-9.9 2.5-8.4-.1-17.7-1.5-24.4 3.5-3.8 2.9-6.4 7.7-11 9.1-4.4 1.4-9.5-1.2-11.9-5.3-2.3-4-2.4-9.1-1.3-13.6 0 0 1.1-10 10.9-15zm-27.7-66.4c0-17.6 4.1-35.2 11.7-51.1 2.6-5.4 6.2-11.1 12-12.6 4.9-1.3 10.3.9 13.7 4.6 3.5 3.7 5.4 8.6 6.4 13.6 3.5 16.5-1.2 33.6-5.9 49.9-2.1 7.1-4.3 14.6-9.6 19.7-5.4 5.2-16.9 8-22.8-.5-4.6-6.8-5.6-15.4-5.5-23.6zm-9.8 34.7c-4.8 6.2-14.2 6.6-23.2 3.2-9-3.5-15.7-11-21.6-18.6-7.4-9.4-14-19.5-19.7-30-3.3-5.9-6.3-13.2-3.2-19.3 2.2-4 6.8-6.4 11.3-6.8 4.6-.4 9.2.8 13.5 2.3 11.1 3.9 21.3 9.9 30 17.7 7.5 6.6 13.9 14.7 16.8 24.3 2.8 9.5 1.6 20.6-4.8 28.3" class="Z"/><g class="X"><path d="M1354.3 782.3c0-2.5.1-6.1.5-10.6.3-4.4.9-9.7 2-15.5 1.2-5.9 3.1-12.1 5.6-18.5 2.5-6.3 5.8-12.1 9.6-16.7 3.7-4.6 8.2-8 12.3-9.8a30.16 30.16 0 0 1 10.3-2.7c2.5-.1 3.9 0 3.9.1s-1.4.3-3.9.5c-2.4.4-5.9 1.2-9.8 3.1s-8.1 5.2-11.7 9.7c-3.6 4.6-6.7 10.2-9.3 16.4-2.4 6.3-4.3 12.5-5.6 18.2-1.2 5.7-1.8 10.9-2.3 15.3q-.6 6.3-1 10.5c-.3 2.5-.5 3.8-.6 3.8s-.1-1.4 0-3.8z"/><path d="M1354.8 776.3q-.1-2-.3-5.1c-.2-4.4-.3-10.8-.2-18.7.1-15.9 1.2-37.7 3.9-61.7 2.6-24.1 6.3-45.7 9.8-61.1.8-3.9 1.7-7.4 2.5-10.4.7-3 1.4-5.7 2.1-7.8q.9-3 1.4-4.9.6-1.6.7-1.6 0 0-.4 1.7-.4 2-1.1 5c-.6 2.1-1.2 4.7-1.9 7.8l-2.2 10.4c-3.5 17.1-6.9 43.3-9.4 65.8-2.6 24-3.9 41-4.3 56.8-.3 7.9-.3 14.3-.3 18.7q.1 3.1.1 5.1-.1 1.8-.1 1.8-.1 0-.3-1.8z"/><path d="M1354.5 730.6c-.4-3.4-1-8.2-2.1-14.2-1.2-6-2.7-13.1-5-20.8-2-7.1-4.8-15.3-8.8-24.6-7.2-17.2-16.9-31.2-25.2-40-8.3-8.9-14.9-12.8-14.6-13.1 0-.1 1.6.9 4.4 2.8q1.1.8 2.4 1.7c.8.6 1.6 1.4 2.6 2.1 1.8 1.7 4 3.4 6 5.7 8.7 8.7 18.5 22.9 25.8 40.1 5.6 12.8 7.8 21.3 8.8 24.9 2.2 7.8 3.7 14.9 4.7 21a135.21 135.21 0 0 1 1.6 14.4c.2 3.4.2 5.3.1 5.3s-.4-1.9-.7-5.3zm42.7 79.7l-4.2 57.9h-74.4l-4.2-57.9z"/><path d="m1406.1 787.5v22.8h-98.9v-22.8z"/></g><path d="M1404.5 866v6.3h-92.6-4.7V866z" class="Z"/><path d="m1316.4 883.4l-4.5-11.1h89l-5.3 11.1z" class="X"/><path d="M1395.8 829.2q.1 0-.3.5-.4.6-1.1 1.5-1.6 2.1-4.3 5.6l-.2.2-.2-.2L1379 822h.6l-10.4 14.9-.4.4-.3-.4-12.5-14.8h.8q-.4.4-.7.9l-11.1 13.9-.4.5-.4-.5-10.4-14.9.6.1-12.9 14.7-.3.2-.1-.3q-2.6-4.3-4.1-6.7-.6-1.1-1-1.9-.4-.6-.3-.6 0 0 .4.6.4.7 1.1 1.7 1.6 2.5 4.3 6.7l-.4-.1 12.7-14.8.3-.4.3.4 10.6 14.8-.7-.1 11-13.9q.4-.5.7-.9l.4-.4.3.4 12.4 14.8-.7.1 10.6-14.8.3-.4.3.4 10.5 14.9h-.4q2.8-3.5 4.5-5.4.7-.9 1.2-1.4.4-.5.4-.5zm2.5-19.3c0 .3-18.7.5-41.7.5-22.9 0-41.6-.2-41.6-.5 0-.2 18.7-.5 41.6-.5l41.7.5zm3.7 63c0 .3-20.2.5-45.2.5s-45.2-.2-45.2-.5c0-.2 20.2-.4 45.2-.4l45.2.4z" class="Y"/><path d="M143 461.6s15.3-2.7 17.3 31.2c2.1 34 .4 52.3.4 52.3s1.2 7.5 6.9 5.4c5.6-2 15.8-10.4 21.8-5.5 6.1 5.1 5 14-1.4 25-6.4 10.9-19.5 35.5-20.7 37.7-1.1 2.2-1.3 6.1 2.8 5.3s30.9-13 35.9.1c5.1 13.1-17.8 40.7-20.2 43.8-2.4 3-2.4 4.8-1.1 6.4 1.2 1.6 9.9-3.4 17.6-6.6 7.8-3.1 17.4-5.4 19.7 2.4 2.2 7.8-6.6 32.1-46 60.8l-19.1 12.2-20.2-10.1c-42.1-24.6-53.3-47.9-51.8-55.9 1.4-8 11.2-6.7 19.3-4.3 8 2.4 17.1 6.4 18.2 4.7s1-3.4-1.8-6.2c-2.7-2.9-28.2-28.1-24.5-41.6s31.6-4 35.8-3.7c4.1.4 3.6-3.4 2.2-5.5L109.7 574c-7.4-10.3-9.4-19-3.8-24.7 5.4-5.5 16.4 1.9 22.2 3.4 5.9 1.4 6.3-6.1 6.3-6.1s-3.5-18.1-4.8-52.1c-1.4-34 13.7-32.9 13.7-32.9" class="Z"/><g class="X"><path d="M144.5 492q0 .1.1.8 0 .7.1 2l.6 8.1 1.7 29.5 4.7 97.5 4.5 97.6 1.5 29.5.4 8q0 1.4 0 2.1.1.7 0 .7 0 0 0-.7-.1-.7-.2-2.1l-.5-8-1.8-29.5-4.7-97.5-4.4-97.6-1.5-29.5-.4-8q-.1-1.4-.1-2.1 0-.7 0-.8z"/><path d="M120.8 560.2c.1 0 .5.3 1.3 1.1l3.2 3c2.7 2.7 6.3 6.4 10.1 10.6l9.9 10.9q1.8 1.9 3 3.2c.8.8 1.1 1.2 1.1 1.3 0 0-.5-.3-1.3-1.1-.7-.7-1.8-1.7-3.2-3.1-2.6-2.6-6.1-6.4-10-10.6l-10-10.8q-1.8-1.9-3-3.2c-.7-.8-1.1-1.2-1.1-1.3zm30.6 29.4c-.1-.1 7.3-7.9 16.5-17.3 9.3-9.4 16.9-16.9 17.1-16.7.2.1-7.2 7.9-16.5 17.3s-16.9 16.9-17.1 16.7zm-.1 58.6l1.4-.9q1.7-.9 4-2.2l12.9-7.5c5-3.1 9.4-6 12.6-8.1q2.2-1.5 3.8-2.5c.9-.6 1.4-.9 1.4-.9 0 .1-.4.4-1.3 1.1-.8.7-2 1.6-3.6 2.7-3.1 2.3-7.5 5.3-12.5 8.3-5 3.1-9.6 5.6-13.1 7.4-1.7.9-3.1 1.6-4 2-1 .4-1.6.7-1.6.6zm-33.5-20.5s.5.2 1.4.7c.9.4 2.1 1.1 3.7 2l11.9 7c4.7 2.7 8.9 5.3 11.9 7.2 1.5.9 2.7 1.7 3.5 2.2s1.3.9 1.3.9c-.1.1-.6-.2-1.4-.6-.9-.5-2.2-1.2-3.7-2.1-3.1-1.7-7.3-4.2-12-6.9l-11.8-7.2c-1.5-1-2.7-1.7-3.5-2.3-.9-.5-1.3-.8-1.3-.9zm-6.6 51.7l1.8.9q1.8 1 4.7 2.6l15.3 8.8 15.3 9q2.8 1.7 4.6 2.9c1.1.6 1.6 1 1.6 1.1l-1.8-.9q-1.8-1-4.7-2.6l-15.3-8.8-15.3-9q-2.8-1.7-4.6-2.8c-1.1-.7-1.7-1.1-1.6-1.2zm42.5 24.4c-.1-.1.6-.5 1.7-1.2q2-1.2 4.9-3c4.2-2.5 9.9-6 16.1-10.1 6.2-4 11.8-7.8 15.7-10.6q2.9-2 4.8-3.3c1.1-.8 1.7-1.2 1.8-1.1l-1.7 1.4c-1 .8-2.6 2-4.5 3.4-4 2.9-9.4 6.8-15.7 10.9-6.2 4-12 7.5-16.2 9.9l-5 2.8c-1.2.6-1.9.9-1.9.9zm12.1 173.1h-19.4l-18.3-138.2h56z"/></g><path d="M132.8 756.8c1.2.4 3.4.4 5.4-.9 1.1-.7 2.1-1.6 3.2-2.5 1.2-1 2.5-1.9 4.1-2.6 3.2-1.2 7.2-1 10.9.2 3.7 1.1 6.9 3 9.7 4.8 2.8 1.7 5.4 3.2 7.6 4.3 4.5 2.1 7.7 2.1 7.7 2.3q0 0-.6 0-.5.1-1.6-.1c-1.4-.2-3.4-.6-5.7-1.6-2.4-1-5-2.5-7.8-4.2-2.9-1.7-6-3.5-9.6-4.7-3.6-1.1-7.3-1.3-10.3-.2s-5 3.6-7.2 4.8c-2.3 1.4-4.6 1.3-5.9.7-.7-.3-1.2-.6-1.4-.9s-.3-.5-.3-.5c.1-.1.5.7 1.8 1.1zm.5 23.9q.2-.5.8-1.3c.8-1 2.3-2.3 4.5-3.2s4.9-1.5 8-1.4 6.4.7 9.9 1.3c3.4.6 6.7.8 9.7.5 3-.4 5.6-1.2 7.7-2 4.2-1.8 6.4-3.8 6.5-3.6 0 0-.5.6-1.5 1.3-1.1.8-2.6 1.9-4.7 2.8a26.4 26.4 0 0 1-7.9 2.3c-3 .4-6.5.2-9.9-.4l-9.8-1.4c-3-.1-5.7.4-7.8 1.2s-3.5 2-4.4 2.9-1.3 1.5-1.4 1.4q0 0 .3-.4zm38.2 12.9c-2-.1-4.3.1-6.8.6l-8.3 1.8c-3 .7-5.9 1.1-8.6.9-2.7-.1-5-.8-6.8-1.7-1.9-.9-3.1-2-3.8-2.8-.8-.9-1-1.5-1-1.5.2-.1 1.4 2.2 5 3.8 1.8.7 4.1 1.3 6.6 1.4 2.6.1 5.4-.3 8.4-1l8.3-1.7c2.6-.5 5-.6 7-.4 2 .1 3.6.6 4.7 1 1 .4 1.5.7 1.5.8s-2.3-1.1-6.2-1.2zm-32.2 19.5c.9-.4 2.4-.6 4.2-.3 3.7.4 7.8 3.5 13.1 3.8 5.2.5 9.9-1.1 12.9-2.7 3.1-1.7 4.6-3.3 4.7-3.2 0 0-.3.5-1 1.2s-1.8 1.6-3.3 2.5c-3 1.9-7.9 3.7-13.4 3.1-2.7-.2-5.3-1-7.4-2s-4-1.8-5.7-2.1c-3.4-.7-5.4.7-5.4.5 0 0 .4-.4 1.3-.8zm6.2 25.8c2.7-1 6.1-3.2 10.3-4.9 2.1-.8 4.3-1.3 6.3-1.3 2 .1 3.8.7 5.1 1.4 1.3.8 2.1 1.7 2.6 2.4.4.7.6 1.1.5 1.2s-.9-1.7-3.4-3c-1.3-.6-3-1.1-4.8-1.1-1.9 0-3.9.5-6 1.2-4 1.7-7.5 3.8-10.3 4.7-2.8 1.1-4.7 1.1-4.7 1 0-.2 1.8-.4 4.4-1.6zm10.8 15.7c7 .7 12.6.4 12.6.7 0 .1-1.4.3-3.7.4s-5.5.1-9-.2a87.69 87.69 0 0 1-8.8-1.5c-2.2-.6-3.6-1.1-3.6-1.2.1-.2 5.6 1.1 12.5 1.8z" class="Y"/><path d="M1418.9 880.7c0 .3-298.7.6-667 .6-368.5 0-667.2-.3-667.2-.6s298.7-.5 667.2-.5l667 .5z" class="T"/><g class="U"><path d="M368.9 855.9h-14.7V680.6h14.7z"/><path d="M463.7 680.6H254.4c0-12.5 10.2-22.7 22.8-22.7H441c12.5 0 22.7 10.2 22.7 22.7z"/></g><path d="M374.4 681c0 .3-5.8.6-12.9.6s-12.8-.3-12.8-.6 5.7-.5 12.8-.5 12.9.2 12.9.5z" class="T"/><path d="M425.5 871.7h-2c0-34.3-28-62.2-62.3-62.2S299 837.4 299 871.7h-2.1c0-35.4 28.8-64.3 64.3-64.3s64.3 28.9 64.3 64.3z" class="U"/><path d="m307.6 870.6c0 5.3-4.3 9.6-9.7 9.6-5.3 0-9.6-4.3-9.6-9.6 0-5.4 4.3-9.7 9.6-9.7 5.4 0 9.7 4.3 9.7 9.7z" class="T"/><path d="M434.5 871c0 5.3-4.3 9.7-9.6 9.7s-9.6-4.4-9.6-9.7 4.3-9.6 9.6-9.6 9.6 4.3 9.6 9.6zm-9.6-15.1c0 .3-28 .5-62.5.5s-62.5-.2-62.5-.5 28-.6 62.5-.6l62.5.6zM263.3 493.4h89.3c7.5 0 13.6 6.1 13.6 13.7l13.5 159.6h-99.4c-16.9 0-30.6-13.7-30.6-30.6v-129c0-7.6 6.1-13.7 13.6-13.7z" class="U"/><g class="T"><path d="M284.8 657.9q0 0-1.1-1.2l-2.9-3.8c-2.3-3.3-5.4-8.5-7.7-15.5-1.2-3.5-2.2-7.4-2.7-11.7-.6-4.3-.5-9-.5-13.8v-31.5l.1-57.1.2-17.3q0-3 .1-4.8 0-1.6.1-1.6 0 0 .1 1.6 0 1.8.1 4.8l.1 17.3.2 57.1v31.5c0 4.9-.2 9.4.4 13.7.5 4.2 1.4 8.1 2.5 11.6 2.2 6.9 5.2 12.1 7.4 15.5 1.1 1.7 2 3 2.7 3.8.6.9.9 1.4.9 1.4z"/><path d="M338.9 657.5c0 .1-1.1.1-3.1.2l-8.6.2-28.4.4-15.7.1c-4.8 0-9.1.2-12.6 1.1s-6 2.5-7.6 3.7-2.3 2.1-2.4 2q0-.1.5-.7c.3-.4.9-1 1.7-1.6 1.5-1.4 4.1-3.1 7.6-4.1 3.6-1 8-1.3 12.8-1.4s10.1-.1 15.6-.1l28.5-.1c3.5.1 6.4.1 8.6.1 2 .1 3.1.1 3.1.2z"/></g><g class="f"><path d="M560.5 439.5l-9.7 10-19.4-20.7 6.5-11.1q.5-2.1 1-4.8c.4-2.1.4-4.2.1-6.3-.4-2.6-1-5.9-1.9-7.7-1.1-2.1.9-4.5 2.8-3.6 2 1 5.2 6.8 5.6 14.7.5 7.8 7.5-2.2 10.1-5.8 2.6-3.5 11.2-14.2 13-14.3 2.5 0 3 2.7.3 6.2-2.7 3.6-10 14.7-8.1 16q0 0 .1 0c4-.5 7.9 1.7 9.6 5.4 1.6 3.5 3.5 8.5 1.7 10.7-3.2 4-11.7 11.3-11.7 11.3z"/><path d="m550.8 449.5l-61.1 75.8-28-39.1 69.7-57.4z"/></g><g class="g"><path d="M567.4 413.8c.1.1-1.2 1.6-3.5 3.9q-1.8 1.8-4 4-1.1 1.1-2.3 2.4c-.9.7-1.9 1.7-3.5 1.7-.8 0-1.5-.5-1.9-1.1s-.6-1.3-.5-2c.1-1.4.9-2.4 1.6-3.2l4.1-4c2.4-2.1 4.1-3.2 4.2-3.1s-1.4 1.4-3.7 3.6l-3.9 4.1c-.6.8-1.3 1.7-1.3 2.7-.1.9.5 1.9 1.4 2 1 0 2-.7 2.8-1.5q1.2-1.2 2.4-2.3 2.2-2.1 4.1-3.8l4-3.4z"/><path d="M569.9 418.8c.1.2-1.2 1.6-3.3 3.8q-1.8 1.8-3.9 3.9c-.7.7-1.4 1.5-2.3 2.2-.5.4-1 .8-1.6 1-.6.3-1.4.3-2.1 0-1.4-.7-1.8-2.3-1.5-3.5.4-1.3 1.2-2.2 1.9-2.9l3.9-3.8c2.4-2.1 4-3.1 4.1-3s-1.4 1.4-3.6 3.5l-3.7 3.9c-.7.8-1.3 1.6-1.6 2.5-.2.9.1 2 .9 2.4.8.3 1.9-.2 2.7-.9l2.3-2.1q2.1-2 3.9-3.7l3.9-3.3z"/><path d="M572.7 423.6c.1.1-1.1 1.5-3.2 3.6q-1.7 1.8-3.7 3.8l-2.3 2.1c-.5.3-1.1.6-1.8.6-.7.1-1.4-.2-1.9-.7-1-1-1.1-2.5-.6-3.6s1.3-1.9 1.9-2.6l3.8-3.7c2.3-1.9 3.9-2.9 4-2.8 0 .1-1.3 1.3-3.5 3.4l-3.6 3.7c-.6.7-1.3 1.5-1.6 2.4-.4.8-.3 1.9.3 2.5s1.6.4 2.4-.1 1.5-1.3 2.3-1.9q2-1.9 3.8-3.6l3.7-3.1zm-22.2 12.1c-.1-.1.3-1.2.5-2.9.2-1.8.2-4.4-.7-6.9-.9-2.6-2.4-4.6-3.7-5.9-1.3-1.2-2.3-1.8-2.2-2 0-.1 1.1.3 2.6 1.5 1.5 1.1 3.3 3.2 4.3 6s.9 5.5.4 7.4c-.4 1.8-1 2.8-1.2 2.8z"/></g><g class="V"><path d="M412.6 493.7L423 598.2 294.7 601l.7-84.1-9.3-72.5c6.1-33.9 53.7-36.3 53.7-36.3l37.3-.6s17.6-2.3 36.7 8.2c0 0 37.9 20.6 37.6 73"/><path d="m328.3 425.4c4.7 3.7 7.6 9.2 7.7 15.2l1.6 58.9-59.7 2.4c-4-43 6.8-64.5 18-75.2 8.9-8.5 22.7-8.8 32.4-1.3z"/></g><path d="M420.8 583.3q0 0-1.1.8c-.7.4-1.9 1-3.4 1.6-3.2 1.1-8.1 1.7-14 .5-5.9-1-12.4-4-19.9-5.9-7.5-2-16.1-2.7-25-1.6-8.9 1-16.9 4.3-24.2 7.2-7.2 2.8-14 5-20 5.6-5.9.6-10.8-.3-13.9-1.4-1.6-.6-2.7-1.1-3.5-1.6q-1.1-.6-1.1-.7c0-.1 1.6.9 4.7 1.9s7.9 1.7 13.7 1c5.9-.6 12.6-2.8 19.8-5.7s15.3-6.3 24.4-7.3c9-1.2 17.8-.4 25.4 1.6 3.8 1 7.3 2.3 10.5 3.5 3.3 1.1 6.4 2.1 9.2 2.7 5.8 1.2 10.6.8 13.7-.2 3.2-1 4.6-2.1 4.7-2z" class="a"/><g class="d"><path d="M295.2 566.5l124.5-3.3 1.1 13.2c-8.6 4.3-19.9 3.3-29.4 1.8s-19.5-3.3-28.6-.2c-6.4 2.2-11.8 6.6-17.8 9.7-15.6 8-35.8 6-49.6-4.8-.4-.3-.1 0-.5-.4"/></g><path d="M442.4 881.8c-6.1 1.9-43.6.4-52.8-.2l-2.1-.1-.2-19.5 33.4-1.1.3 12.5s28.3 6.4 21.4 8.4z" class="V"/><g class="b W"><path d="M387.6 881l-.2-9.3c3.9-.5 6 .5 8.2 2.3 2.2 1.7 3.5 4.5 4 7.3z"/></g><path d="M434.8 877s9.9 2.9 8.7 4.5c-1.3 1.6-39.2 1.5-56 0l.1-.7 44.3.5s1-4.2 2.9-4.3z" class="W b"/><g class="T"><path d="M387.6 880.7q.8 0 1.7.1 2.5 0 6 .1l20 .3 19.9-.2q3.6 0 6.1-.1.9 0 1.6 0 .6 0 .6 0 0 .1-.6.1-.7 0-1.6.1-2.5.1-6.1.2c-5.1.2-12.1.3-19.9.3s-14.9-.2-20-.4q-3.6-.2-6-.3-.9 0-1.7-.1-.5 0-.5-.1 0 0 .5 0z"/><path d="M432.7 878.7c.9-1.6 2.3-2.2 2.4-2.1 0 .1-1.2.8-2.1 2.3-.9 1.4-1 2.9-1.1 2.9s-.2-1.6.8-3.1zm-9.9-3.4c.5-.8.9-1.3 1-1.3.1.1-.2.7-.7 1.5s-.9 1.3-1 1.3c-.1-.1.2-.8.7-1.5zm-2.5-1c.6-.5 1.1-.9 1.2-.8 0 .1-.4.6-.9 1.1-.6.5-1.1.8-1.2.7-.1 0 .3-.5.9-1zm-.9-2.3c1 0 1.8.1 1.8.2 0 .2-.8.2-1.8.2-.9 0-1.7-.1-1.7-.2s.8-.2 1.7-.2zm-.3-1.8c1 0 1.9 0 1.9.1.1.1-.8.3-2 .3-1.1-.1-1.9-.5-1.9-.6s.9.1 2 .2z"/><path d="M425.3 873.6a12.3 12.3 0 0 0 2.2-.6c.4-.1.8-.3 1.2-.5s.5-.6.2-.9c-.7-.4-1.8-.4-2.6-.1-.8.2-1.4.7-1.8 1.1-.8 1-.9 1.9-1 1.9 0 0 0-.3.1-.6.1-.4.3-.9.7-1.4.7-1.1 2.8-2.2 4.8-1.2.3.2.4.6.3.9 0 .3-.3.5-.5.6-.4.3-.9.4-1.3.6l-2.3.5c-1.3.1-2.1 0-2.1 0 0-.1.8-.1 2.1-.3z"/><path d="M423.7 872.5c-.1-.4-.2-.9-.6-1.3-.3-.5-.8-1-1.4-1-.5.1-.3.9 0 1.4q.4.8.9 1.3c.6.7 1 1 1 1 0 .1-.6-.2-1.2-.8-.4-.3-.7-.8-1.1-1.3-.1-.3-.3-.6-.3-1-.1-.3.2-.9.6-1 1 0 1.4.7 1.8 1.1.4.6.6 1.1.6 1.6.1 1-.2 1.5-.2 1.5-.1 0 .1-.6-.1-1.5zm-35.3-1c.4-.1 1.1-.1 1.9 0 1.5.1 3.7.7 5.5 2.2 1.9 1.5 3 3.4 3.4 4.9.2.8.3 1.4.3 1.8q.1.7 0 .7s-.1-1-.6-2.4-1.5-3.3-3.3-4.7c-1.8-1.5-3.9-2.1-5.4-2.3-1.5-.1-2.4 0-2.4 0q0-.1.6-.2zm20.2 6.6l4.9.1c0 .1-2.2.4-4.9.3-2.7 0-4.8-.4-4.8-.5s2.2.1 4.8.1zm-10.6.7c.3.6.2 1.1.1 1.1s-.2-.4-.4-.9c-.3-.5-.5-.9-.4-1 0-.1.5.2.7.8zm-2.4-3.4c.3.4.5.7.5.8-.1.1-.5-.1-.8-.5-.3-.3-.6-.7-.5-.7.1-.1.4.1.8.4zm-3.2-1.9c.6.2.9.6.8.7s-.4-.2-.9-.4c-.5-.1-1-.1-1-.3 0-.1.5-.3 1.1 0zm-3-.6c.3.1.4.3.4.4s-.3.1-.6 0c-.2-.1-.4-.3-.4-.4s.3-.1.6 0z"/></g><path d="M387.3 867.1H421v1.3l-33.6 1.4z" opacity=".3"/><path d="M552.4 880.3c-6.3 1.8-44.7.3-54.1-.2l-2.1-.2-.2-19.9 34.1-1.2.4 12.8s28.9 6.5 21.9 8.7z" class="V"/><g class="b W"><path d="M496.2 879.4l-.1-9.5c3.9-.5 6 .5 8.3 2.3s3.6 4.6 4.1 7.5z"/></g><path d="M544.6 875.3s10.1 2.9 8.8 4.6c-1.2 1.7-40.1 1.6-57.2 0v-.7l45.4.5s1-4.3 3-4.4z" class="W b"/><g class="T"><path d="M496.3 879.1q.7 0 1.7.1 2.5 0 6.2.1l20.4.3 20.4-.2q3.7 0 6.2-.1.9 0 1.7 0 .5 0 .6 0-.1.1-.6.1-.8 0-1.7.1-2.5.1-6.2.2c-5.2.2-12.4.3-20.4.3s-15.2-.2-20.5-.4q-3.6-.2-6.1-.3-1 0-1.7-.1-.6 0-.6-.1 0 0 .6 0z"/><path d="M542.4 877c.9-1.6 2.4-2.2 2.4-2.1.1.1-1.2.8-2.1 2.3s-1 3-1.2 3c-.1 0-.1-1.6.9-3.2zm-10.2-3.4c.5-.8 1-1.4 1.1-1.4.1.1-.2.8-.7 1.6s-1 1.3-1.1 1.3c-.1-.1.2-.8.7-1.5zm-2.5-1.1c.6-.5 1.1-.9 1.2-.8s-.3.6-.9 1.1-1.2.9-1.2.8c-.1-.1.3-.6.9-1.1zm-.9-2.3c1 0 1.8.1 1.8.2 0 .2-.8.2-1.8.2s-1.8-.1-1.8-.2.8-.2 1.8-.2zm-.3-1.9c1 .1 1.9 0 2 .1 0 .1-.9.4-2.1.3-1.1-.1-2-.5-2-.6.1-.1 1 .1 2.1.2z"/><path d="M534.8 871.8c.7-.1 1.4-.3 2.3-.6.4-.1.8-.3 1.2-.5s.5-.6.2-.9c-.7-.5-1.8-.4-2.6-.2-.8.3-1.5.7-1.9 1.2-.8 1-.9 1.9-1 1.9 0 0 0-.2.1-.6s.3-.9.7-1.4c.8-1.1 2.9-2.3 4.9-1.2.3.2.5.5.4.9-.1.3-.4.5-.6.6-.4.3-.9.4-1.3.6-.9.3-1.7.4-2.3.5-1.4.2-2.2.1-2.2 0s.8-.1 2.1-.3z"/><path d="M533.2 870.7c-.1-.4-.3-.9-.6-1.4-.3-.4-.9-1-1.4-.9-.6.1-.4.9-.1 1.4q.5.8.9 1.3c.6.7 1.1 1 1.1 1.1-.1 0-.6-.2-1.3-.9-.3-.3-.7-.8-1-1.3-.2-.3-.3-.6-.4-1s.2-1 .7-1c.9-.1 1.4.6 1.8 1.1s.6 1.1.6 1.6c.1 1-.2 1.5-.3 1.5 0 0 .2-.6 0-1.5zm-36.1-1c.4-.1 1.1-.1 1.9-.1 1.5.1 3.7.7 5.7 2.3 1.9 1.5 3 3.6 3.4 5.1.2.7.3 1.4.4 1.8q0 .7 0 .7c-.1 0-.2-1-.7-2.4-.5-1.5-1.6-3.4-3.4-4.9s-3.9-2.1-5.5-2.3c-1.5-.2-2.5 0-2.5-.1q0 0 .7-.1zm20.7 6.8h5c0 .1-2.3.4-5 .4-2.8 0-5-.4-5-.5s2.2 0 5 .1zm-10.9.7c.3.5.2 1.1.1 1.1s-.2-.5-.5-1l-.4-1c.1 0 .6.3.8.9zm-2.5-3.5c.4.4.6.7.5.8s-.4-.1-.8-.5c-.3-.4-.6-.7-.5-.8s.5.2.8.5zm-3.3-2c.7.2 1 .7.9.7-.1.1-.5-.2-1-.3-.5-.2-.9-.2-1-.3 0-.1.5-.3 1.1-.1zm-3-.6c.2.1.4.3.4.4s-.3.1-.6 0-.5-.3-.4-.4c0-.1.3-.1.6 0z"/></g><path d="m496 865.1h34.4v1.4l-34.3 1.5z" opacity=".3"/><g class="T"><path d="M537.8 639.5l5.4 224.5-52.8 4-8.4-196.1c-.2-5.3-4.5-9.4-9.8-9.5l-78.2-.6-28.5-64.1 136.4 1.7c20.2 2.7 35.5 19.7 35.9 40.1z"/><path d="M294.7 601s136.9-15.4 140.3 20.5c4.9 52.4 8.5 243.4 8.5 243.4l-65.4 4.7-5.8-202.5s-79.6 5.4-77.6-66.1z"/></g><path d="M371.5 651.2c.3 0 .8 4.1 1.1 9.1.3 5.1.3 9.2 0 9.2s-.8-4.1-1.1-9.1c-.3-5.1-.3-9.2 0-9.2zm-2.4-53.1q0-.1 1.2-.1 1.3.1 3.3.1l12.3.5c5.2.3 11.3.8 18.1 1.8 6.8 1.1 14.3 3.1 21.1 7.5 1.6 1.2 3.1 2.5 4.5 4 1.3 1.4 2.3 3.2 2.9 5 1.2 3.6 1.8 7.2 2.2 10.6.7 6.9.7 13.1.7 18.2V658q.1 2 .1 3.3 0 1.2-.1 1.2 0 0-.2-1.2-.1-1.1-.2-3.3l-.3-12.3c-.2-5.1-.2-11.3-1-18.1-.4-3.3-1-6.9-2.2-10.3-1.1-3.5-3.9-6.3-7.1-8.5-6.5-4.3-13.9-6.3-20.5-7.4-6.8-1.1-12.9-1.6-18.1-2l-12.2-.9q-2-.1-3.3-.2-1.2-.2-1.2-.2z" class="U"/><path d="M278.9 501.8q1.2-.1 3-.3l10.9-.7 36.2-2 7.2-.4-.5.5.2-31.3.1-9.2q.1-1.5.1-2.5.1-.9.1-.9.1 0 .1.9 0 1 .1 2.5l.1 9.2.2 31.3v.5h-.5l-7.2.4-36.1 1.7-11 .4q-1.8.1-3 .1-1 0-1-.1 0 0 1-.1zm28.5-85.1c1.2-.3 3-.5 5.2-.4 4.4.2 10.6 2.3 15.4 7.1 4.8 4.9 6.9 11 7.6 15.3.3 2.1.4 3.9.4 5.2-.1 1.2-.2 1.9-.2 1.9-.2 0-.1-2.8-.9-7s-3-10-7.6-14.7c-4.6-4.6-10.5-6.7-14.8-7-4.2-.5-6.9.4-6.9.2 0-.1.6-.3 1.8-.6zM413 452.9c.1 3.4.2 8 .1 13.2-.2 5.1-.3 9.7-.3 13.5-.1 2.4-.1 4.2-.1 5.9 0-1.5 0-3.1-.1-5.2 0-3.8-.2-8.4-.3-13.5-.1-5.4 0-10.3 0-13.8.1-3.5.3-5.6.4-5.6s.3 2.1.3 5.5z" class="T"/><path d="m324.7 500l1.1 40 83.2-16-6.7 32.9-88.9 24.6c-13.5 2.9-26.4-6.9-27.2-20.7l-1.4-58.8z" class="f"/><path d="M316.4 554.3c-.1 0-.4-1-.3-2.8.1-1.7.7-4.2 2.2-6.5 1.5-2.2 3.5-3.8 5.1-4.6s2.7-.9 2.7-.8c.2.3-4.1 1.7-6.9 6-2.9 4.3-2.5 8.8-2.8 8.7z" class="g"/><path d="M335.2 462.5q0 0-.1.7-.1.7-.5 2c-.6 1.7-1.7 4.1-4 6.4s-5.7 4.5-10 5.1c-4.3.7-8.9-.5-13.5-2-4.6-1.6-8.9-3.2-13-3.4s-7.7 1-10.4 2.6-4.4 3.5-5.5 4.9c-1 1.4-1.5 2.2-1.5 2.2q-.1 0 .2-.7.3-.6 1-1.8c1-1.5 2.7-3.5 5.4-5.2s6.5-3.2 10.8-2.9c4.3.1 8.8 1.7 13.3 3.3 4.6 1.5 9.1 2.6 13.1 2.1 4.1-.6 7.3-2.6 9.6-4.7 2.2-2.2 3.5-4.5 4.1-6 .7-1.7.9-2.6 1-2.6zm-5.6-36.4c.1 0-.3.5-1 1.3s-1.9 1.9-3.4 3c-3.1 2.3-8.1 4.9-14 5.6s-11.3-.5-14.9-2c-1.7-.8-3.1-1.6-4-2.2-.9-.5-1.4-.9-1.3-1 .1-.2 2 1.2 5.6 2.5 3.5 1.3 8.8 2.4 14.5 1.7s10.5-3.1 13.6-5.2c3.2-2.1 4.8-3.9 4.9-3.7zm111.2 21.8c-.1.1-.8-1.4-3.1-3-2.3-1.7-6.3-3.3-11.4-2.9-5 .3-10.6 3-16.2 6.6-2.9 1.8-5.8 3.8-9.1 5.6-3.2 1.8-6.8 3.4-10.7 4.1s-8 .2-11.5-1.1c-3.5-1.2-6.6-3-9.5-4.8-5.8-3.5-11.1-6.6-16.1-7.4s-9.1.5-11.5 2c-2.3 1.5-3.1 3-3.2 2.9q-.1 0 .6-1c.5-.6 1.2-1.4 2.4-2.2 2.4-1.7 6.6-3.2 11.8-2.4 5.2.7 10.7 3.8 16.5 7.3 2.9 1.7 6 3.4 9.4 4.7 3.4 1.2 7.1 1.7 10.9 1s7.3-2.2 10.4-4c3.2-1.7 6.2-3.7 9.1-5.5 5.7-3.6 11.4-6.3 16.7-6.5 5.2-.3 9.4 1.4 11.6 3.2 1.2.9 1.9 1.8 2.3 2.4q.6 1 .6 1zm-28.1-31.5c.1.1-1.5 1.2-4.2 2.5-2.7 1.2-6.8 2.5-11.4 3s-8.8.1-11.7-.5c-3-.7-4.7-1.4-4.7-1.5.1-.4 7.3 2 16.3 1 9.1-.9 15.6-4.8 15.7-4.5zm-16.5 89c-.1.1-.8-.7-2.4-1.7-1.6-.9-4.2-1.9-7.5-2.1s-7.3.6-11.4 2.2-8.4 4.1-13.3 6.1c-9.6 3.9-19.4 4.7-26.1 3.3-3.4-.6-6-1.6-7.7-2.5-.9-.4-1.5-.8-1.9-1.1q-.6-.4-.6-.4c.1-.2 3.7 2.2 10.3 3.3s16.2.3 25.7-3.6c4.7-1.9 9-4.4 13.3-6 4.2-1.6 8.3-2.3 11.8-2 3.4.3 6.1 1.4 7.6 2.5.8.5 1.4 1 1.7 1.4q.6.6.5.6z" class="a"/><path d="M342.7 412.4l-.8-83.2 2.7-1.8c17.7-11.9 40.5-13.4 59.6-3.8 0 0 .5 39.1-.7 56.1-1.3 16.9-18.4 18.5-18.4 18.5l.2 13.8c.1 11.8-9.4 21.5-21.3 21.5-11.6 0-21.1-9.4-21.3-21.1z" class="f"/><path d="M384.9 402.3c-17 .5-21.4-12-21.4-12 10.9 7.8 21.6 7.6 21.6 7.6z" class="g"/><path d="M349.6 365.6c0 .4-12 5.4-13-6.9-1-12.2 9.4-10.9 9.7-10.8l3.3 17.7z" class="f"/><path d="M345.2 362.2c-.4.4-1.1.7-2 .5-1.8-.3-3.2-2.6-3.5-5-.1-1.3 0-2.5.5-3.5.3-1 1.1-2 2-2.1.5-.1.9 0 1.3.2.3.2.4.5.5.7.1.5-.1.8-.1.8-.1 0 0-.3-.2-.6-.2-.4-.7-.7-1.3-.5-.7.2-1.2.8-1.5 1.8-.3.9-.5 2-.4 3.1.3 2.2 1.5 4.2 2.9 4.5.6.2 1.2.1 1.6-.1.3-.2.5-.4.5-.4.1 0 0 .3-.3.6z" class="g"/><g class="T"><path d="M398.5 329.8c-2.5.8-5.2.4-7.6-.7-2.3-1-4.4-2.6-6.4-4.2-2 3.2-5.6 5.5-9.4 5.9-3.8.5-7.8-.8-10.5-3.5-.1 2.2-1.4 4.3-3.3 5.4-2 1-4.4 1-6.4 0q-.1 9.8-.2 19.6c0 1.8-.1 3.9-1.2 5.4-1.2 1.5-3.8 1.9-4.8.4.2-2.4.3-5-.7-7.1-1.1-2.2-3.8-3.7-5.9-2.7-.8-4-.8-7.5-.7-11.6 0-.7-.1-2.9-.5-3.5-.7-1.1-1-.2-2.2-.5-3.6-.8-6.4-4.2-6.6-7.9-.3-3.7 1.7-7.4 4.6-9.5 3-2.2 6.9-3 10.6-2.5-2.5-2.3-2.3-6.5-.1-9 2.1-2.5 5.6-3.4 8.9-3.2s7 2 7.4 5.3c.8-6.4 6.7-11.6 13.1-11.8 6.3-.2 12.5 4.8 13.6 11 4-1.7 8.7-2 12.6-.2s6.9 5.8 7 10.1c.2 4.3-1.3 10.5-5.5 11.6 0 2.6-3.4 2.4-5.8 3.2zm1.2 20.9c.1 1.3-1 2.4-2.3 2.4-1.3.1-2.4-.8-2.4-2.1-.1-1.3 1-2.3 2.3-2.4s2.4.9 2.4 2.1zm.5-2.6c-.3.3-2.1-1-4.6-1-2.6-.1-4.4 1.2-4.7.9-.2-.1.1-.7 1-1.3.8-.6 2.1-1.1 3.7-1.1s3 .6 3.7 1.2c.8.6 1.1 1.1.9 1.3zm-25.5 3.2c0 1.3-1 2.4-2.3 2.4-1.3.1-2.4-.8-2.4-2.1-.1-1.3.9-2.3 2.2-2.4s2.4.9 2.5 2.1zm.4-2.7c-.3.3-2.1-1.1-4.6-1.1-2.6 0-4.5 1.3-4.7 1-.2-.1.1-.7.9-1.3s2.2-1.1 3.8-1.1 2.9.6 3.7 1.2 1.1 1.1.9 1.3zm9.3 18.9c0-.1 1.6-.4 4.1-.7.7-.1 1.3-.2 1.4-.7.2-.5-.1-1.2-.4-1.9q-.9-2.4-1.9-5c-2.7-7.1-4.7-12.9-4.4-13s2.7 5.6 5.4 12.6q1 2.6 1.8 5c.3.8.7 1.6.4 2.6-.2.5-.7.8-1.1.9-.4.2-.8.2-1.1.2-2.6.1-4.2.1-4.2 0zm-7.5 1.8c.4-.1.4 2.7 2.8 4.7 2.3 2 5.3 1.7 5.3 2 .1.2-.6.6-1.9.6-1.2.1-3-.3-4.5-1.5-1.4-1.3-2-2.9-2.1-4-.1-1.2.2-1.8.4-1.8z"/><path d="M375.8 338.5c-.3.7-2.8.4-5.8.8-3 .3-5.4 1.1-5.8.5-.2-.3.2-.9 1.2-1.6.9-.7 2.5-1.3 4.3-1.5s3.4.1 4.5.5c1.1.5 1.7 1 1.6 1.3zm23.5 2.2c-.5.6-2.2 0-4.3-.1s-3.9.4-4.4-.2c-.1-.3.1-.9.9-1.4.8-.6 2.1-1 3.5-1 1.5.1 2.8.6 3.5 1.2s1 1.2.8 1.5z"/></g><path d="M331 323s0 .8.8 1.8c.7 1.1 2.5 2.1 4.9 2.7 2.5.5 5.6 1.1 9.1.3 1.7-.4 3.4-1.2 4.8-2.6 1.4-1.3 2.5-3.5 1.9-5.5-.3-.9-1.3-1.6-2.3-1.7-1.1-.2-2 .6-2.1 1.7-.2 2.2 1.8 4.5 4 5.5 2.3 1.1 5.2 1.1 7.7 0 2.5-1 4.8-2.9 6.5-5.2.8-1.2 1.5-2.6 1.6-4 0-1.3-.8-2.6-2.2-3-1.3-.4-2.9 0-3.9 1-.9 1.1-1.3 2.6-1 4.1.4 3.1 3.4 5.3 6.4 6.1 3.2.8 6.7.4 9.7-1.1 2.9-1.5 5.4-4 6.4-7.1.5-1.5.6-3.1-.3-4.3-.8-1.3-2.4-1.8-3.6-1.1-1.3.7-2 2.2-1.9 3.6.1 1.5.9 2.9 1.9 4 1.9 2.3 4.7 3.8 7.5 4.3 5.7 1 11.7-2.5 13.1-7.4.8-2.4-.6-5.1-2.7-5.8-2.2-.7-4.4 1.2-4.8 3.3-.5 2.1.2 4.2 1.4 5.8 1.2 1.5 2.9 2.6 4.5 3.1 1.7.5 3.4.5 4.8.1 1.5-.4 2.6-1.2 3.5-2 1.8-1.8 2.6-3.7 2.8-5s.1-2 .2-2c0 0 .2.7 0 2.1-.2 1.3-.8 3.3-2.7 5.2-.9.9-2.1 1.7-3.6 2.2-1.6.5-3.4.5-5.1 0-1.8-.6-3.6-1.7-4.9-3.3-1.3-1.7-2.1-4-1.6-6.4.2-1.2.9-2.3 1.9-3.1s2.5-1.2 3.8-.7c2.7.8 4.2 4 3.4 6.7-.8 2.8-2.9 5.1-5.4 6.5-2.5 1.5-5.7 2.2-8.8 1.7-3-.5-6-2.1-8.1-4.6-1-1.3-1.9-2.8-2.1-4.6-.1-1.8.7-3.7 2.4-4.6.8-.5 1.8-.6 2.7-.3 1 .3 1.7.9 2.2 1.7 1.1 1.5 1.1 3.6.5 5.2-1.1 3.4-3.8 6.2-7 7.7-3.2 1.6-6.9 2.1-10.3 1.2-1.7-.5-3.3-1.3-4.6-2.4-1.4-1.2-2.4-2.8-2.7-4.5-.2-1.7.2-3.6 1.4-5 1.2-1.3 3.2-1.7 4.9-1.2.8.2 1.6.7 2.1 1.5.5.7.7 1.6.7 2.5 0 1.7-.8 3.1-1.7 4.4-1.9 2.5-4.2 4.5-7 5.6-2.7 1.1-5.8 1.1-8.4-.1-1.2-.6-2.3-1.5-3.2-2.6-.7-1.1-1.3-2.4-1.2-3.8.1-.7.4-1.4 1-1.9.6-.4 1.3-.6 2-.5 1.3.1 2.5 1 2.9 2.3.7 2.5-.6 4.7-2.1 6.2-1.5 1.4-3.4 2.3-5.2 2.7-3.6.8-6.8.1-9.3-.5-2.5-.7-4.3-1.8-5-3-.4-.5-.6-1-.6-1.4q-.1-.5 0-.5z" class="U"/><path d="M356.7 551.1l30.8-.7 20.4-92.6h129.5l-25.6 99.1H356.7z" class="X"/><path d="m1132.7 676.3h14.6v175.2h-14.6z" class="U"/><g class="T"><path d="M1059.2 661.5H1223c12.6 0 22.7 10.2 22.7 22.7h-209.2c0-12.5 10.2-22.7 22.7-22.7z"/><path d="M1138.6 684.1c7.1 0 12.9.3 12.9.6 0 .2-5.8.5-12.9.5s-12.8-.3-12.8-.5c0-.3 5.7-.6 12.8-.6z"/></g><path d="m1140.3 803.1c35.5 0 64.3 28.9 64.3 64.3h-2c0-34.3-27.9-62.2-62.3-62.2-34.3 0-62.2 27.9-62.2 62.2h-2.1c0-35.4 28.9-64.3 64.3-64.3z" class="U"/><path d="M1203.6 861c5.3 0 9.7 4.3 9.7 9.6s-4.4 9.7-9.7 9.7-9.6-4.4-9.6-9.7 4.3-9.6 9.6-9.6z" class="T"/><path d="M1076.6 859.6c5.3 0 9.6 4.4 9.6 9.7s-4.3 9.6-9.6 9.6c-5.4 0-9.7-4.3-9.7-9.6s4.3-9.7 9.7-9.7zm62.5-8.6l62.5.5c0 .3-27.9.6-62.5.6-34.5 0-62.5-.3-62.5-.6s28-.5 62.5-.5z" class="U"/><path d="m1251.9 502.8v129c0 16.9-13.7 30.6-30.7 30.6h-99.4l13.5-159.6c0-7.6 6.1-13.7 13.7-13.7h89.2c7.6 0 13.7 6.1 13.7 13.7z" class="T"/><g class="U"><path d="M1216.7 661.5q0 0 .3-.4.3-.4.7-1l2.7-4.1c2.3-3.7 5.2-9.2 7.4-16.5 1.1-3.6 2-7.7 2.5-12.2.5-4.4.4-9.2.4-14.3l-.1-33 .2-59.9.2-18.2q0-3.1.1-4.9 0-1.7.1-1.7 0 0 .1 1.7 0 1.8.1 4.9l.1 18.2.2 59.9-.1 33c0 5 .1 9.9-.5 14.4-.5 4.5-1.4 8.7-2.6 12.3-2.3 7.4-5.4 12.9-7.7 16.5a64.34 64.34 0 0 1-2.9 4q-1.1 1.3-1.2 1.3z"/><path d="M1162.6 661.6c0-.1 1.1-.2 3.2-.2l8.6-.1h28.4l15.6.2c4.8.1 9.3.4 12.8 1.4a20.93 20.93 0 0 1 7.7 4c.8.7 1.3 1.3 1.6 1.7q.6.6.5.6c0 .1-.8-.7-2.4-2-1.6-1.2-4.1-2.7-7.6-3.6s-7.8-1.1-12.6-1.1l-15.6-.1-28.4-.4-8.6-.2-3.2-.2z"/></g><use xlink:href="#B" class="h"/><path d="M951.1 448.1l-4.6.5-10.4-8.7 1.6 5.4s-.9 3-1.8 3.4c-1 .3-6.1-16.8-6.1-16.8l5.4-10.4s-7.6-4.6-10.8-7.2c-3.2-2.5-.6-5.5-.6-5.5s21.6 10.9 23.8 11.3c2.3.5 13.8 12.3 13.8 12.3z" class="e"/><path d="M952.5 426.7c-.1.2-2.9-1.2-7.3-3.5h.1q-2.6-.7-5.7-1.5l.6-.4c-.1 1.5.5 3.3 1.6 4.8 1.6 2.1 3.8 3.7 5.8 4.8l.4.2-.2.4c-1.2 3.1-.8 6.1-.2 8 .5 1.9 1.2 2.9 1.1 3s-.9-.9-1.7-2.9c-.7-1.9-1.3-5-.1-8.4l.3.5c-2.2-1.1-4.5-2.7-6.3-5-1.2-1.7-1.9-3.7-1.7-5.5l.1-.6.6.1q3 .9 5.6 1.7h.1l6.9 4.3z" class="i"/><path d="m939.7 441.1c-0.4 1.5-1 3-2 4.2-2-4.2-3.5-8.6-4.5-13.1" class="e"/><g class="i"><path d="M939.7 441.1c.1 0 .1 2.1-1.7 4.5l-.4.5-.3-.6c-.7-1.2-1.3-2.7-1.9-4.2-1.9-4.9-2.5-9.1-2.2-9.1.3-.1 1.3 3.9 3.1 8.7l1.8 4.2-.8-.1c1.8-2 2.2-4 2.4-3.9z"/><path d="M939.9 424.3c.2 0 1 1.6 2.1 4.5.5 1.4 1 3.1 1.2 5.2.2 2 .1 4.3-.9 6.6-.4.9-.9 1.7-1.5 2.4l-.5.6-.3-.7c-1.7-3.6-2.8-6.9-3.4-9.4-.6-2.4-.8-3.9-.7-3.9.3-.1 1.6 5.8 5 12.9l-.9-.1q.8-1 1.4-2.2c1.7-4.2.7-8.4-.1-11.2-.9-2.9-1.5-4.6-1.4-4.7z"/></g><path d="m961.4 432.4l82 55.5-24 29.9-68.3-69.7z" class="e"/><path d="M1048.5 869.9l-.4-20.2 37.7-1 .9 29.5-2.3.2c-10.4.9-53 3.6-60 1.7-7.8-2.1 24.1-10.2 24.1-10.2z" class="V"/><g class="b W"><path d="M1073 878.3c.5-3.2 2.1-6.2 4.6-8.2s5.6-3.2 8.8-3l.3 10.6z"/></g><g class="c W"><path d="M1036.4 879.2l50.2-1.8.1.8c-19 2.2-62 3.4-63.5 1.6-1.4-1.9 9.7-5.4 9.7-5.4 2.2 0 3.5 4.8 3.5 4.8z"/></g><g class="T"><path d="M1087.2 877.3q0 0-.6.1-.9.1-1.9.2-2.8.2-6.8.5l-22.7 1-22.6.2q-4.1 0-6.9-.1-1 0-1.9 0-.6 0-.6-.1 0 0 .6 0 .9 0 1.9 0 2.8-.1 6.9-.1a683.07 683.07 0 0 0 22.6-.4c8.9-.2 16.9-.6 22.6-.9q4.1-.2 6.9-.3 1 0 1.9-.1.6 0 .6 0z"/><path d="M1036.4 879.8c-.1 0-.3-1.7-1.4-3.3-1-1.6-2.5-2.4-2.4-2.5 0-.2 1.7.5 2.8 2.3 1.2 1.7 1.1 3.5 1 3.5zm11-6c-.1.1-.7-.6-1.2-1.4-.6-.9-1-1.6-.9-1.7s.7.6 1.2 1.4c.6.9 1 1.6.9 1.7zm3-1.7c-.1.1-.7-.3-1.4-.8-.6-.6-1.1-1.2-1-1.2.1-.1.7.2 1.3.8.7.6 1.2 1.1 1.1 1.2zm1.8-3.6c0 .1-.8.3-1.9.3s-2 0-2-.2c0-.1.9-.2 1.9-.3 1.1 0 2 .1 2 .2zm.6-2.5c.1.1-.9.5-2.2.7-1.2.1-2.3-.2-2.2-.3 0-.1 1-.1 2.2-.2s2.2-.4 2.2-.2z"/><path d="M1046 870.5c0 .1-.9.2-2.4.1-.8-.1-1.7-.2-2.6-.5-.5-.2-1-.3-1.5-.6-.2-.1-.5-.3-.6-.7s0-.8.3-1c2.3-1.3 4.7 0 5.6 1.2.4.6.7 1.2.8 1.6s.1.6.1.6c-.1 0-.2-.9-1.2-2a3.79 3.79 0 0 0-2.1-1.3c-.9-.2-2.1-.3-2.9.3-.4.3-.2.7.2 1 .4.2 1 .3 1.4.5.9.3 1.8.5 2.5.6 1.5.2 2.4.2 2.4.2z"/><path d="M1045.4 870.7s-.4-.6-.3-1.7c0-.5.2-1.2.6-1.8.4-.5.9-1.3 2-1.3.5.1.8.7.7 1.1 0 .5-.2.8-.3 1.1l-1.1 1.5c-.8.8-1.4 1.1-1.4 1-.1 0 .5-.4 1.1-1.2.3-.4.7-.9 1-1.5.3-.5.5-1.4-.1-1.5s-1.2.6-1.6 1.1a5.85 5.85 0 0 0-.6 1.5c-.2 1 .1 1.7 0 1.7zm40.8-3.7c0 .1-1.1-.1-2.8.2-1.7.2-4 1-6 2.7s-3.2 3.8-3.7 5.4c-.5 1.7-.5 2.8-.6 2.8s-.1-.3-.1-.8l.4-2.1c.5-1.6 1.6-3.9 3.7-5.7 2.1-1.7 4.5-2.5 6.2-2.6.9-.1 1.6-.1 2.1 0 .5 0 .8.1.8.1z"/><path d="M1081.8 851.4c.1 0 .4 3.5.6 7.8v7.7c-.1 0-.3-3.4-.5-7.7l-.1-7.8zm-13.6 23.3c0 .1-2.5.6-5.5.7-3.1.1-5.6-.1-5.6-.3.1-.1 2.5 0 5.6-.1l5.5-.3zm7.4-.2c.1.1-.2.5-.5 1.1-.2.6-.3 1.1-.4 1.1-.2 0-.3-.6 0-1.3.3-.6.8-1 .9-.9zm2.7-3.5c0 .1-.2.5-.6.9-.3.4-.7.6-.8.5-.1 0 .1-.4.5-.9.4-.4.8-.6.9-.5zm3.9-1.7c0 .1-.5.1-1.1.3-.5.2-.9.5-1 .5-.1-.1.2-.7.9-.9.7-.3 1.2 0 1.2.1zm2.8-.9c.1.2-.1.4-.5.5-.3.1-.6.1-.6 0s.2-.3.5-.4c.3-.2.6-.2.6-.1z"/></g><path d="M957.3 762.1l8.8-18.2 34.1 16.2-12.5 26.7-2.2-.9c-9.7-3.9-48.9-20.7-54.3-25.6-6-5.4 26.1 1.8 26.1 1.8z" class="V"/><g class="b W"><path d="M975.4 780.7c1.9-2.7 4.7-4.6 7.8-5.2 3.1-.7 6.4-.3 9.2 1.3l-4.5 9.5z"/></g><g class="c W"><path d="M942.3 764.9L988 786l-.3.8c-17.9-6.6-56.9-25.1-57.4-27.3-.4-2.3 11.1-.4 11.1-.4 1.9 1 .9 5.8.9 5.8z"/></g><g class="T"><path d="M988.5 786.2q0 .1-.6-.2-.8-.3-1.7-.7-2.6-1.1-6.4-2.6c-5.3-2.3-12.6-5.6-20.6-9.4l-20.3-10q-3.6-1.9-6.1-3.2-.9-.5-1.7-.9-.5-.3-.5-.3 0 0 .6.2.7.4 1.7.9 2.5 1.2 6.1 3l20.4 9.9 20.6 9.5q3.7 1.6 6.2 2.8 1 .4 1.7.7.6.3.6.3z"/><path d="M942.1 765.4c-.1 0 .5-1.6.2-3.5-.2-1.9-1.1-3.3-1-3.4s1.3 1.3 1.5 3.4c.2 2-.6 3.6-.7 3.5zm12.5-.3c-.1 0-.3-.8-.5-1.8-.1-1.1-.1-1.9 0-1.9.2 0 .4.8.5 1.8s.1 1.9 0 1.9zm3.4-.2c-.1.1-.4-.5-.8-1.3-.3-.9-.5-1.5-.4-1.6.1 0 .5.6.8 1.4.4.8.6 1.5.4 1.5zm3.3-2.4c0 .1-.9-.1-1.9-.6-1-.4-1.7-.9-1.7-1 .1-.1.9.1 1.9.6s1.8.9 1.7 1zm1.7-2c0 .2-1.1.1-2.3-.3-1.2-.5-2-1.2-1.9-1.3s.9.4 2.1.9l2.1.7z"/><path d="M954.8 761.6s-.9-.3-2.2-1.1c-.6-.4-1.3-.9-2-1.6-.4-.4-.8-.7-1.1-1.2a.96.96 0 0 1-.2-.9c0-.4.4-.7.7-.8 2.6-.1 4.2 2.1 4.4 3.6.2.7.1 1.4 0 1.8 0 .4-.1.6-.2.6s.3-.9-.1-2.4a5.47 5.47 0 0 0-1.3-2.1c-.7-.6-1.7-1.1-2.7-1-.5.1-.5.6-.2 1 .2.4.6.7 1 1.1.6.7 1.3 1.2 1.9 1.6 1.2.9 2.1 1.3 2 1.4z"/><path d="M954.2 761.4s-.1-.7.5-1.6c.3-.5.7-1 1.3-1.4.7-.3 1.5-.7 2.4-.2.5.3.4 1 .2 1.3-.2.4-.6.6-.8.8-.6.4-1.2.7-1.7.9-1 .3-1.7.3-1.7.2 0 0 .6-.1 1.6-.6.4-.2 1-.4 1.5-.8s1.1-1.1.6-1.4c-.5-.4-1.3-.1-1.9.2-.5.3-1 .7-1.2 1.1-.6.8-.7 1.5-.8 1.5zm38 15.2s-.9-.6-2.5-1.1c-1.6-.6-4.1-1-6.6-.4s-4.5 2.1-5.7 3.3-1.8 2.1-1.8 2.1c-.1 0 0-.3.3-.7.2-.4.6-1 1.2-1.7a11.54 11.54 0 0 1 5.9-3.4c2.7-.6 5.2-.2 6.8.5.8.3 1.4.6 1.8.9.5.3.7.5.6.5z"/><path d="M995.4 760.7c.1.1-1.2 3.3-3 7.1l-3.4 7c-.2 0 1.2-3.2 3-7.1l3.4-7zm-22.7 14.6c0 .1-2.4-.6-5.2-1.9-2.8-1.2-4.9-2.6-4.8-2.7s2.2 1.1 5 2.3l5 2.3zm6.7 3.2c0 .1-.4.3-.9.8-.5.3-.8.7-.9.7-.1-.1.1-.6.6-1.1.6-.5 1.2-.6 1.2-.4zm4-2c0 .1-.3.4-.9.6-.5.2-.9.2-1 .1 0-.1.4-.4.9-.6.5-.1 1-.2 1-.1zm4.3.3c-.1.1-.5-.1-1.1-.2s-1.1.1-1.2-.1c0-.1.5-.4 1.2-.3.7 0 1.2.5 1.1.6zm2.9.5c0 .2-.3.2-.6.2-.4 0-.6-.1-.6-.3 0-.1.2-.2.6-.1.3 0 .6.1.6.2zm216.2-281.1c0 .3-9.8.6-21.9.7-12 0-21.8-.2-21.8-.5 0-.4 9.8-.7 21.8-.7 12.1 0 21.9.2 21.9.5z"/></g><path d="M1183.6 498.3l-2.2 55.2c9.1 14.2 15.2 30.6 17.5 49.7l-118.4 4.8 11.4-52.8-3.4-32.6s-11.2-5-11.2-15.7c0-10 5.1-18.3 5.1-18.3l-38.2 31.5-16.1-40.5 38.3-42.3c16.6-18.7 43.4-15 43.4-15l36.3.5s46.2 2.3 52.1 35.3l8 40.2z" class="V"/><path d="M1078.1 499.5c-.1-.1.5-2.2 1.5-5.5l1.8-5.8q.6-1.6 1.3-3.4l.8-1.7c.2-.5.2-1.1.2-1.7 0-1.2-.3-2.5-.6-3.7q-.3-1.9-.6-3.6-.6-3.2-1.1-6l-.6-5.6c.1 0 .7 2.1 1.4 5.5q.6 2.7 1.3 5.9.4 1.7.8 3.6c.2 1.2.5 2.4.6 3.9 0 .7-.1 1.4-.3 2.1l-.8 1.8q-.8 1.7-1.4 3.3-1.1 3-2 5.7c-1.2 3.2-2.1 5.2-2.3 5.2z" class="T"/><g class="d"><path d="M1168 527.1c-2 1.6-5.1 2.3-8.4 2.6-.5-22.5-1.3-43.1-2.8-65.6 5.1 24.2 12.4 53.4 11.2 63z"/></g><g class="U"><path d="M1188.2 665c-18.9 3.9-127.3-35.7-127.3-35.7L1001 774.5l-55.6-24s69.1-170.8 84.1-177.9 169.7 25.3 169.7 25.3 7.9 63.1-11 67.1z"/><path d="M1188.2 665l-99.4 25.2 3.2 174.6h-51s-15.5-196.5-9.2-208.3c6.4-11.9 95.9-48.7 98.3-49.4z"/></g><g class="T"><path d="M1188.7 665.4q0 0-1.5-.2-1.6-.3-4.1-.7l-15.3-3.1c-12.8-2.7-30.5-6.8-49.8-12.3-9.6-2.8-18.7-5.7-27-8.6-8.2-2.9-15.5-5.6-21.5-8.2-3.1-1.2-5.8-2.4-8.2-3.5q-3.6-1.6-6-2.9-2.4-1.1-3.8-1.9-1.3-.7-1.3-.7 0-.1 1.4.5 1.5.7 3.9 1.7 2.5 1.2 6.1 2.7c2.4 1 5.1 2.2 8.2 3.3 6 2.5 13.4 5.2 21.6 8s17.3 5.7 26.9 8.4c19.3 5.6 36.9 9.8 49.7 12.7l15.2 3.4q2.5.6 4.1 1 1.4.3 1.4.4zm-156.8 36.2c-.1 0-.3-1-.5-2.9q-.3-3.2-.9-8.1l-1.1-12c-.3-4.4-1-9.5 0-14.8s4.1-9.7 7.4-12.8c3.4-3.1 7.1-5.1 10.2-6.5 3.2-1.5 5.8-2.4 7.6-3s2.8-.9 2.8-.8c.1.2-3.9 1.6-10 4.5-3 1.5-6.6 3.6-9.8 6.6-3.3 3-6.1 7.2-7 12.3-1 5-.4 10-.1 14.5l.9 11.9q.3 4.9.4 8.1a63.45 63.45 0 0 1 .1 3zm44.6-16.9c.2-.3 3 .7 6.3 2.1 3.3 1.5 5.9 2.9 5.8 3.2s-2.9-.6-6.3-2.1c-3.3-1.4-5.9-2.9-5.8-3.2z"/><path d="M1081 679.4c.3-.2 1.7 2.6 4.1 5.7l4.4 5.5c-.2.2-2.9-1.6-5.4-4.8-2.4-3.2-3.4-6.3-3.1-6.4z"/><path d="M1100.6 687.4s-.2.4-.8.8-1.7.7-3 .7c-1.2.1-2.7-.1-4.2.1s-2.5 1.4-2.5 3.3c-.1 7.4-.3 13.6-.7 13.6-.3-.1-.6-6.1-.5-13.7.1-1 .3-2.1 1-2.9.6-.8 1.7-1.2 2.5-1.3 1.8-.2 3.2.1 4.4.1 2.5.2 3.7-.8 3.8-.7z"/></g><path d="m1089.4 566.8l100 1.5 4.5 11.8-105.5-8.5z" class="d"/><path d="M1104.2 326c9.3 7.6 12.6 20.9 10.4 32.7s-9.1 22.2-17.2 31.1c-.8.8-1.7 1.8-2.9 1.9-1.6.3-3-1-4.1-2.3-7.1-8.1-9.6-19-11.6-29.6-4.4-24.2 4.5-29.4 12.3-31.9" class="T"/><path d="M1105.9 433.1l-.7-23.1s-17-2.1-17.7-19.4-.9-47.7-.9-47.7l33.1-24.5 23.2 32 .6 82.1a18.76 18.76 0 0 1-18.8 19c-10.2 0-18.5-8.2-18.8-18.4z" class="e"/><path d="M1105.2 410s11.3.3 22.4-7.4c0 0-5.2 12.6-22.1 11.6zm1.5-20.2c-.3-.6-.2-1.4.2-2s1.2-.9 1.9-.8c.1-1.6 1.6-2.9 3.2-2.9 1.6.1 3 1.4 3.3 3 .3 1.5-.5 3.2-1.8 4.1a5.31 5.31 0 0 1-4.6.3c-1.2-.5-2.2-1.5-2.3-2.7" class="i"/><g class="T"><use xlink:href="#C"/><path d="M1091.1 360.7c.8-.6 2.1-1.2 3.7-1.2s3 .6 3.8 1.1c.8.6 1.1 1.2 1 1.3-.3.4-2.2-1-4.7-.9-2.6 0-4.4 1.3-4.7 1-.1-.2.1-.7.9-1.3z"/><use xlink:href="#C" x="25" y="0.6"/><path d="M1116.2 361.2c.8-.6 2.1-1.2 3.7-1.2s3 .5 3.8 1.1 1.1 1.2 1 1.3c-.3.3-2.2-1-4.7-1-2.6 0-4.4 1.4-4.7 1.1-.1-.2.1-.7.9-1.3zm-14.4 20.2c-.3 0-.6 0-1.1-.2-.4-.1-.9-.4-1-.9-.4-1 .1-1.8.3-2.6q.9-2.4 1.8-5c2.7-7 5.1-12.7 5.4-12.6s-1.6 5.9-4.3 13q-1 2.6-1.9 5c-.4.7-.6 1.4-.5 1.9s.7.6 1.4.7c2.6.3 4.2.6 4.1.7 0 .2-1.6.1-4.2 0zm12.2 3.6c-.1 1.1-.8 2.8-2.2 4-1.5 1.2-3.2 1.6-4.5 1.5-1.2 0-1.9-.4-1.9-.6 0-.3 3 0 5.4-2 2.3-2 2.4-4.8 2.8-4.7.2 0 .5.6.4 1.8zm1.7-29.6c1.1-.4 2.8-.7 4.6-.5s3.3.8 4.3 1.5c.9.7 1.4 1.3 1.2 1.6-.4.7-2.8-.2-5.8-.5-3-.4-5.6-.1-5.8-.7-.1-.4.4-.9 1.5-1.4zm-23.8-2.3c.8-.6 2-1.1 3.5-1.2 1.4 0 2.7.4 3.5 1 .8.5 1.1 1.1.9 1.4-.4.6-2.2.1-4.3.2s-3.9.7-4.4.1c-.2-.3.1-.9.8-1.5zm23.7-2.7l-1.4-1.4c-9.7.3-23.8-5.9-24.7-15.6-.5-6.9 6.5-12.4 6.5-12.4 4.6-3.6 10.4-5.3 16.3-5.7 13-.9 27.1 7.6 35.6 17.7 7.1 8.5 10.6 20.2 7.8 31-1 3.8-3.8 21-7.8 21.6-4.3.6-7.6-16.4-9-20.5s-1.4-8.7-2.9-12.7c-2.3 2-5.3 2.9-8.4 3-4.5.1-8.8-1.9-12-5z"/><path d="M1086.1 353.4c-.2.2.6-.5.4-.3-1.1-6.4 0-13.1 3.1-18.8.4-.7 1.1-1.6 1.9-1.4.9.3 1 1.4 1 2.3-.2 3.1-.4 6.2-1.2 9.2s-2.3 5.9-4.8 7.8m70.5 84c.1 4.9-1.8 9.7-4.3 13.9 1.3 2.9 2 6.1 2 9.2-.1 7-3 13.6-6 19.8 2.9 5.3 4.4 11.7 2.2 17.3-1.1 2.9-3.5 5.3-6.2 6.7q.1.2.3.3c1.2 1.7 1.6 3.7 2 5.6q1.2 5.5 2.4 10.9c-1.9.1-3.9-.6-5.5-1.7.7 1.3 1.9 2.5 3.3 3.1-2.6 1.7-5 3.7-7.2 5.9-4.6-2-8-6.6-8.6-11.6a14.36 14.36 0 0 1 4.9-12c-4.5-2-6.8-7.4-6.1-12.3.6-4.9 3.7-9.2 7.3-12.6-4-4.8-5.9-11.4-4.9-17.6.6-4.3 2.7-8.4 5.7-11.6q-.1-.2-.2-.4c-3.5-8-2.3-17.9 3.1-24.8-7.9-7.9-8.1-22.3-.3-30.4-10.2-12-12.3-30.2-5.3-44.2l1.5-.5c3-4.1 9.6-4.2 13.7-1.2 4.2 3 6.2 8.1 7.1 13.2 1.1 6.3.5 13-1.5 19.1-1.3 3.7-3.2 7.4-3.3 11.3-.3 5 2.2 9.7 2.8 14.7.8 6.5-1.8 13.4-6.8 17.7 4.8 1.8 7.7 7.1 7.9 12.2z"/></g><g class="U"><path d="M1146.9 478.6c.2.2-1.7 1.7-4.6 1.7s-4.9-1.4-4.7-1.6c.1-.3 2.1.6 4.7.5 2.5 0 4.5-.9 4.6-.6zm4.5-24.8c.2.3-5.5 2.7-9.9 8.6-4.5 5.7-5.4 11.8-5.8 11.7-.1 0 0-1.5.6-3.9.7-2.3 2.1-5.5 4.4-8.5s5-5.1 7.1-6.3c2.1-1.3 3.6-1.7 3.6-1.6zm-2-3.4c.2.2-1.7 1.6-4.5 1.6s-4.8-1.4-4.6-1.6c.1-.3 2.1.6 4.6.6s4.4-.9 4.5-.6zm3.2-3.4c-.4 0 0-5.2-2.8-10.7-2.7-5.6-7.1-8.4-6.9-8.7.1-.1 1.3.5 2.9 1.8 1.6 1.4 3.5 3.6 4.9 6.4 1.5 2.9 2 5.8 2.1 7.9.2 2-.1 3.3-.2 3.3zm-2.6-25.8c.2.1-.9 1.8-3 2.6-2.2.9-4.1.4-4 .1 0-.3 1.7-.3 3.6-1 1.9-.8 3.1-1.9 3.4-1.7zm-6.2 1.1c-.1.1-1.4-1.1-2.2-3.6-.9-2.6-1-6.5.4-10.4 1.5-3.8 3.9-6.7 5.7-8.6 1.8-2 3-3 3.1-2.9s-.9 1.3-2.6 3.3c-1.6 2.1-3.8 4.9-5.2 8.6-1.4 3.6-1.4 7.3-.7 9.7.6 2.5 1.6 3.8 1.5 3.9zm7.2-28c.1.3-2.2 1.1-5 .5-2.8-.5-4.5-2.2-4.4-2.4.2-.2 2.1.9 4.6 1.4 2.6.6 4.7.2 4.8.5zm8-27.5c0 .1-1.8.6-4.6.4-2.9-.2-6.9-1.2-10.6-3.6-3.7-2.5-6.2-5.8-7.5-8.3-1.3-2.6-1.6-4.4-1.5-4.4s.7 1.6 2.1 4c1.5 2.4 3.9 5.5 7.5 7.8 3.5 2.3 7.3 3.4 10 3.7 2.8.4 4.6.3 4.6.4zm-1.6 10.3c.1.1-.4.5-1.3.9-1 .4-2.5.7-4.3.4-3.7-.6-8.2-3.4-11.8-7.7-3.5-4.3-5.2-9.2-5.7-12.8-.2-1.8-.2-3.3-.2-4.3.1-1 .2-1.6.3-1.6.2.1 0 2.3.7 5.8.6 3.4 2.3 8.1 5.7 12.3 3.4 4.1 7.7 6.9 11.1 7.5 3.5.8 5.5-.7 5.5-.5zm-3.7-31.6s-.6.4-1.9.9-3.3 1.1-5.9 1.3c-2.5.3-5.7.1-9-.8-3.4-1-6.9-2.8-9.9-5.7l.5.2c-2.2.7-4.6 1.2-7.1 1.3-4.9.3-9.7-.8-13.6-2.8-3.8-1.9-6.7-4.7-8.7-7.2-2-2.6-3.1-5-3.7-6.7q-.5-1.3-.7-2-.1-.7-.1-.7c.3-.1 1.1 3.9 5.1 8.9 2 2.4 4.8 5 8.6 6.9a26.54 26.54 0 0 0 13.1 2.6c2.4-.1 4.6-.6 6.8-1.3l.3-.1.2.2c2.8 2.7 6.2 4.6 9.4 5.5 3.2 1 6.3 1.2 8.8 1.1 5-.3 7.8-1.9 7.8-1.6zm-7.7-14c0 .1-.7.2-2.1.4l-5.7.5-8.4.7c-3.2.2-6.7.5-10.4.1-7.5-.8-13.7-4.1-17.5-7.1a28.13 28.13 0 0 1-4.2-3.8c-.9-1.1-1.3-1.7-1.3-1.7.2-.2 2.1 2.2 5.9 5 3.9 2.7 10 5.8 17.2 6.6 3.6.4 7.1.1 10.2-.1 3.2-.1 6-.3 8.5-.4l5.7-.2c1.3-.1 2.1-.1 2.1 0zm.9 169.6c.2.2-1.8 2-5.1 2.2-3.2.2-5.4-1.3-5.2-1.5.1-.3 2.3.7 5.2.5s4.9-1.4 5.1-1.2z"/><path d="M1142.9 504.2c-.2 0 .1-1.2.3-3.1.1-1.9 0-4.6-.9-7.4a19.32 19.32 0 0 0-3.4-6.6l-1.9-2.4c0-.1 1.1.5 2.5 1.9 1.4 1.5 2.9 3.9 3.8 6.8a18.15 18.15 0 0 1 .6 7.8c-.4 1.9-.9 3-1 3z"/></g><use xlink:href="#B" class="e"/><path d="M1030.6 455.9l29.1 93.7 63.2 1.9 1.1 5.2H967.9l-34.5-100.8z" class="X"/><path d="M1002.6 503.3c1 4.1-.8 8.1-4 9-3.2.8-6.6-1.8-7.7-5.9-1-4.2.8-8.2 4-9.1 3.2-.8 6.6 1.8 7.7 6z" class="W"/><path d="M1214.6 556.7v13H813v294.5h-91V569.7H319.4v-13z" class="T"/><path d="m706.9 871.3l-2-100.8 38.6-6.4-6 106.8z" fill="#eb996e"/><path d="M760.8 879.8c-6.1 2-43.8 1.4-53 1.1l-2.1-.1-.2-11.7 33.5-.9.1 3.6s28.5 5.8 21.7 8z" class="V"/><g class="c W"><path d="M705.7 880.3l-.2-9.3c2.8-.3 5.6.6 7.9 2.3 2.2 1.6 3.8 4.2 4.4 7z"/></g><g class="c W"><path d="M753 875.1s10.1 2.6 8.9 4.3c-1.3 1.7-39.4 2.5-56.2 1.4v-.7l44.5-.6s.9-4.3 2.8-4.4z"/></g><g class="T"><path d="M705.8 880q.7 0 1.6 0 2.5 0 6.1 0l20-.2 20.1-.6q3.5-.2 6-.3.9 0 1.7-.1.5 0 .5.1 0 0-.5 0-.8.1-1.7.2-2.4.1-6 .3c-5.2.3-12.2.6-20.1.8-7.8.2-14.9.2-20 .1q-3.6-.1-6.1-.1-.9-.1-1.6-.1-.6 0-.6 0 0-.1.6-.1z"/><path d="M750.9 876.9c.9-1.6 2.4-2.3 2.4-2.2.1.1-1.2.9-2 2.4-.9 1.5-1 2.9-1.1 2.9s-.2-1.5.7-3.1zm-10-3.2c.5-.8.9-1.4 1-1.3.1 0-.2.7-.6 1.5-.5.8-1 1.4-1.1 1.3s.2-.7.7-1.5zm-2.5-1c.5-.5 1.1-.9 1.1-.8.1.1-.3.6-.8 1.1-.6.6-1.1.9-1.2.8-.1 0 .3-.5.9-1.1zm-.9-2.2c.9 0 1.7.1 1.7.2s-.8.2-1.7.2c-1 0-1.8-.1-1.8-.2s.8-.2 1.8-.2zm-.4-1.9c1 .1 1.9 0 1.9.1.1.1-.8.4-2 .3-1.1 0-1.9-.4-1.9-.5s.9.1 2 .1z"/><path d="M743.4 871.9a12.3 12.3 0 0 0 2.2-.6c.4-.2.8-.3 1.2-.5.4-.3.5-.7.1-.9-.7-.5-1.8-.4-2.5-.1-.8.2-1.4.7-1.8 1.2-.8 1-.9 1.9-1 1.8 0 0 0-.2.1-.5.1-.4.2-.9.6-1.5.8-1.1 2.8-2.3 4.9-1.2a.76.76 0 0 1 .3.8c0 .3-.3.5-.5.7-.4.3-.9.4-1.3.6l-2.3.5c-1.3.2-2.1.1-2.1.1 0-.1.8-.1 2.1-.4z"/><path d="M741.8 870.9c-.1-.4-.3-.9-.6-1.4-.4-.4-.9-.9-1.5-.8-.5.1-.3.9 0 1.3q.5.8.9 1.3c.6.7 1.1 1 1.1 1 0 .1-.6-.2-1.3-.8-.3-.3-.7-.8-1-1.3-.2-.2-.3-.6-.4-.9-.1-.4.1-1 .6-1 1-.1 1.5.5 1.9 1 .3.5.5 1.1.6 1.6.1.9-.2 1.5-.2 1.5-.1 0 .1-.6-.1-1.5zm-35.5-.2c.5 0 1.1-.1 1.9 0 1.5 0 3.7.6 5.6 2 1.9 1.5 3 3.5 3.5 4.9.3.8.4 1.4.4 1.8q.1.7 0 .7s-.1-1-.7-2.4a10.75 10.75 0 0 0-3.4-4.7c-1.9-1.4-4-1.9-5.5-2.1-1.5-.1-2.4.1-2.4 0q0 0 .6-.2zm20.5 6.2l4.9-.1c0 .1-2.2.5-4.9.5s-4.9-.3-4.9-.4 2.2 0 4.9 0zm-10.6.9c.2.6.2 1.1.1 1.1-.1.1-.3-.4-.5-.9s-.5-.9-.4-.9c0-.1.5.2.8.7zm-2.6-3.3c.4.4.6.7.5.8s-.4-.1-.8-.5c-.3-.3-.5-.7-.5-.7.1-.1.5.1.8.4zm-3.2-1.9c.6.2.9.7.8.7-.1.1-.5-.2-1-.3-.5-.2-.9-.2-.9-.3-.1-.1.5-.3 1.1-.1zm-3.1-.5c.3.1.5.3.5.4-.1.1-.3.1-.6 0s-.5-.3-.4-.4c0-.1.2-.1.5 0z"/></g><path d="m749.4 870.7l-2.6-102.3 38.8-4.3-5 106.4z" class="h"/><path d="M645.9 584c37.8.2 75.7.5 113.4 3.9 15.1 1.4 31.3 3.9 41.8 14.7 9.8 10.2 12.1 25.3 13.9 39.3q8.2 64.2 16.5 128.3c-52.3 5.3-105.3 3.6-157.1-5q.6-47.7 1.1-95.3l.8-15-58.3-3.8z" class="V"/><path d="M774.6 633.6c-.3-.1 1.4-4.3 3.7-9.3 2.4-5 4.5-8.9 4.8-8.8.2.1-1.5 4.3-3.8 9.3-2.4 5-4.5 8.9-4.7 8.8zm18.8 42.9c-.2.2-2.8-2.7-5.7-6.5s-5.1-7-4.8-7.2c.2-.2 2.7 2.8 5.6 6.6 3 3.7 5.1 7 4.9 7.1zm-6.7 25.3c.2.2-2.3 2.8-5.4 5.8-3.2 3-5.9 5.3-6.1 5.1s2.2-2.9 5.4-5.9c3.1-2.9 5.9-5.2 6.1-5zm28 25.4c-.3.1-1.4-3.6-2.6-8.2-1.1-4.6-1.8-8.4-1.5-8.4.2-.1 1.4 3.6 2.5 8.2 1.2 4.6 1.9 8.4 1.6 8.4zm-23.5 27c-.3 0-1.6-3-3-6.9-1.4-3.8-2.3-7-2-7.1s1.6 2.9 3 6.8c1.4 3.8 2.3 7.1 2 7.2zm-29.8-69.5c.3.1-.4 4-1.5 8.7s-2.3 8.5-2.6 8.4c-.2-.1.4-3.9 1.6-8.7 1.1-4.7 2.2-8.5 2.5-8.4z" class="a"/><g class="T"><path d="m723.3 545.1h154v7.5h-154z"/><path d="M783.6 552.6l26.2-108.3H930l-28.8 108.3z"/></g><path d="M815.3 449.3h108l-25 95.1H790.8z" class="Y"/><path d="m890.1 467.7l-7.6 27h-71.2l6.7-27z" class="X"/><path d="M875.1 464.2c0 .3-12.5.5-27.9.5s-27.9-.2-27.9-.5 12.5-.5 27.9-.5 27.9.2 27.9.5z" class="U"/><path d="M842.6 472.9c0 .3-5 .5-11.2.5s-11.3-.2-11.3-.5 5.1-.5 11.3-.5 11.2.2 11.2.5zm18.1-.4c0 .2-3.3.5-7.4.5-4 0-7.3-.3-7.3-.5 0-.3 3.3-.6 7.3-.6 4.1 0 7.4.3 7.4.6z" class="T"/><path d="M881 477.8c0 .3-13.7.5-30.7.5s-30.8-.2-30.8-.5 13.8-.6 30.8-.6 30.7.3 30.7.6z" class="U"/><path d="M838.2 482.2c0 .3-4.5.5-10 .5s-10-.2-10-.5 4.5-.5 10-.5 10 .2 10 .5z" class="V"/><path d="M875.5 488.6c0 .3-12.8.5-28.5.5-15.8 0-28.6-.2-28.6-.5s12.8-.5 28.6-.5c15.7 0 28.5.2 28.5.5zm-42 13.8c0 .3-4.9.5-11 .5s-11.1-.2-11.1-.5 5-.5 11.1-.5 11 .2 11 .5z" class="U"/><path d="M852.4 502.5c0 .3-3.4.5-7.5.4-4.2 0-7.6-.3-7.6-.6 0-.2 3.4-.4 7.6-.4 4.1 0 7.5.3 7.5.6zm10.6-.5c0 .2-1.4.5-3.2.5-1.7 0-3.2-.3-3.2-.5 0-.3 1.5-.6 3.2-.6 1.8 0 3.2.3 3.2.6z" class="T"/><path d="M818.9 507.9c0 .3-1.6.5-3.5.5-2 0-3.5-.2-3.5-.5s1.5-.5 3.5-.5c1.9 0 3.5.2 3.5.5z" class="V"/><path d="M839.9 507.9c0 .3-3.8.5-8.4.5s-8.4-.2-8.4-.5 3.8-.5 8.4-.5 8.4.2 8.4.5z" class="T"/><path d="M890 507.3c0 .3-10.1.5-22.4.5-12.4 0-22.4-.2-22.4-.5s10-.6 22.4-.6c12.3 0 22.4.3 22.4.6z" class="U"/><path d="M817.8 513.6c0 .3-1.6.6-3.6.6s-3.6-.3-3.6-.6 1.6-.5 3.6-.5 3.6.2 3.6.5zm11-.2c0 .3-1.9.5-4.3.5s-4.4-.2-4.4-.5 2-.5 4.4-.5 4.3.2 4.3.5z" class="T"/><path d="M861.7 513c0 .3-6.3.5-14.1.5s-14.1-.2-14.1-.5 6.3-.5 14.1-.5 14.1.2 14.1.5zm-17.4 10c0 .3-7.6.5-17.1.5-9.4 0-17-.2-17-.5s7.6-.6 17-.6c9.5 0 17.1.3 17.1.6z" class="U"/><path d="M864.3 522.5c0 .3-3.5.6-7.8.6-4.2 0-7.7-.3-7.7-.6 0-.2 3.5-.5 7.7-.5 4.3 0 7.8.3 7.8.5z" class="V"/><path d="M893.9 522.5c0 .3-5.8.6-12.9.6-7 0-12.8-.3-12.8-.6 0-.2 5.8-.5 12.8-.5 7.1 0 12.9.3 12.9.5zm-6.9-58.7c0 .2-1.2.5-2.7.5-1.4 0-2.6-.3-2.6-.5 0-.3 1.2-.6 2.6-.6 1.5 0 2.7.3 2.7.6z" class="T"/><path d="M832.9 460.2c0 .2-2.6.5-5.9.5-3.2 0-5.8-.3-5.8-.5 0-.3 2.6-.6 5.8-.6 3.3 0 5.9.3 5.9.6z" class="V"/><path d="M921.5 456.2h-108l1.8-6.9h108z" class="Z"/><path d="M821 452.8c0 .6-.5 1.2-1.2 1.2-.6 0-1.2-.6-1.2-1.2 0-.7.6-1.2 1.2-1.2.7 0 1.2.5 1.2 1.2zm4.1 0c0 .6-.6 1.2-1.2 1.2-.7 0-1.2-.6-1.2-1.2 0-.7.5-1.2 1.2-1.2.6 0 1.2.5 1.2 1.2zm4 0c0 .6-.5 1.2-1.1 1.2-.7 0-1.2-.6-1.2-1.2 0-.7.5-1.2 1.2-1.2.6 0 1.1.5 1.1 1.2z" class="a"/><g class="h"><path d="M732.4 479l18.7 47.7 78.3 11.2v19.3h-85.7c-13.3 0-24.2-2.2-28.4-14.7L699.9 496z"/><path d="M838.9 533.9l6.8-3.2s7.3-14.2 9-13.6c1.7.5 2.2 4.7-.8 11.2l9.1-2.6s19.6 9.1 18.7 10.3c-.8 1.2-2.5 4.1-6.7 1.9l-9.9-4.7-10.6 3 13.7 1.7 12.8 11.7s-4.2 3.2-7.9-.2l-33.2 7.2-10.5.6v-19.3z"/></g><path d="M873.1 549.4c-.1.1-.7-.9-1.9-2.2-.6-.6-1.4-1.3-2.4-1.9-1-.5-2.3-.7-3.6-.9-5.6-.7-10.1-1.4-10-1.7 0-.3 4.5 0 10.1.7 1.4.1 2.8.4 3.9 1.1s2 1.5 2.5 2.2c1.2 1.6 1.5 2.7 1.4 2.7zm-5.2 1.3c-.1 0-.2-.6-1.1-.8-1-.2-2.5-.4-4.1-.6-3.2-.3-5.8-.3-5.8-.6-.1-.2 2.6-.7 5.9-.4 1.7.2 3.1.5 4.2.9.6.2 1 .7 1 1 .1.4 0 .6-.1.5z" fill="#eb996e"/><path d="M699.5 316.4s-2.5 65.9-5.2 74.4c-4.3 13.1-18.6 9.6-18.6 9.6l-2.2 22.9-40.4-3.8 4.6-94.3z" class="h"/><g class="T"><path d="M703 327.4c1.1 8.8-11.2 13.9-11.2 13.9l-2.2 20.9c-1.7-.3-5.8 0-5.8 0 1-9.8-11.6-7.9-12.9-1.2-1.2 6.4 6.1 10.7 6.1 10.7-5 7.7-7.1 11.8-14.2 19.1-7.8 7.8-12 8.5-20 8.2l-8.8-.4s-3.2-7.5-5.5-25.3c-1.1-8.6-7.8-19.8-5.9-33.7 5.5-39.6 43.4-35.4 43.4-35.4 19.7.5 34.4 2.7 37 23.2z"/><path d="M673.9 305.3c8.6.2 17.5.9 25 5s13.6 15.1 12 23.5c-1.4.3-3 .9-4.4 1.1-.6-1-1.3-4.9-1.9-6 0 1.7-.5 5.5-.5 7.2-2.5.7-4.4-.7-7 0-1.1-6.4-3.3-12.7-6.6-18.3"/></g><path d="M691.2 542.6l11.9 69.4-116.7-3.9L592 529c0-37.7-7.9-66.4-4.4-84 4.7-23 35.1-32.9 58.6-33.1 11.5-.2 26.4 1.6 40.1 3.9 19.5 3.2 36 16.5 43.4 35l27.6 67.3-46.5 10.9-7.7-25.3z" class="V"/><g class="d"><path d="M583.5 519.4c14.6 3 29.7 0 44.6-.9 9-.5 19.1-1.5 26.2 4 5.7 4.5 8 11.9 9.6 18.9 3.6 15.1 6 46.5 7.7 75.7 1.1 19.8 12.7 37.4 30.4 46.2 4.7 2.3 17 2.4 17.1 3.9l-119.6 4.9z"/></g><g class="U"><path d="M668.7 852.6h-14.6V677.3h14.6zM545 493.5h89.2c7.6 0 13.7 6.1 13.7 13.7v159.6H562c-16.9 0-30.7-13.7-30.7-30.6v-129c0-7.6 6.2-13.7 13.7-13.7z"/><path d="m763.5 677.3h-209.2c0-12.6 10.2-22.7 22.7-22.7h163.8c12.6 0 22.7 10.1 22.7 22.7z"/></g><path d="M647.9 651.6q.1 0 .1 1c0 .6-.1 1.6-.4 2.8-.5 2.4-2 5.9-5.6 8.7-1.8 1.3-4 2.5-6.6 2.9-2.7.5-5.4.3-8.3.3l-18.8.1c-13.3 0-25.4 0-34.2-.1l-10.3-.2q-1.7 0-2.8-.1-1 0-1-.1 0 0 1-.1 1.1 0 2.8-.1c2.6-.1 6.1-.1 10.3-.2l34.2-.2h18.8c2.9 0 5.7.2 8.1-.2 2.5-.3 4.6-1.4 6.4-2.6 3.4-2.6 5-5.9 5.6-8.2.6-2.4.6-3.7.7-3.7zm26.3 26.1c0 .3-5.7.6-12.8.6s-12.8-.3-12.8-.6 5.7-.5 12.8-.5 12.8.2 12.8.5z" class="T"/><path d="M737.9 668c-.1 0-.6-2.2-1.3-6.2l-2.7-16.9c-1.2-7.1-1.9-15.7-5.9-24.3-1.9-4.2-4.5-8.4-7.7-12.4-3.3-3.9-7.2-7.4-11.7-10.5-4.5-3-9.3-5.3-14.1-6.8-4.9-1.5-9.8-2.4-14.5-2.5l-25.3-.3-17-.3c-4.1-.2-6.3-.3-6.3-.5 0-.1 2.2-.2 6.3-.4l17-.3 25.4-.2c4.9.1 9.9 1 15 2.5s10.1 3.9 14.7 7c4.6 3.2 8.8 6.9 12.1 11s6 8.5 8 12.9c.4 1.2.8 2.3 1.3 3.4q.3.8.6 1.6.2.9.5 1.7.4 1.7.9 3.3.3 1.6.5 3.2c.8 4.2 1.2 8.1 1.7 11.7l2 17c.5 4 .6 6.2.5 6.3zm-12.5 200.4h-2.1c0-34.3-27.9-62.2-62.2-62.2s-62.3 27.9-62.3 62.2h-2c0-35.4 28.8-64.3 64.3-64.3 35.4 0 64.3 28.9 64.3 64.3z" class="U"/><path d="M607.4 871.6c0 5.4-4.3 9.7-9.6 9.7s-9.6-4.3-9.6-9.7c0-5.3 4.3-9.6 9.6-9.6s9.6 4.3 9.6 9.6zm127.1-1.3c0 5.3-4.3 9.6-9.7 9.6-5.3 0-9.6-4.3-9.6-9.6s4.3-9.6 9.6-9.6c5.4 0 9.7 4.3 9.7 9.6z" class="T"/><path d="M724.8 852.6c0 .3-28 .5-62.5.5-34.6 0-62.5-.2-62.5-.5s27.9-.6 62.5-.6l62.5.6z" class="U"/><g class="T"><path d="M619.9 381.8l2.4-40.7 26.9-12.3 29 2.4 11.4 31-.6 11.3c-.3 7.8-1.3 9.7-5.3 13.4-5.7 5.2-16.8 10.2-24.4 11.2-9.8 1.2-16.5 1-23.9.7-9.1-.3-16.1-8-15.5-17z"/><path d="M686.7 378.2c-.1 4.6-4.2 8.1-8.1 10.6s-8.2 5.2-9.4 9.7c-2.2 8.7 9.1 15.3 10.2 24.3.8 6.5-4 12.2-7 18-5.1 9.7-5.4 21.6-1 31.6-12.2 1.1-24.5 2.1-36.8 2.6l-8.5-16.7-6.3 16.9c-10.8-.1-21.5-.8-32.2-2.6 6.4-5 6.8-14.3 6.4-22.4-.4-8-1.9-22.3 3.4-28.3 3.7-4.2 9.5-6 13.3-10.1 5.5-5.8 2.9-8.2.2-14.6-3.2-7.4-4-15.9-2.8-23.8 1.3-8 6.3-14.8 10.3-21.8s4.2-12 6.5-21.8"/><path d="M644.2 319.4c5.4 14-.7 27.3-7.2 32.8-6.5 5.6-15.1 8.4-23.6 7.9-4.8-.4-10.1-2.3-11.9-6.8 5.2-1.5 10-4.3 13.9-8-4.8 1.4-10.1.7-14.3-2.1 9-.9 17.3-6.5 21.5-14.4"/><path d="M635.4 328.4c-4.3 3.5-10.8 3.4-15.4.3-4.5-3.1-6.8-8.9-6.3-14.3.5-5.5 3.6-10.5 8-13.8 3.8-2.8 8.9-4.3 13.2-2.3 3.5 1.6 5.6 5.3 6.7 9.1 1.2 4.1 1.5 8.7-.3 12.6-1.7 3.9-5.7 7-10 6.8"/></g><g class="U"><path d="M606.6 357.9c0-.2 3.6 1.4 9.8 1.4a28.86 28.86 0 0 0 10.5-2c3.7-1.4 7.6-3.7 10.8-7.1s5.3-7.4 6.5-11.2a35.17 35.17 0 0 0 1.3-10.6c-.4-6.2-2.3-9.7-2-9.8q0 0 .3.7c.2.4.5 1 .8 1.8.7 1.6 1.3 4.1 1.6 7.2s0 6.9-1.1 10.9c-1.2 4-3.3 8.2-6.6 11.7-3.4 3.5-7.4 6-11.3 7.3-3.9 1.4-7.7 1.9-10.8 1.8-3.2 0-5.7-.6-7.3-1.1-.9-.2-1.5-.5-1.9-.7q-.7-.2-.6-.3zm16-8.8c-.2-.3 4.8-2.4 8.7-7.5s4.6-10.4 5-10.3c.1 0 .1 1.3-.5 3.4-.5 2.1-1.7 4.9-3.7 7.5-2 2.7-4.4 4.5-6.3 5.6s-3.2 1.4-3.2 1.3zm-6.8-39c-.1 0 .1-.6.8-1.6a10.1 10.1 0 0 1 3.5-3.2c1.7-1.1 4.1-1.9 6.9-1.9 2.7 0 5.7 1 8.2 2.9s4.3 4.4 5.4 6.9c1 2.5 1.3 4.9 1.3 7 0 2-.3 3.6-.6 4.7s-.5 1.6-.6 1.6c-.2 0 .6-2.4.5-6.3-.1-2-.5-4.3-1.5-6.6-1-2.4-2.8-4.7-5.1-6.5-2.4-1.7-5.1-2.7-7.6-2.7-2.6-.1-4.9.6-6.5 1.5-3.5 1.9-4.5 4.3-4.7 4.2z"/><path d="M645.7 324.8c.2-.1 1.6 2.7 4.2 7 1.4 2.1 3.1 4.6 5.5 6.8s5.7 4 9.4 4.7c3.7.9 7.4 1 10.7 1.1 3.3.2 6.3.2 8.8-.2 5-.7 7.4-3 7.5-2.8 0 .1-.5.7-1.7 1.4-1.2.8-3.2 1.7-5.7 2.1-2.5.5-5.6.6-8.9.5-3.4-.1-7.1-.2-11-1-3.8-.8-7.3-2.7-9.7-5.1-2.5-2.4-4.2-4.9-5.5-7.1s-2.2-4.1-2.8-5.3c-.6-1.3-.8-2.1-.8-2.1z"/><path d="M645.7 324.8c.1 0 .4.8 1.1 2.3l3 6.1c1.3 2.6 2.9 5.6 4.8 9 1.9 3.3 3.9 7 6.7 10.3s6 6.1 9.3 7.9 6.6 2.8 9.5 3.1c5.7.7 9.1-.8 9.2-.6q0 .1-.6.3-.6.3-1.8.6c-1.6.4-4 .7-6.9.5-2.9-.3-6.4-1.2-9.8-3.1-3.5-1.8-6.8-4.6-9.7-8-2.9-3.5-4.9-7.2-6.7-10.6-1.9-3.3-3.4-6.4-4.7-9-1.2-2.7-2.1-4.8-2.7-6.4-.5-1.5-.7-2.4-.7-2.4zm-4-2.9c-.1-.1.7-.8 2.1-1.9 1.4-1.2 3.6-2.7 6.5-4.3 2.8-1.6 6.5-3.3 10.7-4.3 4.3-1.1 9.2-1.5 14.2-.6s9.6 2.9 13 5.7 5.7 6.2 7 9.2c1.3 3.1 1.8 5.8 1.8 7.6q.1 1.4 0 2.1-.1.8-.2.8c-.2 0 .5-4.3-2.3-10.2-1.3-2.9-3.6-6.1-6.9-8.7-3.3-2.7-7.7-4.6-12.6-5.5-4.8-.8-9.6-.5-13.8.5-4.1 1-7.7 2.5-10.6 4s-5.1 3-6.6 4c-1.5 1.1-2.3 1.7-2.3 1.6zm25.4-17.5c0 .3-6 .6-12.4 4.2-6.3 3.5-9.8 8.5-10 8.3-.1-.1.6-1.4 2.2-3.3 1.5-1.8 4.1-4.1 7.3-5.9 3.3-1.8 6.6-2.8 9-3.2 2.4-.3 3.9-.2 3.9-.1z"/></g><path d="M624.7 331.1c.1-.2 2 .6 5.3.5 3.1-.1 7.7-1.6 10.8-5.5 3-3.8 3.3-8.7 2.7-11.8-.6-3.2-1.9-4.8-1.7-4.9 0-.1.4.3.9 1.1s1.1 2 1.5 3.7c.9 3.2.7 8.4-2.6 12.6s-8.3 5.6-11.6 5.5c-1.7 0-3.1-.3-3.9-.6-.9-.3-1.4-.6-1.4-.6z" class="V"/><path d="M643.5 473.2q-.1 0-.7-1.3-.6-1.4-1.7-4.1c-1.4-3.5-3.5-8.7-4.7-15.4-.6-3.4-.9-7.2-.5-11.2s1.5-8.3 3.9-12.3c2.3-3.8 5.8-7.3 6.7-12 1-4.7-1-9.6-3.5-14-1.2-2.3-2.6-4.4-3.9-6.7-1.2-2.2-2.3-4.4-3.3-6.7-1.8-4.6-2.9-9.5-2.2-14 .6-4.7 3.2-8.5 5.5-11.7s4.5-6.2 5.6-9.4c1.3-3.1 1.8-6.2 2.1-8.8.3-2.7.4-5 .4-6.9q.1-2.7.1-4.4 0-1.5 0-1.5.1 0 .2 1.5c0 1 .1 2.5.1 4.4.1 1.9.1 4.2-.2 6.9s-.8 5.8-2 9.1c-1.1 3.2-3.3 6.4-5.6 9.6-2.3 3.3-4.7 6.9-5.2 11.3-.7 4.3.4 9 2.2 13.5.9 2.2 2 4.4 3.2 6.6l4 6.6c1.2 2.3 2.4 4.7 3.1 7.2.7 2.4 1 5.1.4 7.6-.4 2.5-1.7 4.7-3 6.7l-3.9 5.6c-2.3 3.8-3.4 8-3.9 11.9-.4 3.9-.1 7.6.4 11 1.1 6.6 3.1 11.8 4.4 15.4q.9 2.5 1.5 4.1.5 1.4.5 1.4z" class="U"/><path d="M627.9 358.2q.1 0-.7 1.1-.8 1.1-2.1 3c-1.8 2.7-4.5 6.6-6.4 12-.9 2.7-1.5 5.9-1.3 9.2 0 1.7.3 3.4.9 5.1.5 1.6 1.4 3.3 2.3 5 1.7 3.3 4.1 6.8 4.3 11.3.1 2.2-.5 4.4-1.5 6.3-1.1 2-2.5 3.7-4.1 5.3-3.1 3.2-6.6 5.8-9.1 9-2.6 3.2-3.6 7.2-3.8 10.9-.3 3.8.2 7.4.7 10.7.5 3.4.9 6.6 1 9.5.3 5.9-1.4 10.6-3.3 13.3-1 1.3-1.9 2.2-2.6 2.7-.3.3-.6.5-.8.6q-.3.2-.3.1c-.1-.1 1.6-1 3.3-3.7 1.8-2.6 3.3-7.2 3-13-.1-2.8-.6-6-1.2-9.3-.5-3.4-1-7.1-.8-10.9.2-3.9 1.3-8.1 4-11.5 2.6-3.4 6.1-6 9.2-9.1 3-3 5.5-6.8 5.3-10.9-.1-4-2.4-7.5-4.2-10.9-.9-1.7-1.7-3.4-2.3-5.2-.6-1.7-.8-3.5-.9-5.3-.1-3.4.6-6.7 1.5-9.4 2-5.6 4.9-9.4 6.8-12q1.4-2 2.3-3 .8-1 .8-.9z" class="T"/><path d="M665.5 472q0 .1-.3-.1c-.3-.2-.6-.3-1-.6-.8-.6-1.9-1.6-3-3.2-2.1-3.2-3.6-8.9-2.2-15.6.6-3.4 1.8-6.9 3.2-10.6 1.3-3.7 2.7-7.7 3.2-12 .5-4.4.3-9.1-.8-13.7-1-4.7-3.2-9.2-6-13.5-2.6-4.3-5.4-8.6-6.6-13.5-1.2-4.8-1.3-9.5-.9-14 .6-8.9 2.4-16.7 2.2-23.4-.1-6.7-1.6-12-3.3-15.3-1.8-3.3-3.3-4.8-3.2-4.8 0 0 1.7 1.3 3.6 4.6 1.8 3.3 3.5 8.7 3.6 15.4.3 6.8-1.4 14.8-2 23.6-.3 4.4-.2 9.1 1 13.7 1.1 4.6 3.8 8.8 6.5 13.2 2.8 4.3 5.1 9 6.1 13.8 1.1 4.7 1.3 9.5.7 14-.5 4.5-2 8.5-3.3 12.2-1.4 3.7-2.6 7.2-3.3 10.4-1.4 6.5-.1 12.1 1.9 15.2 1.9 3.2 4 4.1 3.9 4.2z" class="U"/><path d="M803.9 879.7c-6.1 2-43.8 1.5-53 1.2l-2.1-.1-.2-11.8 33.5-.8.1 3.6s28.5 5.7 21.7 7.9z" class="V"/><g class="c W"><path d="M748.8 880.3l-.2-9.3c2.8-.3 5.6.5 7.9 2.2 2.2 1.7 3.8 4.3 4.4 7z"/></g><g class="c W"><path d="M796.1 875.1s10 2.6 8.8 4.3c-1.2 1.6-39.3 2.5-56.1 1.4v-.8l44.5-.6s.9-4.2 2.8-4.3z"/></g><g class="T"><path d="M748.9 880q.7 0 1.6 0 2.5 0 6.1 0l20-.2 20-.7q3.6-.1 6.1-.2.9-.1 1.7-.1.5 0 .5 0 0 0-.5.1-.8 0-1.7.1-2.4.2-6 .4c-5.2.3-12.2.6-20.1.8l-20 .1q-3.6-.1-6.1-.2-.9 0-1.6 0-.6-.1-.6-.1 0 0 .6 0z"/><path d="M794 876.8c.9-1.6 2.3-2.2 2.4-2.1 0 .1-1.2.8-2 2.3-.9 1.5-1 3-1.1 2.9-.1.1-.2-1.5.7-3.1zm-10-3.2l1-1.3c.1.1-.2.8-.6 1.6-.5.7-1 1.3-1.1 1.3-.1-.1.2-.8.7-1.6zm-2.5-.9c.5-.5 1.1-.9 1.1-.8.1.1-.3.6-.8 1.1-.6.5-1.1.9-1.2.8s.3-.6.9-1.1zm-.9-2.2c.9-.1 1.7 0 1.7.1 0 .2-.8.3-1.7.3-1 0-1.8-.1-1.8-.2s.8-.2 1.8-.2zm-.4-1.9c1 0 1.9 0 1.9.1.1.1-.8.4-2 .3-1.1-.1-2-.4-1.9-.5 0-.1.9 0 2 .1z"/><path d="M786.5 871.9a12.3 12.3 0 0 0 2.2-.6c.4-.2.8-.3 1.2-.6.4-.2.5-.6.1-.9-.7-.4-1.8-.3-2.5-.1-.8.3-1.4.8-1.8 1.2-.8 1.1-.9 1.9-1 1.9 0 0 0-.2.1-.6.1-.3.2-.9.6-1.4.8-1.1 2.8-2.3 4.9-1.3.2.2.4.5.3.9 0 .3-.3.5-.5.6a3.79 3.79 0 0 1-1.3.6 11.2 11.2 0 0 1-2.3.6c-1.3.2-2.1.1-2.1 0l2.1-.3z"/><path d="M784.9 870.9c-.1-.5-.3-1-.6-1.4-.4-.4-.9-1-1.5-.9-.5.1-.3.9 0 1.4q.5.7.9 1.2c.6.7 1.1 1 1.1 1.1 0 0-.6-.2-1.3-.9-.3-.3-.7-.7-1-1.2-.2-.3-.4-.6-.4-1-.1-.3.1-.9.6-1 1 0 1.5.6 1.9 1.1a5.85 5.85 0 0 1 .6 1.5c.1 1-.2 1.5-.2 1.5-.1 0 .1-.6-.1-1.4zm-35.5-.2c.5-.1 1.1-.1 1.9-.1 1.5.1 3.7.6 5.6 2.1 1.9 1.4 3 3.4 3.5 4.9.3.7.4 1.3.4 1.8q.1.6 0 .6c0 .1-.1-.9-.7-2.3a10.75 10.75 0 0 0-3.4-4.7c-1.9-1.4-4-2-5.5-2.1s-2.4 0-2.4 0q0-.1.6-.2zm20.5 6.2l4.9-.1c0 .1-2.2.4-4.9.5-2.7 0-4.9-.3-4.9-.4s2.2 0 4.9 0zm-10.6.9c.2.6.2 1.1.1 1.1s-.3-.4-.5-.9-.5-.9-.4-1c0-.1.5.2.8.8zm-2.6-3.3c.4.3.6.7.5.7-.1.1-.4-.1-.8-.4-.3-.4-.5-.7-.5-.8.1-.1.5.1.8.5zm-3.2-1.9c.6.1.9.6.8.7s-.5-.2-1-.4c-.5-.1-.9-.1-.9-.2-.1-.1.4-.3 1.1-.1zm-3.1-.5c.3.1.5.2.5.3-.1.1-.3.1-.6 0s-.5-.2-.5-.3c.1-.1.3-.1.6 0zm-15.3-114.3c-.2 0 .8-17.9 2.3-40l3.2-39.8c.3 0-.7 17.9-2.2 39.9l-3.3 39.9zm19.3 4.6s-.2-1.2-.3-3.3l-.6-9-2.3-29.7-3-29.6-1.1-9-.2-3.3s.3 1.2.6 3.3l1.4 8.9c1 7.5 2.3 18 3.4 29.6 1 11.6 1.6 22.1 1.9 29.7.2 3.8.3 6.9.3 9 0 2.2 0 3.3-.1 3.4z"/></g><g class="d"><path d="M762.5 676.2c-12.6 23.5-36.1 41-62.4 46.2-5.4 1-11.4 1.5-16.2-1.2-6.5-3.8-8.5-12.4-8.4-19.9.1-7.6 0-17.9-.1-25.1z"/></g><g class="T"><path d="M646.2 548.3c0-.3 10-1.9 22.4-3.5s22.5-2.7 22.5-2.4-10 1.8-22.4 3.5c-12.3 1.6-22.4 2.7-22.5 2.4z"/><path d="M676.8 544.6c-.1.1-1.4-.8-3.4-2.3q-1.7-1.3-3.5-2.7c-.6-.5-1.4-1.2-1.7-2.3s.3-2.3 1.1-3 1.9-1.1 3-.9c1 .1 1.9.7 2.5 1.3 1.3 1.3 1.7 3 1.8 4.3.1 2.6-.4 4.1-.5 4.1s.1-1.6-.2-4c-.2-1.2-.6-2.6-1.8-3.7-1-1.1-2.9-1.5-4.1-.3-.6.5-1 1.3-.8 2 .1.6.7 1.2 1.3 1.8q1.8 1.5 3.4 2.8l2.9 2.9z"/><path d="M675.4 544.7c-.1-.1.1-1.4 1-3.4.5-.9 1.1-2.1 2.1-3.2.4-.5.9-1.1 1.5-1.6.7-.5 1.5-.9 2.6-.9.5.1 1.2.5 1.3 1 .2.6.1 1.2-.1 1.6-.4.8-.9 1.3-1.4 1.8-1 1.1-2 1.9-2.9 2.5-1.8 1.2-3.1 1.5-3.2 1.4 0-.1 1.1-.7 2.8-2l2.6-2.5c.4-.5.9-1.1 1.2-1.7.2-.5.1-1-.4-1-1.3-.1-2.4 1.1-3.3 2.1s-1.6 2-2.2 2.9c-1 1.8-1.4 3-1.6 3z"/></g><path d="M738.5 765.5c-.2-.1 1.3-4.6 3.4-10 2.1-5.5 4-9.8 4.3-9.7s-1.2 4.6-3.4 10c-2.1 5.5-4 9.8-4.3 9.7zM703.2 755c-.1.3-4.1-2-8.3-5.6-4.2-3.7-6.9-7.2-6.7-7.4s3.3 3 7.4 6.6c4.2 3.6 7.8 6.2 7.6 6.4zm11.1-45.9c-.3.1-2.5-2.6-4.9-6-2.5-3.5-4.3-6.5-4.1-6.6.2-.2 2.4 2.5 4.9 6 2.5 3.4 4.3 6.4 4.1 6.6zm-17.8-63.7c-.2.1-3-3-6.2-7s-5.6-7.5-5.4-7.6c.2-.2 3 2.9 6.2 6.9 3.2 4.1 5.6 7.5 5.4 7.7zm43.2-8.1c0 .3-4.1.7-9.3.9-5.1.2-9.3.1-9.3-.2s4.2-.7 9.3-.9 9.3-.1 9.3.2zm10-25.9c-.3.1-2.1-2.6-4-6-2-3.5-3.3-6.5-3.1-6.6.3-.1 2.1 2.6 4 6 1.9 3.5 3.3 6.5 3.1 6.6zm-44.9-5.6c.1.3-2.9 1.9-6.6 3.7-3.8 1.8-7 3-7.1 2.7-.1-.2 2.8-1.9 6.6-3.6 3.8-1.8 6.9-3 7.1-2.8zm-25.3 2c-.2.2-4-2.7-8.7-6.2-4.7-3.6-8.6-6.3-8.5-6.6.2-.2 4.4 2.2 9.1 5.7 4.8 3.6 8.2 6.9 8.1 7.1zm-2.3-48.5c.1.3-4.5 2-9.8 4.7-5.4 2.7-9.4 5.4-9.6 5.2-.1-.2 3.7-3.4 9.1-6.1 5.4-2.8 10.2-4 10.3-3.8zm-8.7-35.7c-.2.3-3.1-2.4-6.6-5.8-3.5-3.5-6.1-6.5-5.9-6.7s3.2 2.5 6.6 5.9c3.5 3.5 6.1 6.4 5.9 6.6zm25.4-26.4c.1.3-2.3 2.2-5.4 4.3s-5.8 3.6-6 3.3c-.1-.2 2.3-2.1 5.4-4.2s5.8-3.6 6-3.4zm-20.5-4.6c-.2.2-2.7-2.5-5.6-5.9-2.8-3.4-5-6.3-4.7-6.5.2-.2 2.7 2.4 5.5 5.9 2.9 3.4 5.1 6.3 4.8 6.5zm31.8-38.3c.1.3-3.5 2.1-7.9 4.5l-8 4.3c-.1-.2 3.1-2.7 7.5-5.2 4.4-2.4 8.3-3.8 8.4-3.6zm16.7 23.9c-.2 0 .6-3.4 1.8-7.5 1.3-4.1 2.5-7.3 2.8-7.2s-.5 3.4-1.8 7.5c-1.2 4.1-2.5 7.3-2.8 7.2zm7.6 27.3c-.1.2-3.7-1-7.7-3.6-3.9-2.5-6.6-5.3-6.4-5.5s3.1 2.2 7 4.7l7.1 4.4zm-45.7-65.1c-.3-.1 1.7-3.8 4.4-8.2l5.3-7.8c.3.2-1.7 3.9-4.4 8.3s-5.1 7.9-5.3 7.7zm-45.7 44c0 .3-4.9-.4-10.9-1.6-6-1.1-10.7-2.3-10.7-2.6.1-.3 4.9.4 10.9 1.6 6 1.1 10.8 2.3 10.7 2.6z" class="a"/><path d="M930 419.4H781.7V307.1H930z" class="Y"/><path d="M907.9 402.5h-17.3v-69h17.3zm-28.5 0h-17.3v-74.2h17.3zm-27.6 0h-17.3v-65h17.3z" class="V"/><path d="m851.8 402.5h-17.3v-65h17.3z" opacity=".3" class="W"/><path d="M823.8 402.5h-17.4v-54.9h17.4zm84.1 0h-17.3v-69h17.3z" class="V"/><path d="M921.1 402.8c0 .2-28.5.5-63.6.5-35.2 0-63.6-.3-63.6-.5 0-.3 28.4-.6 63.6-.6l63.6.6zm-7.3-65c0 .1-1.9-.3-5.5-.1-3.5.2-8.8 1.1-14.3 4.3-2.8 1.5-5.5 3.7-8 6.5-2.4 2.8-4.7 6.1-7.3 9.5-2.6 3.3-5.9 6.7-10.2 8.6-4.3 2-9.2 2.6-14.1 2.8-5 .2-9.7 0-14.3.2s-9 .7-13.1 1.7c-4 1.1-7.8 2.6-10.9 4.6-3.2 1.9-5.7 4.4-7.6 6.9-3.9 5.1-5.1 10.3-5.2 13.8 0 3.6.7 5.5.6 5.5 0 0-.9-1.8-1-5.5 0-3.6 1.1-9 5-14.3 1.9-2.5 4.5-5.1 7.7-7.1 3.2-2.1 7-3.7 11.2-4.8 4.1-1.1 8.6-1.6 13.2-1.9 4.7-.2 9.5.1 14.3-.1 4.9-.2 9.6-.8 13.7-2.7 4.2-1.8 7.3-5 10-8.3 2.6-3.3 4.8-6.7 7.4-9.5 2.5-2.8 5.4-5 8.2-6.6 5.7-3.1 11.1-3.9 14.7-4 1.8 0 3.2.1 4.1.2q1.4.2 1.4.3zm-130.7 16.7q0 0-.9 0-1 0-2.7 0h-10.2l-36.6-.6h-.4v-.5l-.1-53.7.2-73.6.1-22.3q.1-3.9.1-6.1.1-1 .1-1.6 0-.5 0-.5.1 0 .1.5 0 .6 0 1.6.1 2.2.1 6.1l.2 22.3.1 73.6v53.7l-.5-.4 36.6.9 10.2.4q1.7.1 2.7.1.9.1.9.1zm217.1-85.4q0 .1-1.3.1-1.5.1-3.8.1l-13.7.2-45.5.1h-26.3l.5-.5-.2 27.4q-.1 4.9-.2 7.8 0 1.2 0 2.1-.1.7-.1.7-.1 0-.1-.7 0-.9-.1-2.1 0-2.9-.1-7.8l-.2-27.4v-.5h.5 26.3l45.5.1 13.7.2q2.3.1 3.8.1 1.3.1 1.3.1zM781.7 392.4q0 .1-.8.1-.8 0-2.1 0-2.9 0-8.1 0c-7.1 0-17.2 0-29.7-.1l-98.3-.7-78.1-.8h-.3l-.1-.2-17.4-40.7-4.7-11.3q-.8-1.9-1.3-3-.4-1-.3-1 0 0 .5 1 .4 1.1 1.3 2.9l5 11.3 17.7 40.4-.4-.2 78.1.6 98.3 1 29.7.4q5.2.1 8.1.2 1.4.1 2.1.1.8 0 .8 0z" class="T"/><use xlink:href="#D" class="X"/><path d="m546.9 338.6h-54.7c-7.7 0-13.9-6.3-13.9-13.9 0-7.7 6.2-13.9 13.9-13.9h54.7c7.7 0 13.9 6.2 13.9 13.9 0 7.6-6.2 13.9-13.9 13.9z" class="U"/><path d="M641.2 270H513.7v-84.7h127.5z" class="Y"/><path d="m668.1 244.4h-84.7v-33.6h84.7z" class="V"/><g class="X"><use xlink:href="#E"/><path d="M567.8 218.4c0 .3-8.9.6-19.8.6-11 0-19.8-.3-19.8-.6s8.8-.5 19.8-.5c10.9 0 19.8.2 19.8.5z"/><use xlink:href="#E" y="12.3"/><use xlink:href="#E" y="18.4"/><path d="M567.8 236.9c0 .2-8.9.5-19.8.5-11 0-19.8-.3-19.8-.5 0-.3 8.8-.6 19.8-.6 10.9 0 19.8.3 19.8.6zm-16.4 6.1c0 .3-5.2.5-11.6.5s-11.6-.2-11.6-.5 5.2-.5 11.6-.5 11.6.2 11.6.5zm88.8-45.3c0 .3-28.3.6-63.3.6-34.9 0-63.2-.3-63.2-.6 0-.2 28.3-.5 63.2-.5l63.3.5z"/></g><path d="M869.4 275.1q0-.1 0-1-.1-.9-.1-2.5l-.1-9.7-.2-34.3.4.5-47.4.1c-.1.1 1-1 .5-.6v.1.1.2.5.8 1.6q0 1.6 0 3.2 0 3.2 0 6.3 0 6.3 0 12.3l-.1 22.4-.4-.5 34.2.2 9.7.2q1.6 0 2.6 0 .9 0 .9.1 0 0-.8 0-1 0-2.5.1l-9.6.1-34.5.2h-.5v-.4-22.4q0-6 0-12.3 0-3.1 0-6.3 0-1.6 0-3.2v-1.6-.8-.5-.2-.1-.1c-.5.5.6-.6.5-.5l47.4.1h.5v.4l-.3 34.6-.1 9.5q0 1.6 0 2.5-.1.9-.1.9z" class="T"/><path d="m902.8 231.1h-23.7v-23.8h23.7z" class="X"/><path d="M1062.6 283h-54.7a13.87 13.87 0 1 1 0-27.8h54.7a13.87 13.87 0 1 1 0 27.8z" class="U"/><g class="X"><use xlink:href="#D" x="339.4" y="-121.6"/><use xlink:href="#D" x="163.8" y="-38.7"/></g><path d="m760.1 211.6h-54.7c-7.7 0-13.9-6.2-13.9-13.9 0-7.6 6.2-13.8 13.9-13.8h54.7c7.7 0 13.9 6.2 13.9 13.8 0 7.7-6.2 13.9-13.9 13.9z" class="U"/><defs ><path id="B" d="M1199.1 567.9c-18 1.3-102.1-.4-125.9-1.7-4.2.1-22.1.2-31.7-1.2-10.2-1.4-17.4-2-17-3.2 1-3.2 18.1 1.9 15.1-1.4-3.1-3.3-21.7-3.7-20.6-7 1.5-4.3 19.4 1.3 21 1.7 1.5.3 2.1-1.9.6-2.2-2-.4-23.2-4.7-21.8-8.9.8-2.4 4.8-.5 4.8-.5s19.6 5.5 20.2 3.5c.7-2.1-10.7-5.7-14.7-6.7-3.8-.9-5-3.2-3.2-4.6 1.3-1 13.4 1.7 17.2 2.7 3.9 1 14.4 4.1 10.4-1.8-4-5.8-5-11.8-4.1-13.7.8-1.8 3.6-1.2 4 1 .3 1.7 1.7 4.5 2.9 6.5.9 1.7 2.2 3.2 3.6 4.5 1.6 1.4 3.5-.2 4.7.7 21.2-.3 102.4-3.6 103.4-8.5 1.2-5.7-4-30.2-4-30.2h41.9s3.1 16.4 5.4 35.8c.8 6.6 8.7 33.8-12.2 35.2z"/><path id="C" d="M1093.2 362.5c1.3.1 2.3 1.2 2.3 2.4-.1 1.3-1.2 2.2-2.5 2.1-1.3 0-2.3-1.1-2.3-2.3.1-1.3 1.2-2.3 2.5-2.2z"/><path id="D" d="M579 390.9c0 5-4.1 9.1-9.1 9.1s-9.1-4.1-9.1-9.1 4.1-9.1 9.1-9.1 9.1 4.1 9.1 9.1z"/><path id="E" d="M567.8 212.3c0 .3-8.9.5-19.8.5-11 0-19.8-.2-19.8-.5s8.8-.5 19.8-.5c10.9 0 19.8.2 19.8.5z"/></defs></svg>