<?xml version="1.0" encoding="UTF-8" standalone="no"?>
<svg
   xmlns:dc="http://purl.org/dc/elements/1.1/"
   xmlns:cc="http://creativecommons.org/ns#"
   xmlns:rdf="http://www.w3.org/1999/02/22-rdf-syntax-ns#"
   xmlns:svg="http://www.w3.org/2000/svg"
   xmlns="http://www.w3.org/2000/svg"
   xmlns:sodipodi="http://sodipodi.sourceforge.net/DTD/sodipodi-0.dtd"
   xmlns:inkscape="http://www.inkscape.org/namespaces/inkscape"
   version="1.1"
   id="svg2"
   xml:space="preserve"
   width="5293.3335"
   height="2666.6667"
   viewBox="0 0 5293.3335 2666.6667"
   sodipodi:docname="6607.eps"><metadata
     id="metadata8"><rdf:RDF><cc:Work
         rdf:about=""><dc:format>image/svg+xml</dc:format><dc:type
           rdf:resource="http://purl.org/dc/dcmitype/StillImage" /></cc:Work></rdf:RDF></metadata><defs
     id="defs6"><clipPath
       clipPathUnits="userSpaceOnUse"
       id="clipPath268"><path
         d="m 28019,130.402 c 0,0.297 -0.1,0.598 -0.1,0.899 0,-0.301 0.1,-0.602 0.1,-0.899 m -0.1,1 c -0.1,0.7 -0.2,1.297 -0.2,2 0,-0.703 0.1,-1.3 0.2,-2 m -0.2,2 -22.9,175.7 v 0 l 22.9,-175.7"
         id="path266" /></clipPath></defs><sodipodi:namedview
     pagecolor="#ffffff"
     bordercolor="#666666"
     borderopacity="1"
     objecttolerance="10"
     gridtolerance="10"
     guidetolerance="10"
     inkscape:pageopacity="0"
     inkscape:pageshadow="2"
     inkscape:window-width="640"
     inkscape:window-height="480"
     id="namedview4" /><g
     id="g10"
     inkscape:groupmode="layer"
     inkscape:label="ink_ext_XXXXXX"
     transform="matrix(1.3333333,0,0,-1.3333333,0,2666.6667)"><g
       id="g12"
       transform="scale(0.1)"><path
         d="M 0,0 H 39700 V 20000 H 0 Z"
         style="fill:#ffffff;fill-opacity:1;fill-rule:nonzero;stroke:none"
         id="path14" /><path
         d="m 32854,18935.7 c -4372.5,2012.7 -6909.7,-1284.3 -11652,-1627.3 -2285.2,-165.3 -3668.5,285.6 -5005.6,736.5 -1437.8,484.9 -2822,969.8 -5216.5,688.5 C 6841.76,18247.3 5467.31,15144.5 3552.97,11782.4 1638.62,8420.3 1354.3,9558.4 484.145,6242 -386.02,2925.6 3317.59,0 3317.59,0 H 34832.4 c 1870.9,137.199 3648.7,1964.7 3742.9,4755.4 180.5,5349.3 -1805.6,5237.5 -1892.6,7547.5 -87,2310.1 543.8,4620.1 -3828.7,6632.8"
         style="fill:#caf0ff;fill-opacity:1;fill-rule:nonzero;stroke:none"
         id="path16" /><path
         d="M 12543.4,1565.5 H 6523.79 c -104.91,0 -189.96,85.1 -189.96,190 v 12987.9 c 0,104.9 85.05,189.9 189.96,189.9 h 6019.61 c 104.9,0 190,-85 190,-189.9 V 1755.5 c 0,-104.9 -85.1,-190 -190,-190"
         style="fill:#4188e4;fill-opacity:1;fill-rule:nonzero;stroke:none"
         id="path18" /><path
         d="M 12351,10826.6 H 6717.67 v 3016.6 H 12351 v -3016.6"
         style="fill:#142666;fill-opacity:1;fill-rule:nonzero;stroke:none"
         id="path20" /><path
         d="M 12351,7535.3 H 6717.67 v 3016.6 H 12351 V 7535.3"
         style="fill:#142666;fill-opacity:1;fill-rule:nonzero;stroke:none"
         id="path22" /><path
         d="M 12351,4244.1 H 6717.67 V 7260.6 H 12351 V 4244.1"
         style="fill:#142666;fill-opacity:1;fill-rule:nonzero;stroke:none"
         id="path24" /><path
         d="M 25173.9,1565.5 H 14116.8 c -104.9,0 -189.9,85.1 -189.9,190 v 12987.9 c 0,104.9 85,189.9 189.9,189.9 h 11057.1 c 104.9,0 190,-85 190,-189.9 V 1755.5 c 0,-104.9 -85.1,-190 -190,-190"
         style="fill:#4188e4;fill-opacity:1;fill-rule:nonzero;stroke:none"
         id="path26" /><path
         d="M 24680.5,10826.6 H 14612.8 v 3016.6 h 10067.7 v -3016.6"
         style="fill:#142666;fill-opacity:1;fill-rule:nonzero;stroke:none"
         id="path28" /><path
         d="M 24680.5,7535.3 H 14612.8 v 3016.6 H 24680.5 V 7535.3"
         style="fill:#142666;fill-opacity:1;fill-rule:nonzero;stroke:none"
         id="path30" /><path
         d="M 24680.5,4244.1 H 14612.8 V 7260.6 H 24680.5 V 4244.1"
         style="fill:#142666;fill-opacity:1;fill-rule:nonzero;stroke:none"
         id="path32" /><path
         d="m 20855.2,4554.1 v -310 h -1691.9 v 310 h 1691.9"
         style="fill:#afdbfe;fill-opacity:1;fill-rule:nonzero;stroke:none"
         id="path34" /><path
         d="m 20910.4,4829.7 v -275.6 h -1513.3 v 275.6 h 1513.3"
         style="fill:#ffffff;fill-opacity:1;fill-rule:nonzero;stroke:none"
         id="path36" /><path
         d="m 20677,5105.4 v -275.7 h -1513.2 v 275.7 H 20677"
         style="fill:#70c0fd;fill-opacity:1;fill-rule:nonzero;stroke:none"
         id="path38" /><path
         d="m 22342.1,4244.1 h -344.3 v 1889.1 h 344.3 V 4244.1"
         style="fill:#afdbfe;fill-opacity:1;fill-rule:nonzero;stroke:none"
         id="path40" /><path
         d="m 22695.5,4244.1 h -271.8 v 1569.2 h 271.8 V 4244.1"
         style="fill:#70c0fd;fill-opacity:1;fill-rule:nonzero;stroke:none"
         id="path42" /><path
         d="M 21546.3,4244.1 H 21202 v 1889.1 h 344.3 V 4244.1"
         style="fill:#afdbfe;fill-opacity:1;fill-rule:nonzero;stroke:none"
         id="path44" /><path
         d="m 21899.6,4244.1 h -271.8 v 1569.2 h 271.8 V 4244.1"
         style="fill:#70c0fd;fill-opacity:1;fill-rule:nonzero;stroke:none"
         id="path46" /><path
         d="m 16177.6,4244.1 h -601 V 5753 h 601 V 4244.1"
         style="fill:#afdbfe;fill-opacity:1;fill-rule:nonzero;stroke:none"
         id="path48" /><path
         d="m 15473.9,4244.1 h -169.1 v 1361 h 169.1 v -1361"
         style="fill:#ffffff;fill-opacity:1;fill-rule:nonzero;stroke:none"
         id="path50" /><path
         d="m 15250.4,4244.1 h -268.8 v 1578.3 h 268.8 V 4244.1"
         style="fill:#70c0fd;fill-opacity:1;fill-rule:nonzero;stroke:none"
         id="path52" /><path
         d="m 18871.7,4244.1 h -268.8 v 1578.3 h 268.8 V 4244.1"
         style="fill:#70c0fd;fill-opacity:1;fill-rule:nonzero;stroke:none"
         id="path54" /><path
         d="m 17213.5,4244.1 h -546.6 v 1361 h 546.6 v -1361"
         style="fill:#ffffff;fill-opacity:1;fill-rule:nonzero;stroke:none"
         id="path56" /><path
         d="m 17615.2,4244.1 h -344.3 v 1889.1 h 344.3 V 4244.1"
         style="fill:#afdbfe;fill-opacity:1;fill-rule:nonzero;stroke:none"
         id="path58" /><path
         d="m 17968.6,4244.1 h -271.8 v 1569.2 h 271.8 V 4244.1"
         style="fill:#70c0fd;fill-opacity:1;fill-rule:nonzero;stroke:none"
         id="path60" /><path
         d="m 16564.2,4244.1 h -317.1 V 5925 h 317.1 V 4244.1"
         style="fill:#70c0fd;fill-opacity:1;fill-rule:nonzero;stroke:none"
         id="path62" /><path
         d="M 18521.4,4244.1 H 18023 v 1415.3 h 498.4 V 4244.1"
         style="fill:#ffffff;fill-opacity:1;fill-rule:nonzero;stroke:none"
         id="path64" /><path
         d="m 7515.75,4245.1 h -169.13 v 1361.1 h 169.13 V 4245.1"
         style="fill:#ffffff;fill-opacity:1;fill-rule:nonzero;stroke:none"
         id="path66" /><path
         d="m 7292.25,4245.1 h -268.8 v 1578.4 h 268.8 V 4245.1"
         style="fill:#a2cff6;fill-opacity:1;fill-rule:nonzero;stroke:none"
         id="path68" /><path
         d="m 12175.9,4245.1 h -601 v 1509 h 601 v -1509"
         style="fill:#afdbfe;fill-opacity:1;fill-rule:nonzero;stroke:none"
         id="path70" /><path
         d="m 11472.2,4245.1 h -169.1 v 1361.1 h 169.1 V 4245.1"
         style="fill:#ffffff;fill-opacity:1;fill-rule:nonzero;stroke:none"
         id="path72" /><path
         d="m 11248.7,4245.1 h -268.8 v 1578.4 h 268.8 V 4245.1"
         style="fill:#70c0fd;fill-opacity:1;fill-rule:nonzero;stroke:none"
         id="path74" /><path
         d="m 9934.96,4245.1 h -344.3 v 1889.2 h 344.3 V 4245.1"
         style="fill:#afdbfe;fill-opacity:1;fill-rule:nonzero;stroke:none"
         id="path76" /><path
         d="m 9299.78,4555.1 v -310 h -1691.9 v 310 h 1691.9"
         style="fill:#b0c1ec;fill-opacity:1;fill-rule:nonzero;stroke:none"
         id="path78" /><path
         d="M 9354.96,4830.8 V 4555.1 H 7841.71 v 275.7 h 1513.25"
         style="fill:#ffffff;fill-opacity:1;fill-rule:nonzero;stroke:none"
         id="path80" /><path
         d="M 9121.61,5106.5 V 4830.8 H 7608.36 v 275.7 h 1513.25"
         style="fill:#a2cff6;fill-opacity:1;fill-rule:nonzero;stroke:none"
         id="path82" /><path
         d="m 10288.3,4245.1 h -271.8 v 1569.3 h 271.8 V 4245.1"
         style="fill:#70c0fd;fill-opacity:1;fill-rule:nonzero;stroke:none"
         id="path84" /><path
         d="m 10898.4,4245.1 h -498.3 v 1415.4 h 498.3 V 4245.1"
         style="fill:#ffffff;fill-opacity:1;fill-rule:nonzero;stroke:none"
         id="path86" /><path
         d="m 15275.2,10826.6 h -169.1 v 1361.1 h 169.1 v -1361.1"
         style="fill:#ffffff;fill-opacity:1;fill-rule:nonzero;stroke:none"
         id="path88" /><path
         d="m 15051.7,10826.6 h -268.8 V 12405 h 268.8 v -1578.4"
         style="fill:#70c0fd;fill-opacity:1;fill-rule:nonzero;stroke:none"
         id="path90" /><path
         d="m 19935.4,10826.6 h -601 v 1509 h 601 v -1509"
         style="fill:#afdbfe;fill-opacity:1;fill-rule:nonzero;stroke:none"
         id="path92" /><path
         d="m 19231.7,10826.6 h -169.1 v 1361.1 h 169.1 v -1361.1"
         style="fill:#ffffff;fill-opacity:1;fill-rule:nonzero;stroke:none"
         id="path94" /><path
         d="m 19008.2,10826.6 h -268.8 V 12405 h 268.8 v -1578.4"
         style="fill:#70c0fd;fill-opacity:1;fill-rule:nonzero;stroke:none"
         id="path96" /><path
         d="m 17694.5,10826.6 h -344.3 v 1889.2 h 344.3 v -1889.2"
         style="fill:#afdbfe;fill-opacity:1;fill-rule:nonzero;stroke:none"
         id="path98" /><path
         d="m 17059.3,11136.6 v -310 h -1691.9 v 310 h 1691.9"
         style="fill:#afdbfe;fill-opacity:1;fill-rule:nonzero;stroke:none"
         id="path100" /><path
         d="m 17114.5,11412.3 v -275.7 h -1513.3 v 275.7 h 1513.3"
         style="fill:#ffffff;fill-opacity:1;fill-rule:nonzero;stroke:none"
         id="path102" /><path
         d="m 16881.1,11688 v -275.7 h -1513.2 v 275.7 h 1513.2"
         style="fill:#70c0fd;fill-opacity:1;fill-rule:nonzero;stroke:none"
         id="path104" /><path
         d="M 18047.8,10826.6 H 17776 v 1569.3 h 271.8 v -1569.3"
         style="fill:#70c0fd;fill-opacity:1;fill-rule:nonzero;stroke:none"
         id="path106" /><path
         d="m 18657.9,10826.6 h -498.3 V 12242 h 498.3 v -1415.4"
         style="fill:#ffffff;fill-opacity:1;fill-rule:nonzero;stroke:none"
         id="path108" /><path
         d="m 27474.6,10997.8 h -169.2 v 1361 h 169.2 v -1361"
         style="fill:#ffffff;fill-opacity:1;fill-rule:nonzero;stroke:none"
         id="path110" /><path
         d="m 27251.1,10997.8 h -268.8 v 1578.3 h 268.8 v -1578.3"
         style="fill:#70c0fd;fill-opacity:1;fill-rule:nonzero;stroke:none"
         id="path112" /><path
         d="m 31207.5,10997.8 h -268.8 v 1578.3 h 268.8 v -1578.3"
         style="fill:#70c0fd;fill-opacity:1;fill-rule:nonzero;stroke:none"
         id="path114" /><path
         d="m 29893.8,10997.8 h -344.3 v 1889.1 h 344.3 v -1889.1"
         style="fill:#afdbfe;fill-opacity:1;fill-rule:nonzero;stroke:none"
         id="path116" /><path
         d="m 29258.6,11307.8 v -310 h -1691.9 v 310 h 1691.9"
         style="fill:#afdbfe;fill-opacity:1;fill-rule:nonzero;stroke:none"
         id="path118" /><path
         d="m 29313.8,11583.4 v -275.6 h -1513.3 v 275.6 h 1513.3"
         style="fill:#ffffff;fill-opacity:1;fill-rule:nonzero;stroke:none"
         id="path120" /><path
         d="m 29080.4,11859.1 v -275.7 h -1513.2 v 275.7 h 1513.2"
         style="fill:#a2cff6;fill-opacity:1;fill-rule:nonzero;stroke:none"
         id="path122" /><path
         d="m 30247.2,10997.8 h -271.9 V 12567 h 271.9 v -1569.2"
         style="fill:#70c0fd;fill-opacity:1;fill-rule:nonzero;stroke:none"
         id="path124" /><path
         d="m 30857.2,10997.8 h -498.3 v 1415.3 h 498.3 v -1415.3"
         style="fill:#ffffff;fill-opacity:1;fill-rule:nonzero;stroke:none"
         id="path126" /><path
         d="m 23517.9,10826.6 h -344.3 v 1889.2 h 344.3 v -1889.2"
         style="fill:#afdbfe;fill-opacity:1;fill-rule:nonzero;stroke:none"
         id="path128" /><path
         d="m 23871.3,10826.6 h -271.8 v 1569.3 h 271.8 v -1569.3"
         style="fill:#70c0fd;fill-opacity:1;fill-rule:nonzero;stroke:none"
         id="path130" /><path
         d="M 24481.4,10826.6 H 23983 V 12242 h 498.4 v -1415.4"
         style="fill:#ffffff;fill-opacity:1;fill-rule:nonzero;stroke:none"
         id="path132" /><path
         d="m 8219.46,10826.6 h -601.02 v 1509 h 601.02 v -1509"
         style="fill:#afdbfe;fill-opacity:1;fill-rule:nonzero;stroke:none"
         id="path134" /><path
         d="m 7515.75,10826.6 h -169.13 v 1361.1 h 169.13 v -1361.1"
         style="fill:#ffffff;fill-opacity:1;fill-rule:nonzero;stroke:none"
         id="path136" /><path
         d="m 7292.25,10826.6 h -268.8 V 12405 h 268.8 v -1578.4"
         style="fill:#70c0fd;fill-opacity:1;fill-rule:nonzero;stroke:none"
         id="path138" /><path
         d="m 11898,10826.6 h -601 v 1509 h 601 v -1509"
         style="fill:#afdbfe;fill-opacity:1;fill-rule:nonzero;stroke:none"
         id="path140" /><path
         d="m 11194.3,10826.6 h -169.1 v 1361.1 h 169.1 v -1361.1"
         style="fill:#ffffff;fill-opacity:1;fill-rule:nonzero;stroke:none"
         id="path142" /><path
         d="M 10970.8,10826.6 H 10702 V 12405 h 268.8 v -1578.4"
         style="fill:#70c0fd;fill-opacity:1;fill-rule:nonzero;stroke:none"
         id="path144" /><path
         d="m 9255.39,10826.6 h -546.66 v 1361.1 h 546.66 v -1361.1"
         style="fill:#ffffff;fill-opacity:1;fill-rule:nonzero;stroke:none"
         id="path146" /><path
         d="m 9657.08,10826.6 h -344.31 v 1889.2 h 344.31 v -1889.2"
         style="fill:#afdbfe;fill-opacity:1;fill-rule:nonzero;stroke:none"
         id="path148" /><path
         d="m 10010.4,10826.6 h -271.78 v 1569.3 h 271.78 v -1569.3"
         style="fill:#70c0fd;fill-opacity:1;fill-rule:nonzero;stroke:none"
         id="path150" /><path
         d="m 8606.04,10826.6 h -317.11 v 1681 h 317.11 v -1681"
         style="fill:#70c0fd;fill-opacity:1;fill-rule:nonzero;stroke:none"
         id="path152" /><path
         d="m 21284.5,10826.6 h -601.1 v 1509 h 601.1 v -1509"
         style="fill:#afdbfe;fill-opacity:1;fill-rule:nonzero;stroke:none"
         id="path154" /><path
         d="m 20580.8,10826.6 h -169.2 v 1361.1 h 169.2 v -1361.1"
         style="fill:#ffffff;fill-opacity:1;fill-rule:nonzero;stroke:none"
         id="path156" /><path
         d="m 20357.3,10826.6 h -268.8 V 12405 h 268.8 v -1578.4"
         style="fill:#70c0fd;fill-opacity:1;fill-rule:nonzero;stroke:none"
         id="path158" /><path
         d="m 22320.4,10826.6 h -546.7 v 1361.1 h 546.7 v -1361.1"
         style="fill:#ffffff;fill-opacity:1;fill-rule:nonzero;stroke:none"
         id="path160" /><path
         d="m 22722.1,10826.6 h -344.3 v 1889.2 h 344.3 v -1889.2"
         style="fill:#afdbfe;fill-opacity:1;fill-rule:nonzero;stroke:none"
         id="path162" /><path
         d="m 23075.5,10826.6 h -271.9 v 1569.3 h 271.9 v -1569.3"
         style="fill:#70c0fd;fill-opacity:1;fill-rule:nonzero;stroke:none"
         id="path164" /><path
         d="m 21671.1,10826.6 h -317.2 v 1681 h 317.2 v -1681"
         style="fill:#70c0fd;fill-opacity:1;fill-rule:nonzero;stroke:none"
         id="path166" /><path
         d="m 28414.1,13700.9 h -344.3 v 1889.2 h 344.3 v -1889.2"
         style="fill:#afdbfe;fill-opacity:1;fill-rule:nonzero;stroke:none"
         id="path168" /><path
         d="m 28767.4,13700.9 h -271.8 v 1569.3 h 271.8 v -1569.3"
         style="fill:#70c0fd;fill-opacity:1;fill-rule:nonzero;stroke:none"
         id="path170" /><path
         d="m 29377.5,13700.9 h -498.3 v 1415.4 h 498.3 v -1415.4"
         style="fill:#ffffff;fill-opacity:1;fill-rule:nonzero;stroke:none"
         id="path172" /><path
         d="m 27216.5,13700.9 h -546.6 v 1361 h 546.6 v -1361"
         style="fill:#ffffff;fill-opacity:1;fill-rule:nonzero;stroke:none"
         id="path174" /><path
         d="m 27618.2,13700.9 h -344.3 v 1889.2 h 344.3 v -1889.2"
         style="fill:#afdbfe;fill-opacity:1;fill-rule:nonzero;stroke:none"
         id="path176" /><path
         d="m 27971.6,13700.9 h -271.8 v 1569.3 h 271.8 v -1569.3"
         style="fill:#70c0fd;fill-opacity:1;fill-rule:nonzero;stroke:none"
         id="path178" /><path
         d="m 26567.2,13700.9 h -317.1 v 1681 h 317.1 v -1681"
         style="fill:#70c0fd;fill-opacity:1;fill-rule:nonzero;stroke:none"
         id="path180" /><path
         d="m 22471.1,7535.3 h -601 v 1509 h 601 v -1509"
         style="fill:#afdbfe;fill-opacity:1;fill-rule:nonzero;stroke:none"
         id="path182" /><path
         d="m 21767.4,7535.3 h -169.1 v 1361.1 h 169.1 V 7535.3"
         style="fill:#ffffff;fill-opacity:1;fill-rule:nonzero;stroke:none"
         id="path184" /><path
         d="m 21543.9,7535.3 h -268.8 v 1578.4 h 268.8 V 7535.3"
         style="fill:#70c0fd;fill-opacity:1;fill-rule:nonzero;stroke:none"
         id="path186" /><path
         d="m 23820.2,7535.3 h -601 v 1509 h 601 v -1509"
         style="fill:#afdbfe;fill-opacity:1;fill-rule:nonzero;stroke:none"
         id="path188" /><path
         d="m 23116.5,7535.3 h -169.2 v 1361.1 h 169.2 V 7535.3"
         style="fill:#ffffff;fill-opacity:1;fill-rule:nonzero;stroke:none"
         id="path190" /><path
         d="m 22893,7535.3 h -268.8 V 9113.7 H 22893 V 7535.3"
         style="fill:#70c0fd;fill-opacity:1;fill-rule:nonzero;stroke:none"
         id="path192" /><path
         d="m 24206.8,7535.3 h -317.1 v 1681 h 317.1 v -1681"
         style="fill:#70c0fd;fill-opacity:1;fill-rule:nonzero;stroke:none"
         id="path194" /><path
         d="m 10620.5,10826.6 h -498.3 V 12242 h 498.3 v -1415.4"
         style="fill:#ffffff;fill-opacity:1;fill-rule:nonzero;stroke:none"
         id="path196" /><path
         d="m 16177.6,7535.3 h -601 v 1509 h 601 v -1509"
         style="fill:#afdbfe;fill-opacity:1;fill-rule:nonzero;stroke:none"
         id="path198" /><path
         d="m 15473.9,7535.3 h -169.1 v 1361.1 h 169.1 V 7535.3"
         style="fill:#ffffff;fill-opacity:1;fill-rule:nonzero;stroke:none"
         id="path200" /><path
         d="m 15250.4,7535.3 h -268.8 v 1578.4 h 268.8 V 7535.3"
         style="fill:#70c0fd;fill-opacity:1;fill-rule:nonzero;stroke:none"
         id="path202" /><path
         d="m 19856.2,7535.3 h -601 v 1509 h 601 v -1509"
         style="fill:#afdbfe;fill-opacity:1;fill-rule:nonzero;stroke:none"
         id="path204" /><path
         d="m 19152.5,7535.3 h -169.2 v 1361.1 h 169.2 V 7535.3"
         style="fill:#ffffff;fill-opacity:1;fill-rule:nonzero;stroke:none"
         id="path206" /><path
         d="m 18929,7535.3 h -268.8 V 9113.7 H 18929 V 7535.3"
         style="fill:#70c0fd;fill-opacity:1;fill-rule:nonzero;stroke:none"
         id="path208" /><path
         d="m 17213.5,7535.3 h -546.6 v 1361.1 h 546.6 V 7535.3"
         style="fill:#ffffff;fill-opacity:1;fill-rule:nonzero;stroke:none"
         id="path210" /><path
         d="m 17615.2,7535.3 h -344.3 v 1889.2 h 344.3 V 7535.3"
         style="fill:#afdbfe;fill-opacity:1;fill-rule:nonzero;stroke:none"
         id="path212" /><path
         d="m 17968.6,7535.3 h -271.8 v 1569.3 h 271.8 V 7535.3"
         style="fill:#70c0fd;fill-opacity:1;fill-rule:nonzero;stroke:none"
         id="path214" /><path
         d="m 16564.2,7535.3 h -317.1 v 1681 h 317.1 v -1681"
         style="fill:#70c0fd;fill-opacity:1;fill-rule:nonzero;stroke:none"
         id="path216" /><path
         d="m 18578.7,7535.3 h -498.4 v 1415.4 h 498.4 V 7535.3"
         style="fill:#ffffff;fill-opacity:1;fill-rule:nonzero;stroke:none"
         id="path218" /><path
         d="m 8219.46,7535.3 h -601.02 v 1647 h 601.02 v -1647"
         style="fill:#ffffff;fill-opacity:1;fill-rule:nonzero;stroke:none"
         id="path220" /><path
         d="m 7515.75,7535.3 h -169.13 v 1361.1 h 169.13 V 7535.3"
         style="fill:#70c0fd;fill-opacity:1;fill-rule:nonzero;stroke:none"
         id="path222" /><path
         d="m 7292.25,7535.3 h -268.8 v 1578.4 h 268.8 V 7535.3"
         style="fill:#afdbfe;fill-opacity:1;fill-rule:nonzero;stroke:none"
         id="path224" /><path
         d="m 11194.3,7535.3 h -169.1 v 1361.1 h 169.1 V 7535.3"
         style="fill:#70c0fd;fill-opacity:1;fill-rule:nonzero;stroke:none"
         id="path226" /><path
         d="M 10970.8,7535.3 H 10702 v 1748.8 h 268.8 V 7535.3"
         style="fill:#ffffff;fill-opacity:1;fill-rule:nonzero;stroke:none"
         id="path228" /><path
         d="m 9255.39,7535.3 h -546.66 v 1748.8 h 546.66 V 7535.3"
         style="fill:#70c0fd;fill-opacity:1;fill-rule:nonzero;stroke:none"
         id="path230" /><path
         d="m 9657.08,7535.3 h -344.31 v 1509 h 344.31 v -1509"
         style="fill:#ffffff;fill-opacity:1;fill-rule:nonzero;stroke:none"
         id="path232" /><path
         d="m 10010.4,7535.3 h -271.78 v 1986.3 h 271.78 V 7535.3"
         style="fill:#afdbfe;fill-opacity:1;fill-rule:nonzero;stroke:none"
         id="path234" /><path
         d="m 8606.04,7535.3 h -317.11 v 1468.8 h 317.11 V 7535.3"
         style="fill:#afdbfe;fill-opacity:1;fill-rule:nonzero;stroke:none"
         id="path236" /><path
         d="m 10620.5,7535.3 h -498.3 v 1681 h 498.3 v -1681"
         style="fill:#70c0fd;fill-opacity:1;fill-rule:nonzero;stroke:none"
         id="path238" /><path
         d="m 12152.9,7697.2 -469.3,-167.5 -565.9,1583 469.3,167.5 565.9,-1583"
         style="fill:#ffffff;fill-opacity:1;fill-rule:nonzero;stroke:none"
         id="path240" /><path
         d="m 20868,7697.2 -469.3,-167.5 -565.8,1583 469.3,167.5 565.8,-1583"
         style="fill:#ffffff;fill-opacity:1;fill-rule:nonzero;stroke:none"
         id="path242" /><path
         d="m 21160.3,7619.1 -234.6,-83.8 -565.9,1583 234.7,83.8 565.8,-1583"
         style="fill:#70c0fd;fill-opacity:1;fill-rule:nonzero;stroke:none"
         id="path244" /><path
         d="m 30115.3,13791.8 -234.7,-83.8 -565.8,1583 234.6,83.8 565.9,-1583"
         style="fill:#70c0fd;fill-opacity:1;fill-rule:nonzero;stroke:none"
         id="path246" /><path
         d="M 27986.7,917.102 27923.8,412.199 27585,386 l 5.2,468.203 396.5,62.899"
         style="fill:#ffc0bb;fill-opacity:1;fill-rule:nonzero;stroke:none"
         id="path248" /><path
         d="m 22014.4,5712.5 h 3278.8 l -358.2,-2477.3 -2706.1,440.5 -214.5,2036.8"
         style="fill:#f9537f;fill-opacity:1;fill-rule:nonzero;stroke:none"
         id="path250" /><path
         d="m 27070.2,16.4023 925.6,-6.2031 c 20.2,-0.1992 36.4,15.7031 36.3,35.5 l -0.3,26.6016 c -0.1,19.8008 -16.7,35.8982 -36.9,36.0002 l -925.6,6.301 c -20.2,0.097 -36.5,-15.8012 -36.3,-35.5004 l 0.2,-26.6993 c 0.2,-19.7031 16.7,-35.9023 37,-36"
         style="fill:#3d3a55;fill-opacity:1;fill-rule:nonzero;stroke:none"
         id="path252" /><path
         d="m 27983.2,406.703 35.5,-273.301 c 4.3,-33.7028 -14.7,-64.1012 -40,-64.0036 l -880.2,6.0039 c -22.9,0.0977 -45.6,14.1993 -57.8,40.4997 -12.6,26.899 -15.4,67.399 23.5,121.598 77.9,108.199 336.6,133 462.4,225 l 410,-2.699 c 22.9,-0.199 42.6,-22.699 46.6,-53.098"
         style="fill:#09083c;fill-opacity:1;fill-rule:nonzero;stroke:none"
         id="path254" /><path
         d="m 27590.2,303.602 v 0 c 6.4,3.699 8.6,14.199 4.8,22.199 -17.6,37.5 -72.4,129 -182.1,111 -6.4,-1.102 -10.6,-9.301 -9.5,-17.801 l 0.1,-0.199 c 1.1,-8.301 6.9,-13.699 13,-12.699 98.4,15.699 145,-64.903 159.3,-96.301 3,-6.699 9.2,-9.399 14.4,-6.199"
         style="fill:#ffffff;fill-opacity:1;fill-rule:nonzero;stroke:none"
         id="path256" /><path
         d="m 27499.1,269 v 0 c 6.3,3.801 8.6,14.301 4.8,22.199 -17.6,37.602 -72.4,129 -182.2,111.102 -6.3,-1.102 -10.5,-9.301 -9.4,-17.801 l 0.1,-0.297 c 1.1,-8.203 6.9,-13.601 13,-12.601 98.4,15.699 145,-64.899 159.2,-96.301 3.1,-6.699 9.3,-9.399 14.5,-6.301"
         style="fill:#ffffff;fill-opacity:1;fill-rule:nonzero;stroke:none"
         id="path258" /><path
         d="m 27414.4,236.801 v 0 c 6.3,3.801 8.5,14.199 4.8,22.199 -17.6,37.602 -72.4,129 -182.2,111 -6.3,-1 -10.6,-9.199 -9.4,-17.699 V 352 c 1.2,-8.199 6.9,-13.598 13.1,-12.699 98.3,15.801 145,-64.801 159.2,-96.301 3.1,-6.699 9.2,-9.301 14.5,-6.199"
         style="fill:#ffffff;fill-opacity:1;fill-rule:nonzero;stroke:none"
         id="path260" /><g
         id="g262"><g
           id="g264"
           clip-path="url(#clipPath268)"><path
             d="m 27995.8,130.402 h 23.199 v 178.699 h -23.199 z"
             style="fill:#c5cbca;fill-opacity:1;fill-rule:nonzero;stroke:none"
             id="path270" /></g></g><path
         d="m 27978.9,69.3984 c -0.1,0 -0.1,0 -0.2,0 L 27743.8,71 c 62.1,203 168.4,238.801 235.9,238.801 5.6,0 11.1,-0.199 16.1,-0.699 l 22.9,-175.7 v 0 c 0,-0.703 0.1,-1.3 0.2,-2 0,0 0,0 0,-0.101 0,-0.301 0.1,-0.602 0.1,-0.899 2.9,-32.402 -15.6,-61.0036 -40.1,-61.0036"
         style="fill:#090730;fill-opacity:1;fill-rule:nonzero;stroke:none"
         id="path272" /><path
         d="m 29495.6,948.602 28.7,-529.5 -344.8,-2.301 -32.9,489.5 349,42.301"
         style="fill:#ffc0bb;fill-opacity:1;fill-rule:nonzero;stroke:none"
         id="path274" /><path
         d="m 28684.3,7.40234 925.5,-6.30078 c 20.3,-0.10156 36.5,15.79684 36.4,35.60154 l -0.3,26.5977 c -0.2,19.6992 -16.7,35.9023 -36.9,36 l -925.6,6.3012 c -20.2,0.097 -36.5,-15.8012 -36.3,-35.602 l 0.2,-26.5977 c 0.2,-19.8007 16.7,-35.9023 37,-35.99996"
         style="fill:#3d3a55;fill-opacity:1;fill-rule:nonzero;stroke:none"
         id="path276" /><path
         d="m 29597.3,397.602 35.4,-273.204 c 4.4,-33.6988 -14.6,-64.1988 -39.9,-63.9957 l -880.2,5.8985 c -22.9,0.1992 -45.6,14.3008 -57.8,40.5972 -12.6,26.903 -15.4,67.403 23.5,121.504 77.8,108.301 336.5,133.098 462.4,225.098 l 410,-2.801 c 22.9,-0.097 42.6,-22.597 46.6,-53.097"
         style="fill:#09083c;fill-opacity:1;fill-rule:nonzero;stroke:none"
         id="path278" /><path
         d="m 29204.3,294.5 v 0 c 6.3,3.801 8.6,14.301 4.8,22.301 -17.6,37.5 -72.4,128.898 -182.2,111 -6.3,-1.098 -10.5,-9.301 -9.4,-17.801 l 0.1,-0.301 c 1.1,-8.199 6.8,-13.597 13,-12.597 98.3,15.699 145,-64.903 159.2,-96.301 3.1,-6.699 9.3,-9.399 14.5,-6.301"
         style="fill:#ffffff;fill-opacity:1;fill-rule:nonzero;stroke:none"
         id="path280" /><path
         d="m 29113.2,260 v 0 c 6.3,3.801 8.6,14.203 4.8,22.199 -17.6,37.5 -72.4,129 -182.2,111 -6.3,-1 -10.5,-9.199 -9.4,-17.699 l 0.1,-0.301 c 1.1,-8.199 6.8,-13.699 13,-12.699 98.3,15.801 145,-64.801 159.2,-96.301 3.1,-6.699 9.2,-9.301 14.5,-6.199"
         style="fill:#ffffff;fill-opacity:1;fill-rule:nonzero;stroke:none"
         id="path282" /><path
         d="m 29028.5,227.801 v 0 c 6.3,3.801 8.5,14.199 4.8,22.199 -17.6,37.5 -72.5,129 -182.2,111 -6.3,-1 -10.6,-9.199 -9.4,-17.699 V 343 c 1.1,-8.301 6.9,-13.699 13,-12.699 98.4,15.801 145,-64.801 159.3,-96.301 3,-6.699 9.2,-9.398 14.5,-6.199"
         style="fill:#ffffff;fill-opacity:1;fill-rule:nonzero;stroke:none"
         id="path284" /><path
         d="m 29632.2,101.5 v 0.102 -0.102 m 0,0.203 c 0,0.098 0.1,0.195 0.1,0.297 0,-0.102 -0.1,-0.199 -0.1,-0.297 m 0.1,0.297 c 0,0.102 0,0.199 0,0.301 0,-0.102 0,-0.199 0,-0.301 m 0,0.402 c 1.1,6 1.4,12.5 0.8,19.098 0.6,-6.598 0.3,-13.098 -0.8,-19.098 m 0.7,19.899 v 0.101 -0.101 m -0.3,2.097 -22.8,175.704 v 0 l 22.8,-175.704"
         style="fill:#c5cbca;fill-opacity:1;fill-rule:nonzero;stroke:none"
         id="path286" /><path
         d="m 29593,60.4023 c -0.1,0 -0.2,0 -0.2,0 v 0 L 29357.9,62 c 62.1,203 168.4,238.801 235.8,238.801 5.7,0 11.1,-0.301 16.2,-0.699 l 22.8,-175.704 c 0.1,-0.699 0.2,-1.398 0.3,-1.996 v -0.101 c 0,-0.301 0,-0.598 0.1,-0.801 0.6,-6.598 0.3,-13.098 -0.8,-19.098 0,-0.101 0,-0.101 0,-0.101 0,-0.102 0,-0.199 0,-0.301 v 0 c 0,-0.102 -0.1,-0.199 -0.1,-0.297 0,0 0,0 0,-0.101 V 101.5 c -4.3,-23.3984 -19.9,-41.0977 -39.2,-41.0977"
         style="fill:#090730;fill-opacity:1;fill-rule:nonzero;stroke:none"
         id="path288" /><path
         d="M 33847,1711.9 H 22631.4 c -20.9,0 -37.8,16.9 -37.8,37.8 v 115.2 c 0,20.9 16.9,37.9 37.8,37.9 H 33847 c 20.9,0 37.8,-17 37.8,-37.9 v -115.2 c 0,-20.9 -16.9,-37.8 -37.8,-37.8"
         style="fill:#3d3a55;fill-opacity:1;fill-rule:nonzero;stroke:none"
         id="path290" /><path
         d="m 34566,7376.4 c -42.2,-3 -7302.5,-1 -9687.6,-0.3 -414,0.2 -749.5,-335.2 -749.5,-748.9 V 3570 h 8975.4 l 1392.2,1391.2 69.5,2415.2"
         style="fill:#ff5b7e;fill-opacity:1;fill-rule:nonzero;stroke:none"
         id="path292" /><path
         d="m 34344.2,4503.6 h 443.7 c 80.4,0 145.5,65.1 145.5,145.5 v 2581.7 c 0,80.4 -65.1,145.5 -145.5,145.5 h -443.7 c -80.4,0 -145.6,-65.1 -145.6,-145.5 V 4649.1 c 0,-80.4 65.2,-145.5 145.6,-145.5"
         style="fill:#e03268;fill-opacity:1;fill-rule:nonzero;stroke:none"
         id="path294" /><path
         d="m 22228.9,2193.3 h 9222.2 V 4027.1 H 22228.9 V 2193.3"
         style="fill:#e03268;fill-opacity:1;fill-rule:nonzero;stroke:none"
         id="path296" /><path
         d="m 29409.1,4715.1 c 0,0 -1700.6,-6.2 -1963,-347.1 -262.4,-340.9 -461.9,-2643.2 0,-3650.199 0,0 598.4,-21 734.8,62.898 0,0 -42,1699.301 -21,2150.301 21,451.1 335.9,514 377.9,555.9 42,42 871.3,1228.2 871.3,1228.2"
         style="fill:#2b1c35;fill-opacity:1;fill-rule:nonzero;stroke:none"
         id="path298" /><path
         d="m 32014.1,8245.2 64.5,-523.1 -518.9,17.8 14.9,598.6 439.5,-93.3"
         style="fill:#ffc0bb;fill-opacity:1;fill-rule:nonzero;stroke:none"
         id="path300" /><path
         d="m 32033,8092.4 -12.8,103.3 h 0.3 l 12.5,-103.3 v 0"
         style="fill:#e8b5b5;fill-opacity:1;fill-rule:nonzero;stroke:none"
         id="path302" /><path
         d="m 31742.4,8039 c -56.9,0 -116.3,6.7 -174.6,23.9 l 6.8,275.6 445.6,-142.8 12.8,-103.3 c -66.6,-24.9 -173.5,-53.4 -290.6,-53.4"
         style="fill:#fda19a;fill-opacity:1;fill-rule:nonzero;stroke:none"
         id="path304" /><path
         d="m 30949,9073.5 67.2,-356.8 64.8,-19.2 -16.2,452.6 -115.8,-76.6"
         style="fill:#fee4cb;fill-opacity:1;fill-rule:nonzero;stroke:none"
         id="path306" /><path
         d="m 31110.3,8781.7 c 37.1,-74.7 18.7,-159.4 -41.2,-189.1 -60,-29.7 -138.7,6.8 -175.8,81.5 -37.2,74.7 -18.7,159.3 41.2,189 59.9,29.8 138.6,-6.7 175.8,-81.4"
         style="fill:#f99893;fill-opacity:1;fill-rule:nonzero;stroke:none"
         id="path308" /><path
         d="m 31165.7,8332.6 c -21.7,31.8 -40.5,65.9 -56.3,101.8 -44.3,96.4 -70.7,200.2 -86.4,291.3 -3.4,19.6 -7.9,38.9 -12.7,58.1 -19.7,77.7 -25.6,161.1 -13.4,248.3 39.2,280.5 262.7,506.3 543.4,548.2 378.2,56.4 714.7,-219.7 742.1,-590 38.7,25.4 83.6,33.9 124.8,19.1 79.1,-28.4 114.2,-131.5 78.6,-230.1 -35.7,-98.6 -128.8,-155.6 -207.8,-127.2 -11,4 -21,9.5 -30.3,16.1 -8.9,-317.5 -249.6,-579.9 -560.3,-597.9 -152,-8.8 -294,42.5 -404.7,133.9 -7.4,5.3 -15.1,11.5 -23.3,18.8 -36.1,32.1 -67,69.3 -93.7,109.6"
         style="fill:#ffc0bb;fill-opacity:1;fill-rule:nonzero;stroke:none"
         id="path310" /><path
         d="m 31707.4,8891.4 c 1.7,-31.1 28.4,-54.8 59.5,-53 31.2,1.8 55,28.4 53.2,59.5 -1.8,31 -28.5,54.8 -59.6,53 -31.1,-1.8 -54.9,-28.5 -53.1,-59.5"
         style="fill:#333333;fill-opacity:1;fill-rule:nonzero;stroke:none"
         id="path312" /><path
         d="m 31225.1,8831.7 c 1.8,-31.1 28.5,-54.8 59.6,-53 31.1,1.8 54.9,28.5 53.2,59.5 -1.8,31.1 -28.5,54.8 -59.6,53 -31.2,-1.8 -55,-28.4 -53.2,-59.5"
         style="fill:#333333;fill-opacity:1;fill-rule:nonzero;stroke:none"
         id="path314" /><path
         d="m 31632.9,8999 c 27,12.9 52.8,23.5 78.9,31.3 26.1,7.7 52.2,11.9 78.1,12 25.8,-0.1 52.1,-2.5 77.9,-10.7 l 9.9,-2.5 c 3.3,-0.9 6.4,-2.4 9.7,-3.5 l 19.7,-6.9 c 13.3,-5 25.9,-11.6 40.6,-16.3 -9,11.7 -18.9,23.2 -30.1,33.4 -12.1,8.7 -23.5,19.5 -37.8,25.5 -26.9,15.3 -59,21.9 -90.4,21.9 -31.7,-0.3 -63,-8.7 -90,-23.5 -26.8,-15 -50.7,-35 -66.5,-60.7"
         style="fill:#07085b;fill-opacity:1;fill-rule:nonzero;stroke:none"
         id="path316" /><path
         d="m 31406.8,8974.3 c -20.9,21.8 -48.6,36.2 -78,45.1 -29.5,8.5 -61.9,10.1 -92.9,3.5 -30.7,-6.8 -60.6,-20.1 -83.6,-40.8 -12.6,-9.1 -21.5,-22 -31.5,-33.2 -8.7,-12.3 -15.9,-25.6 -22.1,-39 13.3,7.7 24.1,16.9 36.1,24.6 l 17.8,11 c 3,1.8 5.6,3.9 8.7,5.5 l 9.1,4.6 c 23.5,13.6 48.6,21.5 73.8,27.3 25.4,5.4 51.8,6.9 78.8,5 27.2,-1.9 54.7,-6.8 83.8,-13.6"
         style="fill:#07085b;fill-opacity:1;fill-rule:nonzero;stroke:none"
         id="path318" /><path
         d="m 30858.8,9497.7 c 0,0 -193.3,-15.8 1.9,157.6 195.2,173.4 731.3,391.8 1089.9,224.9 0,0 62.6,151.7 165.4,121.3 102.8,-30.4 -59,-140.7 -59,-140.7 0,0 128.9,10.6 171.3,-50.7 31.4,-45.2 -47.5,-51.2 -90.8,-51.2 74.1,-8.8 320.8,-138.6 207.1,-712.3 -50.7,8.6 -456.4,341.1 -456.4,341.1 0,0 -530.7,-353.9 -468.4,-165.5 0,0 -633,-360.1 -553.8,-6.4 0,0 -261.4,-32.1 -7.2,281.9"
         style="fill:#07085b;fill-opacity:1;fill-rule:nonzero;stroke:none"
         id="path320" /><path
         d="m 31494,8989.2 c 14.5,-38 22.7,-77.9 26.2,-118.7 1.7,-20.4 1.8,-41.1 -0.4,-62.3 -2.6,-21.1 -6.9,-42.9 -19.7,-64.2 l -5.6,-7.7 -5.1,-6.7 c -2.1,-3.1 -5.4,-5.8 -6.8,-9.1 -4,-6.2 -6.4,-12.8 -7.2,-19.6 -2.4,-13.8 4.5,-28.5 14.8,-41.5 22.3,-26.1 60.5,-39.7 100.1,-46.5 -39,-8.9 -85.7,-5.4 -121.4,25.2 -17.4,14.7 -31.2,38.6 -30,65.1 0.3,6.5 1.1,13 3.3,19.1 1.5,6.4 4.5,11.9 7.5,17.5 2.7,5.9 7.1,10.1 10.7,15.1 2.3,2.8 2.7,3.7 3.9,5.3 l 3.1,4.3 c 8.1,12.9 12.7,30.8 16.2,48.9 3.9,18.2 4.6,37.5 6.5,56.8 2.2,38.9 2.6,78.5 3.9,119"
         style="fill:#f99893;fill-opacity:1;fill-rule:nonzero;stroke:none"
         id="path322" /><path
         d="m 31888.2,9387.7 c 0,0 224.3,-354.1 229.3,-563.5 0,0 94.7,187.6 250.9,192.4 0,0 50.8,352.7 -44.6,573.1 l -352.8,-75.5 -82.8,-126.5"
         style="fill:#07085b;fill-opacity:1;fill-rule:nonzero;stroke:none"
         id="path324" /><path
         d="m 31435.1,7939.6 c 0,0 157.5,-246.5 682.3,0 0,0 950,262.2 1023.5,-865.4 l 36.8,-1048.9 c 0,0 -490.8,-1.7 -742.7,-11 l -7.9,-219.7 -1432.9,-1164.3 c 0,0 -850.3,73.4 -1023.5,157.3 0,0 304.5,603.1 351.7,739.5 47.2,136.3 81.3,1452.7 131.2,1589.1 49.9,136.3 196.4,804.7 981.5,823.4"
         style="fill:#feb546;fill-opacity:1;fill-rule:nonzero;stroke:none"
         id="path326" /><path
         d="m 30729.5,7150.3 c -19.1,-31.4 -34.4,-64.6 -47.5,-98.7 -7.2,-16.7 -12.7,-34.1 -19.2,-51.2 l -16.3,-52.1 c -20.7,-69.9 -36,-141.3 -46.9,-213.4 -13,-71.8 -18.8,-144.7 -25,-217.4 -2.6,-36.5 -4.1,-73 -6.2,-109.5 -1.1,-36.6 -1.6,-73.2 -3.3,-109.9 -2.4,36.6 -3.5,73.3 -5.3,110 0.3,36.6 0.3,73.4 1.2,110.1 3.4,73.4 9.4,146.8 21.2,219.5 12.4,72.5 27.6,144.8 51.3,214.6 23.9,69.5 52.2,138.7 96,198"
         style="fill:#452b52;fill-opacity:1;fill-rule:nonzero;stroke:none"
         id="path328" /><path
         d="m 29917.4,6369.3 c -12.9,-0.5 -532.5,314.2 -532.5,314.2 l -97.1,-20.6 34.5,-25.5 -58.1,14.6 -94.5,-14.6 c 0,0 312.3,-368.2 317.6,-378.7 5.2,-10.5 141.7,-63 152.2,-68.2 10.5,-5.2 277.9,178.8 277.9,178.8"
         style="fill:#daeef7;fill-opacity:1;fill-rule:nonzero;stroke:none"
         id="path330" /><path
         d="m 30748.9,6620.6 -47.2,29.5 -21.7,-14.8 v 27.6 l -29.5,20.6 -755.8,-298.9 c 0,0 242.1,-153.5 250,-147.5 7.8,5.8 438.9,84.5 446.7,96.3 7.9,11.8 157.5,287.2 157.5,287.2"
         style="fill:#daeef7;fill-opacity:1;fill-rule:nonzero;stroke:none"
         id="path332" /><path
         d="m 30737,6634.5 -856.7,-277.2 -690.8,300.5 c -41.9,18.3 -87.9,-15.6 -82.8,-61 l 131.6,-1176.6 c 2.1,-19.6 13.9,-36.8 31.3,-45.9 l 663.3,-349.4 600.8,222.2 15.5,22.7 77.8,11.8 252,93.2 c 22.5,8.4 36.6,30.7 34.6,54.6 l -99.1,1153.7 c -3.3,38.1 -41.2,63.2 -77.5,51.4"
         style="fill:#e03268;fill-opacity:1;fill-rule:nonzero;stroke:none"
         id="path334" /><path
         d="m 30814.5,6583.1 c -2.7,31.4 -28.9,54 -58.5,54.4 29.6,-0.4 55.8,-23 58.5,-54.4 m -77.5,51.4 c 0.2,0.1 0.5,0.2 0.8,0.3 -0.3,-0.1 -0.6,-0.2 -0.8,-0.3 m 18.2,3 h 0.1 v 0 h -0.1"
         style="fill:#ee6c31;fill-opacity:1;fill-rule:nonzero;stroke:none"
         id="path336" /><path
         d="m 29985.9,5050.9 -105.6,1306.4 856.7,277.2 v 0 c 0.2,0.1 0.5,0.2 0.8,0.3 5.8,1.8 11.7,2.6 17.4,2.7 h 0.1 c 0.3,0 0.5,0 0.7,0 29.6,-0.4 55.8,-23 58.5,-54.4 v 0 l 98.9,-1152.2 c 2.2,-24.8 -12.5,-47.9 -35.9,-56.6 l -250.5,-92.7 -77.8,-11.8 -15.5,-22.7 -547.8,-196.2"
         style="fill:#d21e49;fill-opacity:1;fill-rule:nonzero;stroke:none"
         id="path338" /><path
         d="m 29752.5,6216.7 -534.2,233.4 17,-242.6 523.6,-242.5 -6.4,251.7"
         style="fill:#c1215b;fill-opacity:1;fill-rule:nonzero;stroke:none"
         id="path340" /><path
         d="m 31023.1,5451.5 c 2.3,7.8 7,19 -3.6,26.9 -2.9,1.9 -5.8,3.9 -8.7,5.8 -42.3,28.3 -71.2,62.6 -92.8,108.7 -4.8,10.2 -10.2,26.7 -16,33.5 -4.1,4.8 -5.2,-2 -5.2,-2 l 9.5,-110 -127.7,-46.5 c 0,0 -223.7,-35.2 -333.9,13.3 0,0 -57.7,40.6 -39.4,-32.8 1.8,-7.1 5.8,-13.5 11.6,-19.5 -8.1,-5 -16.9,-17.9 -1.1,-67.4 0.6,-1.9 1.4,-3.7 2.4,-5.6 -4,-29.4 -0.9,-66.3 31.6,-86.1 7.5,-24.3 25.4,-50.5 66.5,-62.3 57,-16.4 187.4,-34.6 269.9,-45.1 72.3,-11.1 124.5,-16.1 153.3,-10.3 l 30.4,-4.9 c -0.3,8 78.4,120.1 86.7,168.1 8.4,48.1 -47.1,89.5 -33.5,136.2"
         style="fill:#ffc0bb;fill-opacity:1;fill-rule:nonzero;stroke:none"
         id="path342" /><path
         d="m 31019.5,5478.4 c 0,0 775.1,39.5 991.7,114.2 216.5,74.8 415.9,202 415.9,202 v 220.2 l 735.4,11 c 0,0 92.6,-673.1 -116,-751.8 -208.7,-78.6 -1642.5,-204.5 -2107,-121.9 l 80,326.3"
         style="fill:#ffc0bb;fill-opacity:1;fill-rule:nonzero;stroke:none"
         id="path344" /><path
         d="m 30416.9,5359.8 c 13.3,-15.5 30.4,-27.2 48.3,-37.1 17.9,-9.9 37.3,-17 57,-22.5 19.8,-4.9 40.1,-8.3 60.5,-9.2 10.1,-0.7 20.3,-0.1 30.5,-0.2 10.1,0.7 20.2,1.6 30.3,2.9 -20.3,0.9 -40.4,1.6 -60.2,4.1 -19.9,2.5 -39.6,6 -58.9,11 -19.2,5.1 -38,11.7 -56.2,19.9 -18,8.4 -35.6,18.4 -51.3,31.1"
         style="fill:#f99893;fill-opacity:1;fill-rule:nonzero;stroke:none"
         id="path346" /><path
         d="m 30449.5,5269.6 c 14.5,-14.3 32.5,-24.7 51.1,-33.1 18.6,-8.5 38.5,-14.1 58.6,-18 20.1,-3.3 40.6,-5.1 61,-4.3 10.2,0 20.3,1.4 30.4,2.1 10.1,1.6 20.1,3.2 30,5.2 -20.3,-0.6 -40.3,-1.5 -60.4,-0.5 -20,0.8 -39.8,2.8 -59.5,6.2 -19.5,3.6 -38.8,8.8 -57.6,15.5 -18.6,7 -36.9,15.5 -53.6,26.9"
         style="fill:#f99893;fill-opacity:1;fill-rule:nonzero;stroke:none"
         id="path348" /><path
         d="m 30416.9,5428.9 c 13.3,-15.4 30.4,-27.2 48.3,-37.1 17.9,-9.9 37.3,-17 57,-22.4 19.8,-5 40.1,-8.4 60.5,-9.2 10.1,-0.7 20.3,-0.2 30.5,-0.3 10.1,0.8 20.2,1.7 30.3,2.9 -20.3,1 -40.4,1.6 -60.2,4.2 -19.9,2.4 -39.6,5.9 -58.9,10.9 -19.2,5.1 -38,11.8 -56.2,20 -18,8.4 -35.6,18.3 -51.3,31"
         style="fill:#f99893;fill-opacity:1;fill-rule:nonzero;stroke:none"
         id="path350" /><path
         d="m 32979.5,6024.6 c -66,0 -132.1,0.2 -198.1,1.1 l -198,2.8 c -62.9,1.2 -125.8,2.8 -188.6,5 6.4,64.5 11.5,129.1 14.7,193.8 3,68 5.9,135.9 5.6,203.8 0.1,68 -0.8,135.9 -2.8,203.8 -2.7,67.8 -5.7,135.7 -11.4,203.3 1.6,-67.8 2.9,-135.7 2.6,-203.5 0.4,-67.8 -0.3,-135.6 -2.1,-203.4 -1.9,-67.7 -4.1,-135.5 -8.1,-203.1 -3.7,-67.6 -9.8,-135.1 -17,-202.3 l -1,-9.6 9.5,-0.2 c 66.2,-1.8 132.2,-2.9 198.3,-3.6 66.1,-0.6 132.2,-1.2 198.3,-0.3 132.2,1.3 264.4,4.8 396.3,13.1 -66.1,-0.3 -132.1,-1.2 -198.2,-0.7"
         style="fill:#452b52;fill-opacity:1;fill-rule:nonzero;stroke:none"
         id="path352" /><path
         d="m 29343.1,6053.3 c -8.9,18.5 -164.9,-8.4 -166.5,2.7 -1.7,11.1 153.5,88.9 149.5,107.4 -4.5,20.6 -168.6,-34.8 -179.6,-27.2 -11,7.6 135.1,128 107.6,143.3 -20.9,11.6 -120.1,-56.7 -166.9,-90.5 -15,-10.8 -22.4,-29.3 -18.9,-47.5 l 63.2,-374.6 c 5.5,-32.8 35,-56.2 68.3,-54.2 l 5.6,0.3 -8.9,203 c 47,1.6 134.9,7 127.3,24.3 -7,16 -82.7,28 -129.9,33.9 l -0.2,3.7 c 0.8,7.4 157.4,58.7 149.4,75.4"
         style="fill:#ffc0bb;fill-opacity:1;fill-rule:nonzero;stroke:none"
         id="path354" /><path
         d="M 27174.1,2779 H 23111 c -368,0 -666.2,298 -666.2,665.6 v 1837.9 c 0,237.5 -192.7,430 -430.4,430 -237.7,0 -430.4,-192.5 -430.4,-430 V 3397.3 c 0,-825.4 669.6,-1494.5 1495.7,-1494.5 h 1061.6 880.8 1025.2 94.5 1049.8 c -22.3,288.5 -26.7,588.3 -17.5,876.2"
         style="fill:#ff85a5;fill-opacity:1;fill-rule:nonzero;stroke:none"
         id="path356" /><path
         d="m 28155.7,2779 c -3.5,-219.1 -1,-548 3.6,-876.2 h 2068.6 V 2779 h -2072.2"
         style="fill:#ff85a5;fill-opacity:1;fill-rule:nonzero;stroke:none"
         id="path358" /><path
         d="m 31512,5707.2 3060.2,-21.9 c 295.6,0 535.3,-239.5 535.3,-534.9 V 3264.3 c 0,-751.9 -610,-1361.5 -1362.6,-1361.5 h -3172.2 c 0,0 629.8,1097.3 629.8,1128.7 0,31.5 309.5,2675.7 309.5,2675.7"
         style="fill:#f9537f;fill-opacity:1;fill-rule:nonzero;stroke:none"
         id="path360" /><path
         d="m 31550.6,5712.5 v 0 c -237.7,0 -430.4,-192.5 -430.4,-430 V 3444.6 c 0,-12.6 -0.4,-25.2 -1.1,-37.6 l 0.1,-0.4 h -0.1 C 31099.4,3056.7 30809.2,2779 30454,2779 h -909.4 c 27,-261.7 60.8,-573.6 94.1,-876.2 h 846.7 c 826,0 1495.6,669.1 1495.6,1494.5 v 1885.2 c 0,237.5 -192.7,430 -430.4,430"
         style="fill:#ff85a5;fill-opacity:1;fill-rule:nonzero;stroke:none"
         id="path362" /><path
         d="m 29601.3,2244.6 c -15.3,141.8 -35.2,326 -56.7,534.4 -38.6,409.3 -78.5,678.4 -35.6,649.7 147.7,53.4 1063.5,8.5 1610.1,-22.1 h 0.1 c 3.3,90.5 -0.2,1486.3 1,1559.1 C 27529.9,4666.9 28321,4052.2 28657.7,1930 c 1.9,-9.1 3.8,-18.2 5.6,-27.2 146.1,-701.8 283.9,-1279.398 283.9,-1279.398 0,0 524.9,-21 829.3,52.399 0.4,-3.199 -94.6,825.699 -175.2,1568.799"
         style="fill:#3a2645;fill-opacity:1;fill-rule:nonzero;stroke:none"
         id="path364" /><path
         d="m 23549.9,187.102 432.4,266.597 373.5,-225.5 -130.5,-92.797 -452.9,-63.8004 c 0,0 -176.7,22.6015 -184.5,27.7968 -7.8,5.3006 -38,87.7036 -38,87.7036"
         style="fill:#f7aeaa;fill-opacity:1;fill-rule:nonzero;stroke:none"
         id="path366" /><path
         d="m 23549.9,187.102 -109.6,-70.5 C 23389.5,84.6016 23412,6.19922 23472.1,5.90234 L 24301.7,2 c 29.3,-0.10156 53.1,23.4023 53.3,52.6992 l 0.8,173.4998 C 23802.4,55 23611.8,109.398 23549.9,187.102"
         style="fill:#ff6088;fill-opacity:1;fill-rule:nonzero;stroke:none"
         id="path368" /><path
         d="m 24021.7,187.102 432.4,266.597 373.5,-225.5 -130.5,-92.797 -452.9,-63.8004 c 0,0 -176.7,22.6015 -184.5,27.7968 -7.8,5.3006 -38,87.7036 -38,87.7036"
         style="fill:#ffc0bb;fill-opacity:1;fill-rule:nonzero;stroke:none"
         id="path370" /><path
         d="m 24021.7,187.102 -109.6,-70.5 C 23861.3,84.6016 23883.8,6.19922 23943.9,5.90234 L 24773.5,2 c 29.3,-0.10156 53.1,23.4023 53.3,52.6992 l 0.8,173.4998 C 24274.2,55 24083.6,109.398 24021.7,187.102"
         style="fill:#ff6088;fill-opacity:1;fill-rule:nonzero;stroke:none"
         id="path372" /><path
         d="m 26340.4,7803.9 c 223,156.2 104.6,218.9 235.6,354.7 102,105.8 133.8,184.9 131.8,262.3 2.5,77.4 -28.6,156.7 -129.8,263.3 -130,136.7 -11.2,198.5 -232.9,356.4 -221.8,157.8 -457.5,-224.9 -457.5,-224.9 l -243.2,-300.5 45.5,-155.8 -95.3,-303.6 c 0,0 522.9,-408 745.8,-251.9"
         style="fill:#07085b;fill-opacity:1;fill-rule:nonzero;stroke:none"
         id="path374" /><path
         d="m 24256.6,4829.6 c 0,0 -923.8,-346.2 -976.3,-618.9 -52.5,-272.7 325.4,-3734.2 488.1,-3902.001 0,0 336.7,-94.398 601.4,52.5 264.7,146.801 138.7,1290.101 138.7,1321.601 0,31.5 296.5,1709.7 295.2,1772.7 -1.3,62.9 481.5,818.1 597,923 115.6,104.9 301.9,616.2 301.9,616.2 l -1446,-165.1"
         style="fill:#030321;fill-opacity:1;fill-rule:nonzero;stroke:none"
         id="path376" /><path
         d="m 26978,5088.9 c 0,0 71.9,-905.2 -181.1,-1227.8 -253,-322.5 -1684.8,-329.6 -1684.8,-329.6 L 24827.6,228.199 c 0,0 -380.5,23.504 -624.6,70.703 0,0 -201,3641.698 58.8,3885.598 259.8,243.8 1440.8,810.2 1440.8,810.2 l 1275.4,94.2"
         style="fill:#09083c;fill-opacity:1;fill-rule:nonzero;stroke:none"
         id="path378" /><path
         d="m 25487.5,9420.4 c 0,0 -384.6,146.7 -611.8,-176.6 -174,-247.6 -137.6,-586.3 74.2,-802.5 l 85.7,-87.5 c 0,0 350,376.4 353.8,394.5 3.8,18.2 98.1,672.1 98.1,672.1"
         style="fill:#07085b;fill-opacity:1;fill-rule:nonzero;stroke:none"
         id="path380" /><path
         d="m 25226.8,7562.1 c 0,0 541.5,99.6 790.5,91.2 249,-8.4 -150.9,-655.4 -150.9,-655.4 l -406.7,-9 c 0,0 -249.3,278.2 -232.9,310.6 16.4,32.4 -0.8,244.6 -0.8,244.6 l 0.8,18"
         style="fill:#ffc0bb;fill-opacity:1;fill-rule:nonzero;stroke:none"
         id="path382" /><path
         d="m 25836.3,8102.7 97.2,-445.6 c 0,0 -150.4,-242.7 -517.6,-93 0,0 52.5,84.7 13.7,274.5 -39.7,193.9 406.7,264.1 406.7,264.1"
         style="fill:#ffc0bb;fill-opacity:1;fill-rule:nonzero;stroke:none"
         id="path384" /><path
         d="m 25441.3,7659 c 3.4,31.8 3.9,71.8 -2,120.8 v -0.1 c 6,-48.9 5.5,-88.9 2.1,-120.7 h -0.1"
         style="fill:#e8b5b5;fill-opacity:1;fill-rule:nonzero;stroke:none"
         id="path386" /><path
         d="m 25881.8,7894 -11.9,54.6 c 0.1,0.1 0.1,0.1 0.2,0.2 l 11.9,-54.3 c 0,-0.2 -0.1,-0.3 -0.2,-0.5"
         style="fill:#9a5874;fill-opacity:1;fill-rule:nonzero;stroke:none"
         id="path388" /><path
         d="m 25441.4,7659 c 3.4,31.8 3.9,71.8 -2.1,120.7 13.2,-0.9 26.3,-1.4 39.4,-1.4 150.9,0 290.3,64.5 391.2,170.3 l 11.9,-54.6 c -55.1,-142.7 -194.4,-229.2 -440.4,-235"
         style="fill:#fda19a;fill-opacity:1;fill-rule:nonzero;stroke:none"
         id="path390" /><path
         d="m 25002.7,8508.3 c 23.4,-73.1 -5,-147.6 -63.6,-166.4 -58.6,-18.7 -125.1,25.4 -148.5,98.6 -23.5,73.2 5,147.6 63.6,166.4 58.6,18.7 125.1,-25.4 148.5,-98.6"
         style="fill:#f99893;fill-opacity:1;fill-rule:nonzero;stroke:none"
         id="path392" /><path
         d="m 24990.9,8091.8 c -15.3,32 -27.7,65.6 -37,100.5 -27,93.8 -36.6,192.1 -38.3,277.2 -0.3,18.3 -1.7,36.5 -3.5,54.6 -7.1,73.5 -0.9,150.3 22.3,228 74.4,249.9 308.8,424.4 569.8,423.6 351.6,-1.1 619.2,-299.2 592.8,-640.1 38.7,17.7 80.8,19.2 116.2,0 67.9,-36.8 85.6,-135.5 39.5,-220.3 -46.1,-84.9 -138.5,-123.8 -206.4,-86.9 -9.5,5.1 -17.8,11.5 -25.3,18.8 -52,-287.8 -307.2,-493.4 -592.2,-466.6 -139.3,13.1 -261.3,79.5 -349.3,178.1 -6,5.8 -12.1,12.6 -18.6,20.4 -28.3,34.1 -51.2,72.3 -70,112.7"
         style="fill:#ffc0bb;fill-opacity:1;fill-rule:nonzero;stroke:none"
         id="path394" /><path
         d="m 25371.6,8597.5 c 7.9,-33.2 10.2,-67.3 8.6,-101.6 -0.9,-17.2 -3.1,-34.4 -7.3,-51.8 -4.5,-17.2 -10.4,-34.8 -23.4,-51.2 l -5.6,-5.8 -4.9,-4.9 c -2.1,-2.4 -5.1,-4.2 -6.7,-6.8 -4,-4.7 -6.7,-10 -8.1,-15.6 -3.6,-11.2 0.5,-24.1 7.7,-36.1 15.6,-24.2 45.8,-39.8 77.9,-49.9 -33.4,-3 -71.8,5.1 -98,34.5 -12.8,14.2 -21.6,35.6 -17.7,57.5 1,5.4 2.4,10.7 4.9,15.5 1.9,5.2 5.1,9.5 8.1,13.8 3,4.5 7.1,7.5 10.6,11.3 2.3,2.1 2.7,2.8 3.8,4 l 3.1,3.3 c 8.1,9.8 14,24.2 18.9,38.8 5.3,14.7 8,30.7 11.7,46.5 6.2,32.1 10.9,64.9 16.4,98.5"
         style="fill:#f99893;fill-opacity:1;fill-rule:nonzero;stroke:none"
         id="path396" /><path
         d="m 25560.7,8525.3 c -2.7,-28.5 18.2,-53.8 46.8,-56.5 28.5,-2.7 53.8,18.3 56.5,46.8 2.7,28.5 -18.3,53.8 -46.8,56.5 -28.5,2.7 -53.9,-18.3 -56.5,-46.8"
         style="fill:#333333;fill-opacity:1;fill-rule:nonzero;stroke:none"
         id="path398" /><path
         d="m 25114.1,8537.9 c -2.7,-28.5 18.2,-53.8 46.8,-56.5 28.5,-2.7 53.8,18.3 56.5,46.8 2.7,28.5 -18.3,53.9 -46.8,56.5 -28.5,2.7 -53.9,-18.2 -56.5,-46.8"
         style="fill:#333333;fill-opacity:1;fill-rule:nonzero;stroke:none"
         id="path400" /><path
         d="m 25397.8,8023.9 c -2.8,0 -5.6,0 -8.4,0.2 -124.2,5.3 -140,119.9 -140,119.9 16.7,10.1 33.8,13.9 49.9,13.9 45.8,0 84.2,-30 84.2,-30 26.6,13.8 52.9,18.2 75.6,18.2 40.5,0 69.7,-14 69.7,-14 0,0 -14.5,-108.2 -131,-108.2"
         style="fill:#fda8a3;fill-opacity:1;fill-rule:nonzero;stroke:none"
         id="path402" /><path
         d="m 25597.6,8165.4 c -15.1,-9.9 -30.7,-18.8 -47,-26.3 -16.1,-7.8 -32.6,-14.6 -49.5,-20 -33.8,-10.8 -68.9,-17.2 -104.1,-16.5 -35.2,0.5 -69.9,8.5 -102.5,22.3 -32.4,14.2 -62.3,34.3 -90.1,57.3 12,-13.4 25.2,-26 39.5,-37.3 14.2,-11.4 30,-20.9 46.2,-29.5 16.4,-8.2 33.8,-14.7 51.7,-19.2 18,-4.3 36.5,-6.7 54.9,-7.2 37.1,-0.4 73.9,6.8 107.9,20.3 34,13.5 66,31.9 93,56.1"
         style="fill:#f99893;fill-opacity:1;fill-rule:nonzero;stroke:none"
         id="path404" /><path
         d="m 25512.5,8650.4 c 27.4,4.4 52.9,7.1 77.8,7.4 24.8,0.3 48.8,-2.4 71.6,-8.5 22.6,-6.4 45.2,-14.6 66.1,-27.9 11.3,-5.3 20.7,-13.8 31.9,-20.5 10.8,-7.4 20.5,-16.3 32.6,-23.8 -4.7,12.9 -10.6,25.6 -17.9,37.5 -8.4,11.1 -16.1,23.3 -27.2,32.4 -20.1,20.4 -47.1,34.2 -75.3,41.8 -28.3,7.6 -58.4,7.5 -86,0.8 -27.6,-7 -53.6,-19.5 -73.6,-39.2"
         style="fill:#07085b;fill-opacity:1;fill-rule:nonzero;stroke:none"
         id="path406" /><path
         d="m 25282.5,8657 c -18.2,21.2 -43.1,35.9 -69.9,45.2 -27,9.1 -56.9,11.8 -85.8,6.7 -28.7,-5.2 -56.8,-16.7 -78.6,-35.3 -11.8,-8.1 -20.6,-19.6 -29.8,-29.9 -8.3,-11.3 -15.3,-23.5 -21.1,-35.8 12.7,6.4 23.1,14.4 34.5,20.8 11.8,5.7 21.8,13.4 33.6,17.8 21.9,11.4 45.1,17.7 68.2,22.1 23.3,4.2 47.4,4.8 72.1,2.4 24.8,-2.5 50,-7.3 76.8,-14"
         style="fill:#07085b;fill-opacity:1;fill-rule:nonzero;stroke:none"
         id="path408" /><path
         d="m 24611.4,6508 c 0,0 -49.3,-1226.9 -187.4,-1419.1 l 759.4,172.5 v 1335.3 l -572,-88.7"
         style="fill:#ffc0bb;fill-opacity:1;fill-rule:nonzero;stroke:none"
         id="path410" /><path
         d="m 24935,6340.5 c 0,0 105.7,-308.8 124.9,-472.9 47.7,-407.3 -4.1,-694.6 -88.5,-926.5 -118.4,-325.2 848.1,-206.9 867.9,-197.1 19.7,9.9 848.1,330.2 848.1,330.2 l 157.8,458.2 v 808.1 L 26800.8,6710 24935,6340.5"
         style="fill:#02ccc0;fill-opacity:1;fill-rule:nonzero;stroke:none"
         id="path412" /><path
         d="m 27249.6,6710 -608.2,-206.9 c 0,0 105.2,-972.3 72.3,-1110.3 -28.1,-117.9 -469.1,-352.4 -748.6,-483.7 -45,-21.1 -94.6,-30.1 -144.1,-26.1 -159.2,13.1 -441.4,37.7 -485.7,40.8 -69.6,4.8 -260.9,-0.1 -267,-24.5 -5.7,-22.6 149.4,2.3 250,-18.5 14.2,-2.9 6.6,-21.8 3.3,-21.9 -53.4,-2 -190.8,-7.8 -236,-22.9 -55.4,-18.4 140.6,-3.8 246.5,-23.3 7.5,-1.3 13.4,-22.3 8,-27.7 -12.6,-12.4 -58.7,-23.3 -185.2,-36.2 -211.1,-21.6 -4.6,-47.7 -4.6,-47.7 0,0 19,5.4 200.3,30.2 6.7,0.9 14.1,-17.9 4.1,-26.7 -17.5,-15.3 -58.1,-45.6 -112.6,-61.7 -67.9,-20 -18.5,-37.6 -18.5,-37.6 0,0 128.5,38.2 200.6,43.6 54,4.1 308.4,-16.6 412.7,-22.6 l 8,17.9 c 141.5,4.1 1269.8,33.4 1378.4,732.2 111.7,719.4 26.3,1333.6 26.3,1333.6"
         style="fill:#ffc0bb;fill-opacity:1;fill-rule:nonzero;stroke:none"
         id="path414" /><path
         d="M 22828.9,6013.7 H 24767 l 549.5,-1340.3 h 933.6 c 26.1,0 47.3,-21.1 47.3,-47.2 0,-26.1 -21.2,-47.2 -47.3,-47.2 H 23473 l -644.1,1434.7"
         style="fill:#07085b;fill-opacity:1;fill-rule:nonzero;stroke:none"
         id="path416" /><path
         d="m 23790,5248.9 c 11.4,-57.1 61.2,-95.3 111.2,-85.3 50.1,10 81.3,64.4 69.9,121.5 -11.4,57.1 -61.3,95.3 -111.3,85.3 -50,-10 -81.3,-64.4 -69.8,-121.5"
         style="fill:#daeef7;fill-opacity:1;fill-rule:nonzero;stroke:none"
         id="path418" /><path
         d="m 25226.8,7562.1 c 0,0 368.1,-429.3 790.5,91.2 0,0 461.5,37.5 801.7,-203.9 340.3,-241.4 544,-783.7 544,-783.7 0,0 -616.4,-310.4 -769.3,-325.2 h -1711.1 c 0,0 -261.3,19.7 -512.8,147.8 0,0 43.4,862 857,1073.8"
         style="fill:#02ccc0;fill-opacity:1;fill-rule:nonzero;stroke:none"
         id="path420" /><path
         d="m 26319.7,6988.9 c 17.7,-52.7 33.3,-106 49,-159.2 15.9,-53.2 30.2,-106.9 44.4,-160.6 13.6,-53.9 27.2,-107.8 39,-162.2 11.7,-54.3 23.2,-108.9 31.9,-164 l -13,13 c 16.8,-1.7 37.5,-1.1 56.5,0.4 19.4,1.3 38.9,4.1 58.3,6.9 38.8,6.9 77.7,14.3 115.9,25.1 l 28.7,7.6 28.5,8.7 c 18.9,5.9 38,11.4 56.8,18.1 l 56.4,19.5 55.7,21.5 c 37.3,14.1 73.8,30.5 110.7,45.6 l 109.1,49.7 108.1,52.2 c 35.6,18.4 71.3,36.7 107.3,54.5 -33.9,-21.4 -68.2,-42.4 -102.5,-63.2 -34.7,-20.3 -69.6,-40 -104.8,-59.5 -35.5,-18.8 -71.3,-37.1 -107.3,-55.1 l -54.8,-25.4 c -18.3,-8.5 -36.5,-17.1 -55.3,-24.4 -74,-32 -150.3,-59 -228.5,-80.5 l -29.3,-7.9 -29.7,-6.7 c -19.7,-5 -40,-8 -60,-11.5 -20.3,-2.8 -40.5,-5.6 -61.1,-6.8 -20.9,-1.4 -40.5,-2.3 -63.6,0.3 l -11.2,1.3 -1.8,11.8 c -16.6,108.9 -38.8,217.5 -61.9,325.8 l -35.2,162.5 -36.3,162.5"
         style="fill:#ffffff;fill-opacity:1;fill-rule:nonzero;stroke:none"
         id="path422" /><path
         d="m 25018.8,7113.6 c -24.2,-63 -46.1,-126.3 -65.6,-190.2 -19.3,-63.9 -36.3,-128.3 -47.6,-193.6 -6.3,-32.5 -10.4,-65.3 -13.1,-98.2 -3.4,-32.8 -3.7,-65.8 -2.5,-98.7 2.4,-65.8 100,-375.5 128.8,-436.8 -40.6,54.4 -146.8,366.7 -154,434.8 -8.3,68.4 -2.6,137.5 8.9,204.6 6.4,33.5 13.9,66.8 23.2,99.5 9.7,32.6 20,65 32.4,96.6 24.4,63.2 53.3,124.8 89.5,182"
         style="fill:#ffffff;fill-opacity:1;fill-rule:nonzero;stroke:none"
         id="path424" /><path
         d="m 26097,8535.6 c 0,0 -613,217 -868.8,675.2 0,0 17,402.1 580.4,236.9 390.3,-114.5 526.6,-642.8 288.4,-912.1"
         style="fill:#07085b;fill-opacity:1;fill-rule:nonzero;stroke:none"
         id="path426" /><path
         d="m 31820.2,8507.3 c -45.9,-7.5 -91.3,-12.4 -136.6,-18.8 -45.3,-6.2 -89.8,-13.3 -134.9,-24.4 40.1,24.2 86.8,35.3 132.5,42 46.1,5.9 92.8,7.6 139,1.2"
         style="fill:#f99893;fill-opacity:1;fill-rule:nonzero;stroke:none"
         id="path428" /><path
         d="m 22808.5,0 h -182.8 l 455.9,1790 171.7,-43.6 L 22808.5,0"
         style="fill:#3d3a55;fill-opacity:1;fill-rule:nonzero;stroke:none"
         id="path430" /><path
         d="m 33630,1.10156 h 182.8 L 33356.9,1791.2 33185.3,1747.5 33630,1.10156"
         style="fill:#3d3a55;fill-opacity:1;fill-rule:nonzero;stroke:none"
         id="path432" /><path
         d="m 31689.2,1.10156 h -182.8 L 31962.3,1791.2 32134,1747.5 31689.2,1.10156"
         style="fill:#3d3a55;fill-opacity:1;fill-rule:nonzero;stroke:none"
         id="path434" /><path
         d="m 29919.3,6379.2 66.6,-1328.3 c 1,-19.7 -15.6,-35.7 -35.3,-34 l -61.9,5.4 c -16.5,1.5 -29.2,15 -29.7,31.4 l -39.3,1335.4 c 0,0 50.4,24.8 99.6,-9.9"
         style="fill:#c1215b;fill-opacity:1;fill-rule:nonzero;stroke:none"
         id="path436" /><path
         d="M 10264.3,2522.4 H 6383.86 V 4118.5 H 10264.3 V 2522.4"
         style="fill:#e03268;fill-opacity:1;fill-rule:nonzero;stroke:none"
         id="path438" /><path
         d="m 3402.81,7482.6 c 48.37,-3.4 3887.83,0 3887.83,0 V 3839.9 H 4801.75 l -1332.37,1331.3 -66.57,2311.4"
         style="fill:#ff5b7e;fill-opacity:1;fill-rule:nonzero;stroke:none"
         id="path440" /><path
         d="m 10186.4,5436 c 0,0 -2662.73,-159 -2662.73,0 0,158.9 0,-692.7 0,-692.7 0,0 1302.27,-233.4 1448.81,-233.4 146.54,0 828.84,-361.3 919.25,-391.4 90.42,-30.2 284.67,776.7 294.67,783.6 10.1,6.9 0,533.9 0,533.9"
         style="fill:#f9537f;fill-opacity:1;fill-rule:nonzero;stroke:none"
         id="path442" /><path
         d="m 3605.78,4733.3 h -405.93 c -82.1,0 -148.65,66.5 -148.65,148.7 v 2451.9 c 0,82.1 66.55,148.7 148.65,148.7 h 405.93 c 82.09,0 148.64,-66.6 148.64,-148.7 V 4882 c 0,-82.2 -66.55,-148.7 -148.64,-148.7"
         style="fill:#e03268;fill-opacity:1;fill-rule:nonzero;stroke:none"
         id="path444" /><path
         d="M 6288.57,5436 H 3144.15 c -282.96,0 -512.35,-229.2 -512.35,-512 V 3119.1 c 0,-719.7 583.85,-1303 1304.05,-1303 l 3237.63,-19.9 c 0,0 -224.74,59.9 -261.7,124.5 -152.41,266.4 -542.84,951.4 -542.84,975.6 0,30.1 -80.37,2539.7 -80.37,2539.7"
         style="fill:#f9537f;fill-opacity:1;fill-rule:nonzero;stroke:none"
         id="path446" /><path
         d="M 9774.56,5024.4 V 3265.6 c 0,-351.9 -285.45,-637.1 -637.57,-637.1 H 7338.02 c -352.11,0 -637.56,285.2 -637.56,637.1 v 1758.8 c 0,227.3 -184.41,411.6 -411.89,411.6 -227.48,0 -411.89,-184.3 -411.89,-411.6 V 3220.2 c 0,-789.9 640.85,-1430.2 1431.38,-1430.2 h 1858.9 c 790.53,0 1431.34,640.3 1431.34,1430.2 v 1804.2 c 0,227.3 -184.4,411.6 -411.9,411.6 -227.44,0 -411.84,-184.3 -411.84,-411.6"
         style="fill:#ff85a5;fill-opacity:1;fill-rule:nonzero;stroke:none"
         id="path448" /><path
         d="m 9825.95,953.301 65.5,-525.399 352.65,-27.402 -5.5,487.301 -412.65,65.5"
         style="fill:#ffc0bb;fill-opacity:1;fill-rule:nonzero;stroke:none"
         id="path450" /><path
         d="M 10779.9,15.9023 9816.55,9.39844 c -21.06,-0.09766 -37.98,16.40236 -37.79,37.00386 l 0.24,27.6993 c 0.18,20.5976 17.4,37.3004 38.45,37.5004 l 963.35,6.5 c 21,0.097 38,-16.399 37.8,-37.0004 l -0.3,-27.6993 c -0.1,-20.6015 -17.4,-37.4023 -38.4,-37.5"
         style="fill:#3d3a55;fill-opacity:1;fill-rule:nonzero;stroke:none"
         id="path452" /><path
         d="M 9829.64,422.102 9792.7,137.699 c -4.55,-35.097 15.25,-66.7967 41.6,-66.5974 l 916.1,6.1992 c 23.8,0.1015 47.4,14.8008 60.2,42.0972 13,28.102 16,70.204 -24.5,126.602 -81.1,112.699 -350.3,138.5 -481.2,234.199 l -426.78,-2.797 c -23.83,-0.203 -44.35,-23.601 -48.48,-55.3"
         style="fill:#e03268;fill-opacity:1;fill-rule:nonzero;stroke:none"
         id="path454" /><path
         d="m 10238.6,314.801 v 0 c -6.6,3.898 -8.9,14.801 -5,23.101 18.3,39.098 75.4,134.2 189.6,115.5 6.6,-1.101 11,-9.601 9.8,-18.402 v -0.301 c -1.2,-8.597 -7.2,-14.297 -13.6,-13.199 -102.3,16.402 -150.9,-67.5 -165.7,-100.199 -3.2,-7 -9.6,-9.801 -15.1,-6.5"
         style="fill:#ffffff;fill-opacity:1;fill-rule:nonzero;stroke:none"
         id="path456" /><path
         d="m 10333.4,278.801 v 0 c -6.6,4 -8.9,14.801 -5,23.199 18.4,39 75.4,134.199 189.6,115.5 6.6,-1.098 11,-9.598 9.8,-18.5 v -0.301 c -1.2,-8.5 -7.2,-14.199 -13.6,-13.199 -102.3,16.398 -150.9,-67.398 -165.7,-100.199 -3.2,-7 -9.6,-9.699 -15.1,-6.5"
         style="fill:#ffffff;fill-opacity:1;fill-rule:nonzero;stroke:none"
         id="path458" /><path
         d="m 10421.6,245.301 v 0 c -6.6,3.902 -8.9,14.801 -5,23.101 18.3,39.098 75.4,134.297 189.6,115.5 6.6,-1 11,-9.601 9.8,-18.402 v -0.301 c -1.2,-8.597 -7.2,-14.199 -13.6,-13.199 -102.3,16.402 -150.9,-67.5 -165.7,-100.199 -3.2,-7 -9.6,-9.801 -15.1,-6.5"
         style="fill:#ffffff;fill-opacity:1;fill-rule:nonzero;stroke:none"
         id="path460" /><path
         d="m 9154.38,942.102 155.88,-507 358.87,-2.5 -62.5,370.199 -452.25,139.301"
         style="fill:#ffc0bb;fill-opacity:1;fill-rule:nonzero;stroke:none"
         id="path462" /><path
         d="m 5974.79,8632.6 c 0,0 -107.18,540.5 206.06,730.6 313.24,190.1 636.01,156.4 851.74,28.5 215.74,-128 331.28,-551.9 223.06,-788.1 l -722.74,254.3 -558.12,-225.3"
         style="fill:#07085b;fill-opacity:1;fill-rule:nonzero;stroke:none"
         id="path464" /><path
         d="M 10184.6,6.5 9221.26,0 c -21.06,-0.0976563 -37.98,16.4023 -37.8,37 l 0.24,27.6992 c 0.19,20.6016 17.4,37.4028 38.46,37.4998 l 963.34,6.5 c 21.1,0.102 38,-16.3982 37.8,-36.9959 L 10223,44 c -0.1,-20.5977 -17.3,-37.39844 -38.4,-37.5"
         style="fill:#3d3a55;fill-opacity:1;fill-rule:nonzero;stroke:none"
         id="path466" /><path
         d="m 9234.36,412.699 -36.95,-284.398 c -4.55,-35.1018 15.24,-66.801 41.6,-66.5979 l 916.09,6.1992 c 23.8,0.0977 47.5,14.7969 60.2,42.0977 13,28.102 16,70.199 -24.5,126.602 -81,112.699 -350.28,138.5 -481.24,234.199 l -426.73,-2.899 c -23.83,-0.101 -44.36,-23.504 -48.47,-55.203"
         style="fill:#f9537f;fill-opacity:1;fill-rule:nonzero;stroke:none"
         id="path468" /><path
         d="m 9643.33,305.402 v 0 c -6.59,3.899 -8.92,14.797 -5.01,23.098 18.33,39.102 75.39,134.199 189.61,115.5 6.6,-1.098 11.01,-9.602 9.8,-18.5 l -0.04,-0.199 c -1.17,-8.598 -7.17,-14.199 -13.55,-13.199 -102.38,16.398 -150.91,-67.5 -165.75,-100.204 -3.17,-6.996 -9.59,-9.796 -15.06,-6.496"
         style="fill:#ffffff;fill-opacity:1;fill-rule:nonzero;stroke:none"
         id="path470" /><path
         d="m 9738.14,269.398 v 0 c -6.58,4.004 -8.91,14.805 -5.01,23.204 18.33,39 75.4,134.199 189.62,115.5 6.6,-1.102 11,-9.602 9.8,-18.5 l -0.04,-0.301 c -1.16,-8.5 -7.17,-14.199 -13.55,-13.199 -102.37,16.398 -150.91,-67.403 -165.75,-100.2 -3.16,-7 -9.59,-9.703 -15.07,-6.504"
         style="fill:#ffffff;fill-opacity:1;fill-rule:nonzero;stroke:none"
         id="path472" /><path
         d="m 9826.33,235.902 v 0 c -6.58,3.899 -8.91,14.797 -5,23.098 18.32,39.102 75.38,134.301 189.57,115.602 6.6,-1.102 11,-9.7 9.8,-18.5 v -0.301 c -1.2,-8.602 -7.2,-14.199 -13.6,-13.199 -102.32,16.398 -150.86,-67.5 -165.7,-100.2 -3.17,-7 -9.59,-9.8 -15.07,-6.5"
         style="fill:#ffffff;fill-opacity:1;fill-rule:nonzero;stroke:none"
         id="path474" /><path
         d="m 9238.79,61.7031 c -23.68,0 -42.02,25.6992 -42.04,56.3989 0,3.398 0.21,6.699 0.66,10.199 v 0 l 23.76,182.898 c 5.28,0.403 10.9,0.699 16.81,0.699 70.16,0 180.84,-37.296 245.54,-248.5972 l -244.51,-1.5977 c -0.08,0 -0.15,0 -0.22,0"
         style="fill:#f24665;fill-opacity:1;fill-rule:nonzero;stroke:none"
         id="path476" /><path
         d="m 6305.94,8140.8 -52.37,-603.6 547.91,25.5 -63.17,534.4 -432.37,43.7"
         style="fill:#ffc0bb;fill-opacity:1;fill-rule:nonzero;stroke:none"
         id="path478" /><path
         d="m 6768.35,7843 -30.04,254.1 -432.37,43.7 -18.14,-209 c 85.97,-83.3 240.56,-169.6 480.55,-88.8"
         style="fill:#f99893;fill-opacity:1;fill-rule:nonzero;stroke:none"
         id="path480" /><path
         d="m 7104.31,8547.4 c -32.95,-66.2 -15.47,-140.7 39.04,-166.3 54.51,-25.6 125.4,7.3 158.34,73.5 32.95,66.3 15.47,140.7 -39.04,166.4 -54.51,25.6 -125.4,-7.3 -158.34,-73.6"
         style="fill:#f99893;fill-opacity:1;fill-rule:nonzero;stroke:none"
         id="path482" /><path
         d="m 7058.29,8150.9 c 19.33,28.3 36.08,58.5 49.98,90.3 39.2,85.4 62.16,177.2 75.54,257.7 2.87,17.3 6.77,34.3 10.98,51.4 17.06,68.6 21.6,142.3 9.76,219 -38.09,247 -242.48,443.9 -496.96,478.1 -342.83,46 -644.83,-200.7 -666.16,-527.5 -35.26,22 -76.01,29.1 -113.18,15.6 -71.3,-25.8 -102.17,-117 -68.95,-203.6 33.22,-86.6 117.95,-135.9 189.24,-110.1 9.91,3.6 18.94,8.6 27.22,14.5 11,-279.9 231.39,-509 512.8,-521.8 137.62,-6.2 265.65,40.4 365.05,122.1 6.6,4.7 13.57,10.3 20.93,16.8 32.32,28.6 59.93,61.7 83.75,97.5"
         style="fill:#ffc0bb;fill-opacity:1;fill-rule:nonzero;stroke:none"
         id="path484" /><path
         d="m 6562.82,8638.3 c -1.32,-27.4 -25.24,-48.6 -53.44,-47.3 -28.19,1.3 -49.98,24.5 -48.65,51.9 1.32,27.5 25.24,48.6 53.44,47.3 28.19,-1.2 49.97,-24.5 48.65,-51.9"
         style="fill:#333333;fill-opacity:1;fill-rule:nonzero;stroke:none"
         id="path486" /><path
         d="m 6999.85,8590.4 c -1.31,-27.4 -25.24,-48.6 -53.43,-47.3 -28.2,1.3 -49.98,24.5 -48.66,51.9 1.32,27.5 25.25,48.6 53.44,47.3 28.19,-1.2 49.97,-24.5 48.65,-51.9"
         style="fill:#333333;fill-opacity:1;fill-rule:nonzero;stroke:none"
         id="path488" /><path
         d="m 6626.98,8750.5 c -26.02,7.8 -50.51,13.8 -74.73,17.4 -24.18,3.6 -47.88,4.3 -70.98,1.5 -22.96,-3 -46.06,-7.8 -68.27,-17.6 -11.79,-3.5 -22.07,-10.3 -34,-15.2 -11.5,-5.5 -22.16,-12.6 -35.04,-18.1 6.44,11.5 13.94,22.8 22.69,33.1 9.63,9.4 18.87,20 30.91,27.1 22.47,16.6 50.71,26.1 79.19,29.6 28.67,3.3 57.96,-0.7 83.97,-10.9 25.87,-10.3 49.55,-25.6 66.26,-46.9"
         style="fill:#07085b;fill-opacity:1;fill-rule:nonzero;stroke:none"
         id="path490" /><path
         d="m 9780.79,1646 h -6025.4 c -21.34,0 -38.64,17.3 -38.64,38.7 V 1790 c 0,21.4 17.3,38.7 38.64,38.7 h 6025.4 c 21.34,0 38.63,-17.3 38.63,-38.7 v -105.3 c 0,-21.4 -17.29,-38.7 -38.63,-38.7"
         style="fill:#3d3a55;fill-opacity:1;fill-rule:nonzero;stroke:none"
         id="path492" /><path
         d="m 6852.09,8725.8 c 20.64,17.8 46.94,28.4 74.38,33.6 27.54,5 57.09,3.5 84.54,-5.2 27.25,-8.8 53.05,-23.5 71.77,-44 10.39,-9.3 17.33,-21.4 24.92,-32.4 6.51,-11.8 11.63,-24.2 15.63,-36.7 -11.53,7.8 -20.58,16.7 -30.75,24.3 -10.73,7 -19.46,15.7 -30.31,21.4 -19.82,13.8 -41.53,22.8 -63.45,30.1 -22.12,7.1 -45.49,10.9 -69.94,11.9 -24.5,1 -49.7,-0.2 -76.79,-3"
         style="fill:#07085b;fill-opacity:1;fill-rule:nonzero;stroke:none"
         id="path494" /><path
         d="m 6049.57,8711.9 c -32.46,29.5 -58.31,28.4 -58.31,28.4 l 22.17,172.7 59.56,102.3 c 0,0 228.26,272.6 236.18,279.3 7.92,6.6 177.15,91.2 187.53,95.5 10.38,4.2 240.98,-38.6 240.98,-38.6 0,0 411.19,65.6 334.03,-139.2 -77.16,-204.7 -379.42,-302.1 -394.34,-292.3 50.25,44.6 60.52,176.4 60.52,176.4 -219.86,-214.3 -625.22,-362.3 -688.32,-384.5"
         style="fill:#07085b;fill-opacity:1;fill-rule:nonzero;stroke:none"
         id="path496" /><path
         d="m 6743.52,8642.4 c 14.92,-23.4 27.66,-47.9 39.19,-73 11.58,-25.1 21.68,-50.8 29.58,-77.6 3.66,-13.5 6.96,-27.1 7.95,-41.9 0.12,-3.7 0.08,-7.5 -0.39,-11.5 -0.22,-2 -0.8,-4.1 -1.24,-6.2 -0.91,-2.2 -1.47,-4.4 -3.12,-6.7 -0.83,-1.1 -1.72,-2.2 -2.63,-3.3 l -2.22,-1.8 c -1.47,-1.2 -2.89,-2.5 -4.42,-3.6 -3.09,-2.1 -6.13,-4.3 -9.33,-6 -12.57,-7.5 -25.87,-12.9 -39.31,-17.4 -13.51,-4.5 -27.18,-8.2 -41.17,-10.5 25.45,11.7 51.11,23.4 72.94,38.8 2.77,1.9 5.17,4 7.69,6 l 3.47,3.2 1.68,1.6 0.45,0.9 c 1.7,2.7 1.9,9.5 1.24,15.5 -1.3,12.5 -4.48,25.6 -8.27,38.4 -7.28,25.9 -16.53,51.5 -25.42,77.3 -9.08,25.7 -18.29,51.5 -26.67,77.8"
         style="fill:#f99893;fill-opacity:1;fill-rule:nonzero;stroke:none"
         id="path498" /><path
         d="m 6859.06,7686 c 0,0 429.05,-18.1 653.33,-291.1 224.28,-272.9 860.39,-2950.3 860.39,-2950.3 l -715.39,76.5 c 0,0 -930.26,1271.8 -930.26,1304.5 0,32.8 131.93,1860.4 131.93,1860.4"
         style="fill:#050849;fill-opacity:1;fill-rule:nonzero;stroke:none"
         id="path500" /><path
         d="m 6015.89,7681.7 c 0,0 821.26,1.7 833.95,0.8 12.69,-0.8 75.7,5.9 98.89,-18.4 23.19,-24.2 63.21,-158 -51.02,-223.5 -114.25,-65.5 128.57,-68.2 -181.3,-122.8 -309.88,-54.6 -217.01,-128.2 -451.9,-32.7 -234.9,95.5 -265.16,54.6 -273.25,139.2 -8.08,84.6 24.63,257.4 24.63,257.4"
         style="fill:#ffc0bb;fill-opacity:1;fill-rule:nonzero;stroke:none"
         id="path502" /><path
         d="m 7648.17,6466.3 c -47.64,429.7 -162.9,717.8 -292.12,910.9 -96.59,144.3 -242.89,244.6 -407.32,286.9 -0.74,-2.8 -41.61,-155.4 -252.67,-179.8 -213.05,-24.6 -672,197.9 -680.17,197.4 l -0.01,0.1 c -237.09,-14.8 -442.12,-59.3 -548.93,-183.9 -213.03,-248.3 -917.73,-1982.6 -901.34,-2227.6 16.39,-245 204.88,-245 204.88,-245 l 1929.97,-0.9 v -443.9 l 1399.97,-95.6 c -39.03,25.8 -317.3,764.2 -452.26,1981.4"
         style="fill:#07085b;fill-opacity:1;fill-rule:nonzero;stroke:none"
         id="path504" /><path
         d="m 7803.23,6634.9 c 12.32,-0.4 509.6,300.7 509.6,300.7 l 92.93,-19.7 -32.98,-24.3 55.58,13.9 90.41,-13.9 c 0,0 -298.87,-352.5 -303.89,-362.5 -5.02,-10.1 -135.62,-60.3 -145.67,-65.3 -10.04,-5 -265.98,171.1 -265.98,171.1"
         style="fill:#daeef7;fill-opacity:1;fill-rule:nonzero;stroke:none"
         id="path506" /><path
         d="m 7007.47,6875.4 45.21,28.2 20.71,-14.1 v 26.4 l 28.26,19.7 723.32,-286.1 c 0,0 -231.69,-146.8 -239.23,-141.1 -7.53,5.6 -420.05,80.9 -427.58,92.2 -7.53,11.3 -150.69,274.8 -150.69,274.8"
         style="fill:#daeef7;fill-opacity:1;fill-rule:nonzero;stroke:none"
         id="path508" /><path
         d="m 7018.91,6888.7 819.8,-265.3 661.11,287.7 c 40.13,17.4 84.14,-15 79.28,-58.5 l -125.93,-1126 c -2.1,-18.7 -13.34,-35.2 -30.02,-43.9 l -634.77,-334.4 -574.95,212.7 -14.8,21.7 -74.54,11.3 -241.08,89.2 c -21.54,8 -35.1,29.4 -33.14,52.2 l 94.81,1104.1 c 3.13,36.5 39.39,60.5 74.23,49.2"
         style="fill:#feb546;fill-opacity:1;fill-rule:nonzero;stroke:none"
         id="path510" /><path
         d="m 7018.91,6888.8 c -34.84,11.2 -71.1,-12.8 -74.23,-49.3 L 6850,5736.9 c -2.04,-23.7 12.04,-45.9 34.39,-54.2 l 239.7,-88.7 74.53,-11.3 14.81,-21.7 386.72,-143.1 c 88.96,17.2 177.24,33.7 177.24,33.7 l 61.32,1171.8 -819.8,265.4"
         style="fill:#f4a640;fill-opacity:1;fill-rule:nonzero;stroke:none"
         id="path512" /><path
         d="m 7961.08,6488.9 511.23,223.4 -16.32,-232.2 -501.05,-232.1 6.14,240.9"
         style="fill:#f4a640;fill-opacity:1;fill-rule:nonzero;stroke:none"
         id="path514" /><path
         d="m 8237.2,4577.7 c 0,0 1731.01,54.6 2124.3,-316.6 393.3,-371.2 11,-3112 -54.6,-3368.198 0,0 -240.4,-223.402 -524.42,-136.101 -284.06,87.301 -174.8,1309.999 -174.8,1309.999 0,0 32.77,1168.1 -10.93,1331.9 -43.7,163.7 -644.6,283.8 -644.6,283.8 0,0 -928.66,644.1 -874.03,644.1 54.62,0 159.08,251.1 159.08,251.1"
         style="fill:#2b1c35;fill-opacity:1;fill-rule:nonzero;stroke:none"
         id="path516" /><path
         d="m 6700.46,4630.2 c 0,0 2317.24,275 2634.08,-773 316.84,-1048 557.19,-3122.2 557.19,-3122.2 0,0 -305.91,-185.602 -721.07,0 0,0 -587.21,2227 -807.1,2445.4 -219.89,218.3 -1663.1,85.2 -1663.1,85.2 v 1364.6"
         style="fill:#3a2645;fill-opacity:1;fill-rule:nonzero;stroke:none"
         id="path518" /><path
         d="m 7296.06,5296.5 c -8.83,50.1 -21.34,99.3 -35.52,147.9 -14.42,48.7 -30.35,96.6 -49.5,143.9 l -2.14,5.3 -5.81,0.3 -1546.18,77.4 c 5.78,46.9 20.08,92.9 35.65,138 16.44,46.8 35.18,92.8 54.78,138.5 39.47,91.2 82.76,180.7 127.53,269.5 89.92,177.4 185.57,352 285.16,524.2 l -1.59,1 C 6057.64,6570.9 5960.77,6397 5869.57,6220 c -45.42,-88.5 -89.38,-177.9 -129.58,-269 -19.97,-45.6 -39.08,-91.7 -55.96,-138.6 -16.55,-47 -31.92,-94.9 -37.73,-145.3 l -0.59,-5 5.24,-0.3 1545.18,-85.8 c 17.76,-44.5 33.16,-90.5 46.82,-136.7 14.01,-48.1 26.35,-96.8 35.03,-146 8.47,-49.3 15.6,-98.9 15.76,-148.7 0.57,-47.5 -3.14,-95.3 -15.69,-140.8 l -457.63,13.3 -232.23,6.5 -232.32,3.9 -0.07,-2.2 232.12,-9.2 232.11,-9.9 464.23,-19.2 6.37,-0.3 1.87,6.1 c 15.23,49.5 19.9,101.1 19.67,152.1 -0.2,51.1 -7.49,101.6 -16.11,151.6"
         style="fill:#ffffff;fill-opacity:1;fill-rule:nonzero;stroke:none"
         id="path520" /><path
         d="m 7785.41,6639.5 -59.28,-1234.7 90.49,13.1 63.71,1221.6 c 0,0 -47.83,33.2 -94.92,0"
         style="fill:#ed9935;fill-opacity:1;fill-rule:nonzero;stroke:none"
         id="path522" /><path
         d="m 7851.42,5471.5 c -114.72,-50.5 -347.5,-13.8 -347.5,-13.8 l -176.23,61.2 c -24.65,-16.7 -49.73,-33.7 -74.55,-50.3 2.49,-8 5,-16.1 7.4,-24.2 14.18,-48.6 26.69,-97.8 35.52,-147.9 8.62,-50 15.91,-100.5 16.11,-151.6 0.04,-8.4 -0.29,-16.7 -0.54,-25.1 l 24.81,9.2 c 29.98,-6 84.27,-0.9 159.51,10.7 85.89,11 221.66,29.9 280.98,47 42.77,12.3 61.35,39.5 69.2,64.8 33.82,20.6 36.98,59 32.9,89.6 0.96,2 1.8,3.9 2.43,5.9 16.5,51.5 7.31,64.9 -1.13,70.1 6.03,6.2 10.23,13 12.06,20.3 19.12,76.4 -40.97,34.1 -40.97,34.1"
         style="fill:#ffc0bb;fill-opacity:1;fill-rule:nonzero;stroke:none"
         id="path524" /><path
         d="m 7880.33,5345.2 c -13.8,-16.1 -31.64,-28.3 -50.22,-38.6 -18.66,-10.3 -38.82,-17.7 -59.33,-23.4 -20.67,-5.2 -41.75,-8.7 -62.97,-9.6 -10.57,-0.7 -21.2,-0.1 -31.76,-0.3 -10.55,0.8 -21.08,1.8 -31.53,3 21.1,1.1 41.98,1.8 62.69,4.4 20.69,2.5 41.14,6.2 61.22,11.4 20.03,5.3 39.59,12.2 58.5,20.8 18.79,8.7 37.04,19 53.4,32.3"
         style="fill:#f99893;fill-opacity:1;fill-rule:nonzero;stroke:none"
         id="path526" /><path
         d="m 7846.39,5251.3 c -15.03,-14.9 -33.78,-25.7 -53.11,-34.5 -19.42,-8.8 -40.1,-14.6 -60.99,-18.6 -21.02,-3.5 -42.3,-5.4 -63.53,-4.6 -10.6,0.1 -21.15,1.5 -31.68,2.2 -10.46,1.6 -20.89,3.4 -31.2,5.5 21.11,-0.6 41.99,-1.6 62.84,-0.6 20.82,0.9 41.5,2.9 61.92,6.5 20.39,3.8 40.44,9.1 59.97,16.2 19.42,7.2 38.43,16 55.78,27.9"
         style="fill:#f99893;fill-opacity:1;fill-rule:nonzero;stroke:none"
         id="path528" /><path
         d="m 7880.33,5417.1 c -13.8,-16.1 -31.64,-28.3 -50.22,-38.6 -18.66,-10.3 -38.82,-17.7 -59.33,-23.4 -20.67,-5.1 -41.75,-8.6 -62.97,-9.5 -10.57,-0.8 -21.2,-0.2 -31.76,-0.3 -10.55,0.8 -21.08,1.7 -31.53,3 21.1,1 41.98,1.7 62.69,4.3 20.69,2.6 41.14,6.2 61.22,11.4 20.03,5.4 39.59,12.3 58.5,20.8 18.79,8.8 37.04,19.1 53.4,32.3"
         style="fill:#f99893;fill-opacity:1;fill-rule:nonzero;stroke:none"
         id="path530" /><path
         d="m 6536.31,8281.9 c 48.09,-5.6 94.91,-13.8 141.98,-20.4 47.1,-6.8 93.68,-12.5 142.01,-14.4 -47.15,-12.6 -96.96,-10.3 -144.65,-3.8 -47.79,7.3 -94.97,19 -139.34,38.6"
         style="fill:#f99893;fill-opacity:1;fill-rule:nonzero;stroke:none"
         id="path532" /><path
         d="m 3840.38,3.5 h -174.94 l 436.3,1713.1 164.3,-41.8 L 3840.38,3.5"
         style="fill:#3d3a55;fill-opacity:1;fill-rule:nonzero;stroke:none"
         id="path534" /><path
         d="m 7048.12,3.5 h -174.94 l 436.3,1713.1 164.3,-41.8 L 7048.12,3.5"
         style="fill:#3d3a55;fill-opacity:1;fill-rule:nonzero;stroke:none"
         id="path536" /><path
         d="m 5971.3,3.5 h 174.94 l -436.3,1713.1 -164.3,-41.8 L 5971.3,3.5"
         style="fill:#3d3a55;fill-opacity:1;fill-rule:nonzero;stroke:none"
         id="path538" /><path
         d="M 31357.4,13393.4 H 25982 v 307.5 h 5375.4 v -307.5"
         style="fill:#4188e4;fill-opacity:1;fill-rule:nonzero;stroke:none"
         id="path540" /><path
         d="M 32148,10774.5 H 26772.5 V 11082 H 32148 v -307.5"
         style="fill:#4188e4;fill-opacity:1;fill-rule:nonzero;stroke:none"
         id="path542" /><path
         d="M 12645.4,1461.7 H 12493 v 12442.4 h 152.4 V 1461.7"
         style="fill:#09083c;fill-opacity:1;fill-rule:nonzero;stroke:none"
         id="path544" /><path
         d="m 14277.9,1461.7 h -152.4 v 12442.4 h 152.4 V 1461.7"
         style="fill:#09083c;fill-opacity:1;fill-rule:nonzero;stroke:none"
         id="path546" /><path
         d="m 14201.7,13585.9 h -1632.5 v 128.9 h 1632.5 v -128.9"
         style="fill:#09083c;fill-opacity:1;fill-rule:nonzero;stroke:none"
         id="path548" /><path
         d="m 14201.7,12750.9 h -1632.5 v 128.8 h 1632.5 v -128.8"
         style="fill:#09083c;fill-opacity:1;fill-rule:nonzero;stroke:none"
         id="path550" /><path
         d="m 14201.7,11915.8 h -1632.5 v 128.8 h 1632.5 v -128.8"
         style="fill:#09083c;fill-opacity:1;fill-rule:nonzero;stroke:none"
         id="path552" /><path
         d="m 14201.7,11080.7 h -1632.5 v 128.8 h 1632.5 v -128.8"
         style="fill:#09083c;fill-opacity:1;fill-rule:nonzero;stroke:none"
         id="path554" /><path
         d="m 14201.7,10245.6 h -1632.5 v 128.8 h 1632.5 v -128.8"
         style="fill:#09083c;fill-opacity:1;fill-rule:nonzero;stroke:none"
         id="path556" /><path
         d="m 14201.7,9410.5 h -1632.5 v 128.8 h 1632.5 v -128.8"
         style="fill:#09083c;fill-opacity:1;fill-rule:nonzero;stroke:none"
         id="path558" /><path
         d="m 14201.7,8575.4 h -1632.5 v 128.8 h 1632.5 v -128.8"
         style="fill:#09083c;fill-opacity:1;fill-rule:nonzero;stroke:none"
         id="path560" /><path
         d="m 14201.7,7740.3 h -1632.5 v 128.9 h 1632.5 v -128.9"
         style="fill:#09083c;fill-opacity:1;fill-rule:nonzero;stroke:none"
         id="path562" /><path
         d="m 14201.7,6905.2 h -1632.5 v 128.9 h 1632.5 v -128.9"
         style="fill:#09083c;fill-opacity:1;fill-rule:nonzero;stroke:none"
         id="path564" /><path
         d="M 14201.7,6070.1 H 12569.2 V 6199 h 1632.5 v -128.9"
         style="fill:#09083c;fill-opacity:1;fill-rule:nonzero;stroke:none"
         id="path566" /><path
         d="m 14201.7,5235.1 h -1632.5 v 128.8 h 1632.5 v -128.8"
         style="fill:#09083c;fill-opacity:1;fill-rule:nonzero;stroke:none"
         id="path568" /><path
         d="m 14201.7,4400 h -1632.5 v 128.8 h 1632.5 V 4400"
         style="fill:#09083c;fill-opacity:1;fill-rule:nonzero;stroke:none"
         id="path570" /><path
         d="m 14201.7,3564.9 h -1632.5 v 128.8 h 1632.5 v -128.8"
         style="fill:#09083c;fill-opacity:1;fill-rule:nonzero;stroke:none"
         id="path572" /><path
         d="m 34661,15492.9 c 0,-814.4 -660.7,-1474.5 -1475.7,-1474.5 -815,0 -1475.7,660.1 -1475.7,1474.5 0,814.4 660.7,1474.6 1475.7,1474.6 815,0 1475.7,-660.2 1475.7,-1474.6"
         style="fill:#4188e4;fill-opacity:1;fill-rule:nonzero;stroke:none"
         id="path574" /><path
         d="m 34482.6,15574.3 c 45,-716 -499.4,-1332.8 -1215.9,-1377.7 -716.5,-44.9 -1333.8,499 -1378.8,1215 -44.9,715.9 499.5,1332.7 1216,1377.6 716.5,45 1333.7,-499 1378.7,-1214.9"
         style="fill:#ffffff;fill-opacity:1;fill-rule:nonzero;stroke:none"
         id="path576" /><path
         d="m 32346.3,15516.3 v -33.6 h -437.6 v 33.6 h 437.6"
         style="fill:#b0c1ec;fill-opacity:1;fill-rule:nonzero;stroke:none"
         id="path578" /><path
         d="m 34464.5,15516.3 v -33.6 h -437.6 v 33.6 h 437.6"
         style="fill:#b0c1ec;fill-opacity:1;fill-rule:nonzero;stroke:none"
         id="path580" /><path
         d="m 33200.2,16322.3 h -33.6 v 437.2 h 33.6 v -437.2"
         style="fill:#b0c1ec;fill-opacity:1;fill-rule:nonzero;stroke:none"
         id="path582" /><path
         d="m 33200.2,14214.2 h -33.6 v 437.2 h 33.6 v -437.2"
         style="fill:#b0c1ec;fill-opacity:1;fill-rule:nonzero;stroke:none"
         id="path584" /><path
         d="m 33221.5,15492.9 c 0,-20 -16.2,-36.2 -36.2,-36.2 -20,0 -36.2,16.2 -36.2,36.2 0,20 16.2,36.2 36.2,36.2 20,0 36.2,-16.2 36.2,-36.2"
         style="fill:#b0c1ec;fill-opacity:1;fill-rule:nonzero;stroke:none"
         id="path586" /><path
         d="m 33185.3,15476.7 c -4.2,0 -8.3,1.6 -11.5,4.8 l -650.9,650.3 c -6.3,6.3 -6.3,16.6 0,22.9 6.4,6.3 16.6,6.3 22.9,0 l 650.9,-650.3 c 6.3,-6.4 6.3,-16.6 0,-22.9 -3.1,-3.2 -7.3,-4.8 -11.4,-4.8"
         style="fill:#b0c1ec;fill-opacity:1;fill-rule:nonzero;stroke:none"
         id="path588" /><path
         d="m 33394.5,14835.7 c -2.6,1.3 -4.8,3.7 -5.8,6.8 l -210.4,634.9 c -2.1,6.2 1.3,12.9 7.5,14.9 6.1,2.1 12.8,-1.3 14.8,-7.5 l 210.4,-634.9 c 2.1,-6.2 -1.3,-12.9 -7.5,-14.9 -3.1,-1 -6.3,-0.7 -9,0.7"
         style="fill:#b0c1ec;fill-opacity:1;fill-rule:nonzero;stroke:none"
         id="path590" /></g></g></svg>
